<svg width="336" height="56" viewBox="0 0 336 56" fill="none" xmlns="http://www.w3.org/2000/svg">
<rect width="336" height="56" rx="20" fill="#181D27"/>
<rect width="336" height="56" rx="20" fill="#181D27"/>
<path d="M134.209 33.195C133.839 33.195 133.477 33.1325 133.122 33.0075C132.772 32.8825 132.454 32.6975 132.169 32.4525L133.167 31.2525C133.292 31.3575 133.442 31.4475 133.617 31.5225C133.792 31.5975 133.989 31.635 134.209 31.635C134.509 31.635 134.782 31.5575 135.027 31.4025C135.277 31.2425 135.477 31.035 135.627 30.78C135.777 30.52 135.852 30.2425 135.852 29.9475V22.5H137.412V29.9475C137.412 30.5325 137.267 31.0725 136.977 31.5675C136.687 32.0575 136.299 32.4525 135.814 32.7525C135.334 33.0475 134.799 33.195 134.209 33.195ZM142.514 33.195C141.824 33.195 141.194 33.0175 140.624 32.6625C140.059 32.3075 139.607 31.8325 139.267 31.2375C138.932 30.6375 138.764 29.975 138.764 29.25C138.764 28.7 138.862 28.1875 139.057 27.7125C139.252 27.2325 139.519 26.8125 139.859 26.4525C140.204 26.0875 140.604 25.8025 141.059 25.5975C141.514 25.3925 141.999 25.29 142.514 25.29C143.204 25.29 143.832 25.4675 144.397 25.8225C144.967 26.1775 145.419 26.655 145.754 27.255C146.094 27.855 146.264 28.52 146.264 29.25C146.264 29.795 146.167 30.305 145.972 30.78C145.777 31.255 145.507 31.675 145.162 32.04C144.822 32.4 144.424 32.6825 143.969 32.8875C143.519 33.0925 143.034 33.195 142.514 33.195ZM142.514 31.635C142.929 31.635 143.302 31.525 143.632 31.305C143.962 31.085 144.222 30.795 144.412 30.435C144.607 30.07 144.704 29.675 144.704 29.25C144.704 28.815 144.604 28.415 144.404 28.05C144.209 27.685 143.947 27.395 143.617 27.18C143.287 26.96 142.919 26.85 142.514 26.85C142.104 26.85 141.732 26.96 141.397 27.18C141.067 27.4 140.804 27.6925 140.609 28.0575C140.419 28.4225 140.324 28.82 140.324 29.25C140.324 29.695 140.424 30.0975 140.624 30.4575C140.824 30.8175 141.089 31.105 141.419 31.32C141.754 31.53 142.119 31.635 142.514 31.635ZM147.33 25.5H148.89V33H147.33V25.5ZM148.125 24.4125C147.885 24.4125 147.685 24.335 147.525 24.18C147.365 24.025 147.285 23.83 147.285 23.595C147.285 23.365 147.365 23.1725 147.525 23.0175C147.685 22.8575 147.882 22.7775 148.117 22.7775C148.347 22.7775 148.542 22.8575 148.702 23.0175C148.862 23.1725 148.942 23.365 148.942 23.595C148.942 23.83 148.862 24.025 148.702 24.18C148.547 24.335 148.355 24.4125 148.125 24.4125ZM157.376 28.2975V33H155.816V28.68C155.816 28.345 155.733 28.04 155.568 27.765C155.408 27.49 155.191 27.2725 154.916 27.1125C154.646 26.9475 154.341 26.865 154.001 26.865C153.671 26.865 153.368 26.9475 153.093 27.1125C152.818 27.2725 152.598 27.49 152.433 27.765C152.268 28.04 152.186 28.345 152.186 28.68V33H150.626V25.5H152.186V26.295C152.446 25.985 152.766 25.74 153.146 25.56C153.526 25.38 153.936 25.29 154.376 25.29C154.931 25.29 155.436 25.425 155.891 25.695C156.346 25.965 156.706 26.3275 156.971 26.7825C157.241 27.2375 157.376 27.7425 157.376 28.2975ZM165.971 33.21C165.246 33.21 164.584 33.0325 163.984 32.6775C163.389 32.3225 162.914 31.845 162.559 31.245C162.204 30.645 162.026 29.98 162.026 29.25C162.026 28.705 162.129 28.195 162.334 27.72C162.539 27.245 162.821 26.8275 163.181 26.4675C163.546 26.1025 163.966 25.8175 164.441 25.6125C164.916 25.4075 165.426 25.305 165.971 25.305C166.501 25.305 166.961 25.425 167.351 25.665C167.741 25.905 168.061 26.2175 168.311 26.6025V25.5H169.871V36.75H168.311V31.9125C168.061 32.2925 167.741 32.605 167.351 32.85C166.961 33.09 166.501 33.21 165.971 33.21ZM165.986 26.8125C165.551 26.8125 165.154 26.9225 164.794 27.1425C164.434 27.3625 164.149 27.6575 163.939 28.0275C163.729 28.3975 163.624 28.805 163.624 29.25C163.624 29.705 163.731 30.1175 163.946 30.4875C164.161 30.8575 164.446 31.1525 164.801 31.3725C165.161 31.5875 165.556 31.695 165.986 31.695C166.426 31.695 166.811 31.585 167.141 31.365C167.471 31.145 167.726 30.85 167.906 30.48C168.086 30.11 168.176 29.7 168.176 29.25C168.176 28.8 168.084 28.3925 167.899 28.0275C167.719 27.6575 167.464 27.3625 167.134 27.1425C166.809 26.9225 166.426 26.8125 165.986 26.8125ZM171.185 30.1875V25.5H172.745V29.805C172.745 30.14 172.827 30.445 172.992 30.72C173.157 30.995 173.377 31.215 173.652 31.38C173.927 31.54 174.23 31.62 174.56 31.62C174.895 31.62 175.197 31.54 175.467 31.38C175.742 31.215 175.96 30.995 176.12 30.72C176.285 30.445 176.367 30.14 176.367 29.805V25.5H177.927L177.935 33H176.375L176.367 32.19C176.112 32.5 175.795 32.745 175.415 32.925C175.035 33.105 174.627 33.195 174.192 33.195C173.637 33.195 173.132 33.06 172.677 32.79C172.222 32.52 171.86 32.1575 171.59 31.7025C171.32 31.2475 171.185 30.7425 171.185 30.1875ZM182.637 33.195C181.947 33.195 181.317 33.0175 180.747 32.6625C180.182 32.3075 179.729 31.8325 179.389 31.2375C179.054 30.6375 178.887 29.975 178.887 29.25C178.887 28.7 178.984 28.1875 179.179 27.7125C179.374 27.2325 179.642 26.8125 179.982 26.4525C180.327 26.0875 180.727 25.8025 181.182 25.5975C181.637 25.3925 182.122 25.29 182.637 25.29C183.212 25.29 183.739 25.41 184.219 25.65C184.699 25.885 185.109 26.2125 185.449 26.6325C185.789 27.0475 186.039 27.5275 186.199 28.0725C186.359 28.6125 186.407 29.1875 186.342 29.7975H180.559C180.624 30.1425 180.749 30.455 180.934 30.735C181.124 31.01 181.364 31.2275 181.654 31.3875C181.949 31.5475 182.277 31.63 182.637 31.635C183.017 31.635 183.362 31.54 183.672 31.35C183.987 31.16 184.244 30.8975 184.444 30.5625L186.027 30.93C185.727 31.595 185.274 32.14 184.669 32.565C184.064 32.985 183.387 33.195 182.637 33.195ZM180.507 28.605H184.767C184.717 28.245 184.589 27.92 184.384 27.63C184.184 27.335 183.932 27.1025 183.627 26.9325C183.327 26.7575 182.997 26.67 182.637 26.67C182.282 26.67 181.952 26.755 181.647 26.925C181.347 27.095 181.097 27.3275 180.897 27.6225C180.702 27.9125 180.572 28.24 180.507 28.605ZM187.137 30.1875V25.5H188.697V29.805C188.697 30.14 188.78 30.445 188.945 30.72C189.11 30.995 189.33 31.215 189.605 31.38C189.88 31.54 190.182 31.62 190.512 31.62C190.847 31.62 191.15 31.54 191.42 31.38C191.695 31.215 191.912 30.995 192.072 30.72C192.237 30.445 192.32 30.14 192.32 29.805V25.5H193.88L193.887 33H192.327L192.32 32.19C192.065 32.5 191.747 32.745 191.367 32.925C190.987 33.105 190.58 33.195 190.145 33.195C189.59 33.195 189.085 33.06 188.63 32.79C188.175 32.52 187.812 32.1575 187.542 31.7025C187.272 31.2475 187.137 30.7425 187.137 30.1875ZM198.589 33.195C197.899 33.195 197.269 33.0175 196.699 32.6625C196.134 32.3075 195.681 31.8325 195.341 31.2375C195.006 30.6375 194.839 29.975 194.839 29.25C194.839 28.7 194.936 28.1875 195.131 27.7125C195.326 27.2325 195.594 26.8125 195.934 26.4525C196.279 26.0875 196.679 25.8025 197.134 25.5975C197.589 25.3925 198.074 25.29 198.589 25.29C199.164 25.29 199.691 25.41 200.171 25.65C200.651 25.885 201.061 26.2125 201.401 26.6325C201.741 27.0475 201.991 27.5275 202.151 28.0725C202.311 28.6125 202.359 29.1875 202.294 29.7975H196.511C196.576 30.1425 196.701 30.455 196.886 30.735C197.076 31.01 197.316 31.2275 197.606 31.3875C197.901 31.5475 198.229 31.63 198.589 31.635C198.969 31.635 199.314 31.54 199.624 31.35C199.939 31.16 200.196 30.8975 200.396 30.5625L201.979 30.93C201.679 31.595 201.226 32.14 200.621 32.565C200.016 32.985 199.339 33.195 198.589 33.195ZM196.459 28.605H200.719C200.669 28.245 200.541 27.92 200.336 27.63C200.136 27.335 199.884 27.1025 199.579 26.9325C199.279 26.7575 198.949 26.67 198.589 26.67C198.234 26.67 197.904 26.755 197.599 26.925C197.299 27.095 197.049 27.3275 196.849 27.6225C196.654 27.9125 196.524 28.24 196.459 28.605Z" fill="white"/>
</svg>
