<svg width="322" height="19" viewBox="0 0 322 19" fill="none" xmlns="http://www.w3.org/2000/svg">
<path d="M19.9772 0V2.32941H22.2027V0H19.9772ZM23.6515 0V2.32941H25.8777V0H23.6515ZM76.8078 0V2.32941H79.034V0H76.8078ZM80.4829 0V2.32941H82.7091V0H80.4829ZM22.9481 3.02678C18.6596 3.02678 15.3004 6.43123 15.3004 10.777C15.3004 15.1716 18.5705 18.4858 22.9068 18.4858C27.1953 18.4858 30.5544 15.081 30.5544 10.7349C30.5544 6.3402 27.2845 3.02678 22.9481 3.02678ZM79.7788 3.02678C75.4905 3.02678 72.1311 6.43123 72.1311 10.777C72.1311 15.1716 75.4018 18.4858 79.7381 18.4858C84.0264 18.4858 87.3858 15.081 87.3858 10.7349C87.3858 6.3402 84.1151 3.02678 79.7788 3.02678ZM146.189 3.02678C141.982 3.02678 138.687 6.43123 138.687 10.777C138.687 15.3156 141.815 18.4858 146.293 18.4858C149.277 18.4858 151.322 17.059 152.276 16.2079L152.334 16.1564V10.0825H145.953V11.9105H150.4V15.2863C149.308 16.1459 147.803 16.6571 146.356 16.6571C143 16.6571 140.746 14.2769 140.746 10.7349C140.746 7.46122 143.109 4.89684 146.126 4.89684C148.291 4.89684 149.489 5.67923 150.46 6.52452L150.592 6.6399L151.883 5.12107L151.75 5.00859C150.08 3.60059 148.468 3.02678 146.189 3.02678ZM272.579 3.06887C269.696 3.06887 267.603 4.82651 267.603 7.24947C267.603 9.99677 269.619 10.9974 272.647 11.6558C275.743 12.3086 276.31 13.0535 276.31 14.2834C276.31 15.6779 275.07 16.615 273.226 16.615C271.338 16.615 269.92 16.0293 268.331 14.5933L268.198 14.4735L266.95 15.9496L267.076 16.0613C268.896 17.6862 270.831 18.443 273.163 18.443C276.252 18.443 278.327 16.7045 278.327 14.1165C278.327 11.8342 276.862 10.5412 273.429 9.79368C270.192 9.09953 269.599 8.34295 269.599 7.10288C269.599 5.80406 270.807 4.89684 272.537 4.89684C274.044 4.89684 275.35 5.38852 276.644 6.4447L276.784 6.55863L277.955 5.00714L277.823 4.90192C276.222 3.61637 274.653 3.06887 272.579 3.06887ZM7.44226 3.27786V13.2406C7.44226 15.3277 6.43758 16.5729 4.75512 16.5729C3.41218 16.5729 2.51666 16.0104 1.55988 14.5642L1.451 14.4002L0 15.647L0.0769414 15.7725C1.16051 17.5445 2.72755 18.443 4.7348 18.443C7.64907 18.443 9.45943 16.4412 9.45943 13.2189V3.27786H7.44226ZM36.3345 3.27786V18.2347H38.2892V6.5804L47.4162 18.1687L47.4685 18.2347H49.0414V3.27786H47.0867V14.6593L38.1368 3.27786H36.3345ZM56.1273 3.27786V18.2347H58.1234V14.2087L61.0465 11.2465L66.5935 18.2347H69.1035L62.4401 9.84955L68.8858 3.27786H66.269L58.1234 11.745V3.27786H56.1273ZM93.4497 3.27786V18.2347H95.4465V13.0795H98.8225C101.766 13.0795 104.738 11.5414 104.738 8.10576C104.738 5.17309 102.522 3.27786 99.094 3.27786H93.4497ZM110.537 3.27786V18.2347H112.533V3.27786H110.537ZM119.644 3.27786V18.2347H121.599V6.5804L130.726 18.1687L130.778 18.2347H132.351V3.27786H130.396V14.6593L121.446 3.27786H119.644ZM166.464 3.27786V11.946C166.464 15.9672 168.858 18.4647 172.713 18.4647C176.64 18.4647 178.983 15.9811 178.983 11.8212V3.27786H176.987V11.946C176.987 14.9437 175.484 16.594 172.755 16.594C170.025 16.594 168.46 14.8615 168.46 11.8415V3.27786H166.464ZM185.624 3.27786V18.2347H187.578V6.5804L196.705 18.1687L196.757 18.2347H198.33V3.27786H196.376V14.6593L187.426 3.27786H185.624ZM205.477 3.27786V18.2347H207.473V3.27786H205.477ZM212.977 3.27786L219.364 18.234L219.409 18.3392H221.1L227.533 3.27786H225.379L220.276 15.5831L215.193 3.27786H212.977ZM232.731 3.27786V18.2347H243.746V16.385H234.726V11.618H242.703V9.769H234.726V5.12688H243.642V3.27786H232.731ZM249.919 3.27786V18.2347H251.915V12.5578H255.83L260.068 18.2347H262.528L257.996 12.208C260.439 11.672 261.832 10.0833 261.832 7.81332C261.832 5.0579 259.691 3.27786 256.377 3.27786H249.919ZM284.615 3.27786V18.2347H286.611V3.27786H284.615ZM292.016 3.27786V5.14792H296.922V18.2347H298.938V5.14792H303.845V3.27786H292.016ZM307.517 3.27786L313.75 12.3335V18.2347H315.766V12.3132L321.998 3.27786H319.656L314.78 10.4468L309.944 3.27786H307.517ZM22.9068 4.89684C26.093 4.89684 28.4952 7.42454 28.4952 10.777C28.4952 14.1054 26.1108 16.615 22.9481 16.615C19.7619 16.615 17.359 14.0871 17.359 10.7349C17.359 7.40623 19.7441 4.89684 22.9068 4.89684ZM79.7381 4.89684C82.9243 4.89684 85.3265 7.42454 85.3265 10.777C85.3265 14.1054 82.9417 16.615 79.7788 16.615C76.5926 16.615 74.1904 14.0871 74.1904 10.7349C74.1904 7.40623 76.5752 4.89684 79.7381 4.89684ZM95.4465 5.14792H98.9684C101.352 5.14792 102.72 6.24852 102.72 8.16817C102.72 10.0279 101.215 11.2298 98.8849 11.2298H95.4465V5.14792ZM251.915 5.14792H256.251C258.516 5.14792 259.816 6.14244 259.816 7.87572C259.816 9.6092 258.408 10.7283 256.231 10.7283H251.915V5.14792Z" fill="white"/>
</svg>
