<svg width="336" height="56" viewBox="0 0 336 56" fill="none" xmlns="http://www.w3.org/2000/svg">
<rect width="336" height="56" rx="20" fill="#951B80"/>
<path d="M129.038 33V22.5H130.598V31.44H135.12V33H129.038ZM139.398 33.195C138.708 33.195 138.078 33.0175 137.508 32.6625C136.943 32.3075 136.491 31.8325 136.151 31.2375C135.816 30.6375 135.648 29.975 135.648 29.25C135.648 28.7 135.746 28.1875 135.941 27.7125C136.136 27.2325 136.403 26.8125 136.743 26.4525C137.088 26.0875 137.488 25.8025 137.943 25.5975C138.398 25.3925 138.883 25.29 139.398 25.29C139.973 25.29 140.501 25.41 140.981 25.65C141.461 25.885 141.871 26.2125 142.211 26.6325C142.551 27.0475 142.801 27.5275 142.961 28.0725C143.121 28.6125 143.168 29.1875 143.103 29.7975H137.321C137.386 30.1425 137.511 30.455 137.696 30.735C137.886 31.01 138.126 31.2275 138.416 31.3875C138.711 31.5475 139.038 31.63 139.398 31.635C139.778 31.635 140.123 31.54 140.433 31.35C140.748 31.16 141.006 30.8975 141.206 30.5625L142.788 30.93C142.488 31.595 142.036 32.14 141.431 32.565C140.826 32.985 140.148 33.195 139.398 33.195ZM137.268 28.605H141.528C141.478 28.245 141.351 27.92 141.146 27.63C140.946 27.335 140.693 27.1025 140.388 26.9325C140.088 26.7575 139.758 26.67 139.398 26.67C139.043 26.67 138.713 26.755 138.408 26.925C138.108 27.095 137.858 27.3275 137.658 27.6225C137.463 27.9125 137.333 28.24 137.268 28.605ZM150.166 25.5H151.726V33H150.158L150.098 31.9125C149.878 32.2975 149.581 32.6075 149.206 32.8425C148.831 33.0775 148.388 33.195 147.878 33.195C147.328 33.195 146.811 33.0925 146.326 32.8875C145.841 32.6775 145.413 32.3875 145.043 32.0175C144.678 31.6475 144.393 31.2225 144.188 30.7425C143.983 30.2575 143.881 29.7375 143.881 29.1825C143.881 28.6475 143.981 28.145 144.181 27.675C144.381 27.2 144.658 26.785 145.013 26.43C145.368 26.075 145.778 25.7975 146.243 25.5975C146.713 25.3925 147.216 25.29 147.751 25.29C148.296 25.29 148.776 25.415 149.191 25.665C149.611 25.91 149.958 26.225 150.233 26.61L150.166 25.5ZM147.841 31.6875C148.281 31.6875 148.666 31.58 148.996 31.365C149.326 31.145 149.581 30.85 149.761 30.48C149.946 30.11 150.038 29.7 150.038 29.25C150.038 28.795 149.946 28.3825 149.761 28.0125C149.576 27.6425 149.318 27.35 148.988 27.135C148.663 26.915 148.281 26.805 147.841 26.805C147.406 26.805 147.008 26.915 146.648 27.135C146.288 27.355 146.003 27.65 145.793 28.02C145.583 28.39 145.478 28.8 145.478 29.25C145.478 29.705 145.586 30.1175 145.801 30.4875C146.021 30.8525 146.308 31.145 146.663 31.365C147.023 31.58 147.416 31.6875 147.841 31.6875ZM157.234 33H155.232L152.494 25.485H154.159L156.229 31.2L158.307 25.485H159.964L157.234 33ZM164.125 33.195C163.435 33.195 162.805 33.0175 162.235 32.6625C161.67 32.3075 161.217 31.8325 160.877 31.2375C160.542 30.6375 160.375 29.975 160.375 29.25C160.375 28.7 160.472 28.1875 160.667 27.7125C160.862 27.2325 161.13 26.8125 161.47 26.4525C161.815 26.0875 162.215 25.8025 162.67 25.5975C163.125 25.3925 163.61 25.29 164.125 25.29C164.7 25.29 165.227 25.41 165.707 25.65C166.187 25.885 166.597 26.2125 166.937 26.6325C167.277 27.0475 167.527 27.5275 167.687 28.0725C167.847 28.6125 167.895 29.1875 167.83 29.7975H162.047C162.112 30.1425 162.237 30.455 162.422 30.735C162.612 31.01 162.852 31.2275 163.142 31.3875C163.437 31.5475 163.765 31.63 164.125 31.635C164.505 31.635 164.85 31.54 165.16 31.35C165.475 31.16 165.732 30.8975 165.932 30.5625L167.515 30.93C167.215 31.595 166.762 32.14 166.157 32.565C165.552 32.985 164.875 33.195 164.125 33.195ZM161.995 28.605H166.255C166.205 28.245 166.077 27.92 165.872 27.63C165.672 27.335 165.42 27.1025 165.115 26.9325C164.815 26.7575 164.485 26.67 164.125 26.67C163.77 26.67 163.44 26.755 163.135 26.925C162.835 27.095 162.585 27.3275 162.385 27.6225C162.19 27.9125 162.06 28.24 161.995 28.605ZM172.807 33V25.5H174.367V26.295C174.627 25.985 174.947 25.74 175.327 25.56C175.707 25.38 176.117 25.29 176.557 25.29C176.837 25.29 177.115 25.3275 177.39 25.4025L176.767 26.9775C176.572 26.9025 176.377 26.865 176.182 26.865C175.852 26.865 175.55 26.9475 175.275 27.1125C175 27.2725 174.78 27.49 174.615 27.765C174.45 28.04 174.367 28.345 174.367 28.68V33H172.807ZM181.205 33.195C180.515 33.195 179.885 33.0175 179.315 32.6625C178.75 32.3075 178.298 31.8325 177.958 31.2375C177.623 30.6375 177.455 29.975 177.455 29.25C177.455 28.7 177.553 28.1875 177.748 27.7125C177.943 27.2325 178.21 26.8125 178.55 26.4525C178.895 26.0875 179.295 25.8025 179.75 25.5975C180.205 25.3925 180.69 25.29 181.205 25.29C181.895 25.29 182.523 25.4675 183.088 25.8225C183.658 26.1775 184.11 26.655 184.445 27.255C184.785 27.855 184.955 28.52 184.955 29.25C184.955 29.795 184.858 30.305 184.663 30.78C184.468 31.255 184.198 31.675 183.853 32.04C183.513 32.4 183.115 32.6825 182.66 32.8875C182.21 33.0925 181.725 33.195 181.205 33.195ZM181.205 31.635C181.62 31.635 181.993 31.525 182.323 31.305C182.653 31.085 182.913 30.795 183.103 30.435C183.298 30.07 183.395 29.675 183.395 29.25C183.395 28.815 183.295 28.415 183.095 28.05C182.9 27.685 182.638 27.395 182.308 27.18C181.978 26.96 181.61 26.85 181.205 26.85C180.795 26.85 180.423 26.96 180.088 27.18C179.758 27.4 179.495 27.6925 179.3 28.0575C179.11 28.4225 179.015 28.82 179.015 29.25C179.015 29.695 179.115 30.0975 179.315 30.4575C179.515 30.8175 179.78 31.105 180.11 31.32C180.445 31.53 180.81 31.635 181.205 31.635ZM189.452 33.195C188.762 33.195 188.132 33.0175 187.562 32.6625C186.997 32.3075 186.545 31.8325 186.205 31.2375C185.87 30.6375 185.702 29.975 185.702 29.25C185.702 28.7 185.8 28.1875 185.995 27.7125C186.19 27.2325 186.457 26.8125 186.797 26.4525C187.142 26.0875 187.542 25.8025 187.997 25.5975C188.452 25.3925 188.937 25.29 189.452 25.29C190.142 25.29 190.77 25.4675 191.335 25.8225C191.905 26.1775 192.357 26.655 192.692 27.255C193.032 27.855 193.202 28.52 193.202 29.25C193.202 29.795 193.105 30.305 192.91 30.78C192.715 31.255 192.445 31.675 192.1 32.04C191.76 32.4 191.362 32.6825 190.907 32.8875C190.457 33.0925 189.972 33.195 189.452 33.195ZM189.452 31.635C189.867 31.635 190.24 31.525 190.57 31.305C190.9 31.085 191.16 30.795 191.35 30.435C191.545 30.07 191.642 29.675 191.642 29.25C191.642 28.815 191.542 28.415 191.342 28.05C191.147 27.685 190.885 27.395 190.555 27.18C190.225 26.96 189.857 26.85 189.452 26.85C189.042 26.85 188.67 26.96 188.335 27.18C188.005 27.4 187.742 27.6925 187.547 28.0575C187.357 28.4225 187.262 28.82 187.262 29.25C187.262 29.695 187.362 30.0975 187.562 30.4575C187.762 30.8175 188.027 31.105 188.357 31.32C188.692 31.53 189.057 31.635 189.452 31.635ZM194.414 33V25.5H195.974V26.295C196.234 25.985 196.551 25.74 196.926 25.56C197.306 25.38 197.716 25.29 198.156 25.29C198.691 25.29 199.184 25.42 199.634 25.68C200.084 25.935 200.441 26.275 200.706 26.7C200.971 26.275 201.324 25.935 201.764 25.68C202.209 25.42 202.699 25.29 203.234 25.29C203.789 25.29 204.294 25.425 204.749 25.695C205.204 25.965 205.566 26.3275 205.836 26.7825C206.106 27.2375 206.241 27.7425 206.241 28.2975V33H204.681V28.695C204.681 28.365 204.601 28.0625 204.441 27.7875C204.281 27.5125 204.066 27.29 203.796 27.12C203.526 26.95 203.226 26.865 202.896 26.865C202.566 26.865 202.266 26.945 201.996 27.105C201.726 27.265 201.511 27.4825 201.351 27.7575C201.191 28.0325 201.111 28.345 201.111 28.695V33H199.551V28.695C199.551 28.345 199.471 28.0325 199.311 27.7575C199.151 27.4825 198.934 27.265 198.659 27.105C198.389 26.945 198.089 26.865 197.759 26.865C197.434 26.865 197.134 26.95 196.859 27.12C196.589 27.29 196.374 27.5125 196.214 27.7875C196.054 28.0625 195.974 28.365 195.974 28.695V33H194.414Z" fill="white"/>
</svg>
