<svg width="311" height="40" viewBox="0 0 311 40" fill="none" xmlns="http://www.w3.org/2000/svg">
<path d="M305.066 25.8398C305.358 25.8398 305.593 25.7383 305.796 25.5352L310.576 20.876C310.849 20.603 310.97 20.3364 310.976 20C310.976 19.6699 310.849 19.3906 310.576 19.124L305.803 14.4585C305.593 14.2617 305.352 14.1602 305.066 14.1602C304.482 14.1602 304 14.6299 304 15.2139C304 15.5059 304.127 15.7725 304.343 15.9946L308.488 20.0063L304.343 24.0054C304.121 24.2275 304 24.4941 304 24.7861C304 25.3638 304.482 25.8398 305.066 25.8398Z" fill="#ABABAB"/>
<path d="M57.1489 14V4.84033H58.793L61.7065 12.1401H61.8145L64.728 4.84033H66.3721V14H65.0708V7.28418H64.3662L65.8516 5.09424L62.2842 14H61.2305L57.6694 5.09424L59.1484 7.28418H58.4502V14H57.1489ZM69.1777 16.4248C69.0931 16.4248 69.0021 16.4206 68.9048 16.4121C68.8075 16.4079 68.7144 16.4015 68.6255 16.3931V15.3076C68.6932 15.3161 68.7673 15.3224 68.8477 15.3267C68.9323 15.3309 69.0127 15.333 69.0889 15.333C69.4105 15.333 69.6707 15.2568 69.8696 15.1045C70.0685 14.9564 70.2188 14.7088 70.3203 14.3618L70.4219 14.0063L67.9209 7.10645H69.4126L71.3613 13.3208L70.9297 12.6099H71.4565L71.0312 13.3208L72.9736 7.10645H74.4272L71.8628 14.2603C71.6681 14.8104 71.4523 15.242 71.2153 15.5552C70.9784 15.8726 70.6969 16.0968 70.3711 16.228C70.0452 16.3592 69.6475 16.4248 69.1777 16.4248ZM79.4355 14V4.40234H80.813V14H79.4355ZM84.7549 14.1143C84.319 14.1143 83.9276 14.0317 83.5806 13.8667C83.2378 13.6974 82.967 13.4583 82.7681 13.1494C82.5692 12.8405 82.4697 12.4787 82.4697 12.064V12.0513C82.4697 11.6366 82.5692 11.2832 82.7681 10.9912C82.9712 10.6992 83.2632 10.4707 83.644 10.3057C84.0291 10.1364 84.4946 10.0348 85.0405 10.001L87.5859 9.84863V10.8198L85.231 10.9722C84.757 11.0018 84.4079 11.1034 84.1836 11.2769C83.9593 11.4461 83.8472 11.6852 83.8472 11.9941V12.0068C83.8472 12.32 83.9678 12.5675 84.209 12.7495C84.4502 12.9272 84.7549 13.0161 85.123 13.0161C85.4658 13.0161 85.7705 12.9484 86.0371 12.813C86.3079 12.6733 86.5195 12.4871 86.6719 12.2544C86.8242 12.0174 86.9004 11.7508 86.9004 11.4546V9.28369C86.9004 8.90283 86.7819 8.61296 86.5449 8.41406C86.3122 8.21094 85.9652 8.10938 85.5039 8.10938C85.1188 8.10938 84.8035 8.17708 84.5581 8.3125C84.3169 8.44792 84.1561 8.63835 84.0757 8.88379L84.063 8.90283H82.7363L82.7427 8.8584C82.7977 8.47754 82.9479 8.14746 83.1934 7.86816C83.443 7.58464 83.7689 7.36458 84.1709 7.20801C84.5771 7.05143 85.0405 6.97314 85.561 6.97314C86.1408 6.97314 86.6317 7.06624 87.0337 7.25244C87.4399 7.43441 87.7467 7.69889 87.9541 8.0459C88.1657 8.38867 88.2715 8.80127 88.2715 9.28369V14H86.9004V13.0225H86.7988C86.6634 13.2552 86.4941 13.4541 86.291 13.6191C86.0879 13.7799 85.8573 13.9027 85.5991 13.9873C85.341 14.0719 85.0596 14.1143 84.7549 14.1143ZM93.8828 14.1143C93.5612 14.1143 93.265 14.0677 92.9941 13.9746C92.7233 13.8773 92.4821 13.7397 92.2705 13.562C92.0632 13.38 91.8939 13.1642 91.7627 12.9146H91.6548V14H90.2773V4.40234H91.6548V8.19824H91.7627C91.8854 7.94857 92.0526 7.73486 92.2642 7.55713C92.4757 7.37516 92.7191 7.23551 92.9941 7.13818C93.2692 7.03662 93.5654 6.98584 93.8828 6.98584C94.4668 6.98584 94.9725 7.13184 95.3999 7.42383C95.8273 7.71159 96.1574 8.12207 96.3901 8.65527C96.6229 9.18848 96.7393 9.81901 96.7393 10.5469V10.5596C96.7393 11.2832 96.6208 11.9116 96.3838 12.4448C96.151 12.978 95.821 13.3906 95.3936 13.6826C94.9661 13.9704 94.4626 14.1143 93.8828 14.1143ZM93.4893 12.9336C93.8743 12.9336 94.2044 12.8384 94.4795 12.6479C94.7546 12.4575 94.964 12.1846 95.1079 11.8291C95.256 11.4736 95.3301 11.0505 95.3301 10.5596V10.5469C95.3301 10.0518 95.256 9.62858 95.1079 9.27734C94.964 8.92188 94.7546 8.64893 94.4795 8.4585C94.2044 8.26383 93.8743 8.1665 93.4893 8.1665C93.1084 8.1665 92.7783 8.26383 92.499 8.4585C92.2197 8.64893 92.006 8.92188 91.8579 9.27734C91.7098 9.63281 91.6357 10.056 91.6357 10.5469V10.5596C91.6357 11.0462 91.7098 11.4694 91.8579 11.8291C92.006 12.1846 92.2197 12.4575 92.499 12.6479C92.7783 12.8384 93.1084 12.9336 93.4893 12.9336ZM104.833 16.4312C104.249 16.4312 103.741 16.3507 103.309 16.1899C102.882 16.0291 102.543 15.8049 102.293 15.5171C102.044 15.2293 101.891 14.895 101.836 14.5142L101.843 14.5015H103.239L103.246 14.5142C103.305 14.7511 103.472 14.9458 103.747 15.0981C104.022 15.2505 104.39 15.3267 104.852 15.3267C105.419 15.3267 105.861 15.1976 106.178 14.9395C106.5 14.6813 106.661 14.3195 106.661 13.854V12.502H106.553C106.417 12.7474 106.244 12.959 106.032 13.1367C105.821 13.3102 105.579 13.4414 105.309 13.5303C105.038 13.6191 104.744 13.6636 104.426 13.6636C103.842 13.6636 103.334 13.5239 102.903 13.2446C102.475 12.9611 102.145 12.5718 101.913 12.0767C101.684 11.5773 101.57 11.0039 101.57 10.3564V10.3438C101.57 9.68783 101.686 9.10807 101.919 8.60449C102.152 8.09668 102.484 7.70101 102.916 7.41748C103.347 7.12972 103.861 6.98584 104.458 6.98584C104.78 6.98584 105.074 7.03662 105.34 7.13818C105.611 7.23975 105.85 7.38363 106.058 7.56982C106.265 7.75602 106.436 7.97819 106.572 8.23633H106.654V7.10645H108.032V13.8604C108.032 14.3809 107.901 14.8337 107.638 15.2188C107.38 15.6038 107.012 15.9022 106.534 16.1138C106.056 16.3254 105.488 16.4312 104.833 16.4312ZM104.813 12.521C105.203 12.521 105.537 12.43 105.816 12.248C106.096 12.0618 106.309 11.8058 106.458 11.48C106.61 11.1541 106.686 10.7775 106.686 10.3501V10.3374C106.686 9.91423 106.61 9.5376 106.458 9.20752C106.309 8.87744 106.096 8.6193 105.816 8.43311C105.537 8.24691 105.203 8.15381 104.813 8.15381C104.424 8.15381 104.092 8.24691 103.817 8.43311C103.546 8.6193 103.339 8.87744 103.195 9.20752C103.051 9.53337 102.979 9.90999 102.979 10.3374V10.3501C102.979 10.7775 103.051 11.1541 103.195 11.48C103.339 11.8058 103.546 12.0618 103.817 12.248C104.092 12.43 104.424 12.521 104.813 12.521ZM110.019 14V7.10645H111.396V8.14746H111.504C111.627 7.7793 111.842 7.49365 112.151 7.29053C112.465 7.0874 112.85 6.98584 113.307 6.98584C113.421 6.98584 113.533 6.99219 113.643 7.00488C113.753 7.01758 113.842 7.03239 113.91 7.04932V8.31885C113.787 8.29346 113.664 8.27441 113.542 8.26172C113.423 8.24902 113.298 8.24268 113.167 8.24268C112.816 8.24268 112.507 8.31038 112.24 8.4458C111.978 8.58122 111.771 8.77165 111.618 9.01709C111.47 9.2583 111.396 9.54606 111.396 9.88037V14H110.019ZM117.979 14.1333C117.306 14.1333 116.724 13.9894 116.233 13.7017C115.746 13.4139 115.372 13.0034 115.109 12.4702C114.847 11.9328 114.716 11.2959 114.716 10.5596V10.5469C114.716 9.80632 114.847 9.16943 115.109 8.63623C115.376 8.10303 115.753 7.69255 116.239 7.40479C116.73 7.11702 117.31 6.97314 117.979 6.97314C118.651 6.97314 119.231 7.11702 119.718 7.40479C120.204 7.68831 120.579 8.0988 120.841 8.63623C121.108 9.16943 121.241 9.80632 121.241 10.5469V10.5596C121.241 11.2959 121.108 11.9328 120.841 12.4702C120.579 13.0034 120.204 13.4139 119.718 13.7017C119.235 13.9894 118.656 14.1333 117.979 14.1333ZM117.979 12.978C118.372 12.978 118.706 12.8828 118.981 12.6924C119.257 12.4977 119.466 12.2205 119.61 11.8608C119.754 11.5011 119.826 11.0674 119.826 10.5596V10.5469C119.826 10.0348 119.754 9.59896 119.61 9.23926C119.466 8.87956 119.257 8.60449 118.981 8.41406C118.706 8.2194 118.372 8.12207 117.979 8.12207C117.585 8.12207 117.251 8.2194 116.976 8.41406C116.701 8.60449 116.489 8.87956 116.341 9.23926C116.197 9.59896 116.125 10.0348 116.125 10.5469V10.5596C116.125 11.0674 116.197 11.5011 116.341 11.8608C116.489 12.2205 116.701 12.4977 116.976 12.6924C117.251 12.8828 117.585 12.978 117.979 12.978ZM125.177 14.1333C124.66 14.1333 124.225 14.0339 123.869 13.835C123.518 13.6318 123.253 13.3398 123.076 12.959C122.902 12.5739 122.815 12.1105 122.815 11.5688V7.10645H124.193V11.2451C124.193 11.8122 124.305 12.2375 124.529 12.521C124.754 12.8045 125.12 12.9463 125.627 12.9463C125.898 12.9463 126.139 12.9061 126.351 12.8257C126.563 12.741 126.74 12.6204 126.884 12.4639C127.028 12.3073 127.134 12.119 127.202 11.8989C127.274 11.6789 127.31 11.4292 127.31 11.1499V7.10645H128.693V14H127.31V12.959H127.208C127.098 13.2044 126.948 13.416 126.757 13.5938C126.567 13.7673 126.338 13.9006 126.072 13.9937C125.809 14.0868 125.511 14.1333 125.177 14.1333ZM130.674 16.2979V7.10645H132.051V8.19189H132.159C132.29 7.93799 132.46 7.72217 132.667 7.54443C132.879 7.3667 133.12 7.22917 133.391 7.13184C133.661 7.03451 133.958 6.98584 134.279 6.98584C134.859 6.98584 135.363 7.13395 135.79 7.43018C136.217 7.72217 136.548 8.13477 136.78 8.66797C137.017 9.19694 137.136 9.82324 137.136 10.5469V10.5596C137.136 11.2874 137.019 11.918 136.787 12.4512C136.554 12.9801 136.224 13.3906 135.796 13.6826C135.369 13.9704 134.863 14.1143 134.279 14.1143C133.962 14.1143 133.666 14.0656 133.391 13.9683C133.116 13.8667 132.872 13.7271 132.661 13.5493C132.449 13.3716 132.282 13.1579 132.159 12.9082H132.051V16.2979H130.674ZM133.886 12.9336C134.271 12.9336 134.601 12.8384 134.876 12.6479C135.151 12.4575 135.361 12.1846 135.504 11.8291C135.653 11.4736 135.727 11.0505 135.727 10.5596V10.5469C135.727 10.0518 135.653 9.62646 135.504 9.271C135.361 8.91553 135.151 8.64258 134.876 8.45215C134.601 8.26172 134.271 8.1665 133.886 8.1665C133.505 8.1665 133.175 8.26383 132.896 8.4585C132.616 8.64893 132.403 8.92188 132.254 9.27734C132.106 9.62858 132.032 10.0518 132.032 10.5469V10.5596C132.032 11.0462 132.106 11.4673 132.254 11.8228C132.403 12.1782 132.616 12.4533 132.896 12.6479C133.175 12.8384 133.505 12.9336 133.886 12.9336ZM141.293 14.1333C140.739 14.1333 140.257 14.0529 139.846 13.8921C139.436 13.7271 139.11 13.5007 138.869 13.2129C138.627 12.9209 138.486 12.5824 138.443 12.1973V12.1846H139.827V12.1973C139.916 12.4554 140.085 12.6649 140.335 12.8257C140.585 12.9865 140.915 13.0669 141.325 13.0669C141.609 13.0669 141.856 13.0267 142.068 12.9463C142.284 12.8659 142.453 12.7537 142.576 12.6099C142.698 12.466 142.76 12.3009 142.76 12.1147V12.1021C142.76 11.8862 142.673 11.7043 142.5 11.5562C142.326 11.408 142.04 11.2874 141.643 11.1943L140.538 10.9404C140.106 10.8431 139.749 10.7098 139.465 10.5405C139.182 10.3713 138.972 10.1639 138.837 9.91846C138.701 9.66878 138.634 9.37679 138.634 9.04248V9.03613C138.634 8.63411 138.748 8.27865 138.977 7.96973C139.205 7.65658 139.52 7.41325 139.922 7.23975C140.329 7.06201 140.792 6.97314 141.312 6.97314C141.837 6.97314 142.294 7.05566 142.684 7.2207C143.077 7.38151 143.388 7.60579 143.617 7.89355C143.845 8.17708 143.981 8.50716 144.023 8.88379V8.89014H142.703V8.87744C142.639 8.63623 142.487 8.43522 142.246 8.27441C142.009 8.11361 141.695 8.0332 141.306 8.0332C141.056 8.0332 140.834 8.0734 140.64 8.15381C140.445 8.22998 140.291 8.33789 140.176 8.47754C140.066 8.61296 140.011 8.77376 140.011 8.95996V8.97266C140.011 9.11654 140.047 9.24349 140.119 9.35352C140.195 9.45931 140.314 9.55452 140.475 9.63916C140.635 9.71956 140.843 9.7915 141.097 9.85498L142.195 10.1025C142.855 10.2591 143.346 10.4855 143.667 10.7817C143.993 11.078 144.156 11.4757 144.156 11.9751V11.9878C144.156 12.411 144.031 12.7855 143.782 13.1113C143.532 13.4329 143.191 13.6847 142.76 13.8667C142.332 14.0444 141.844 14.1333 141.293 14.1333Z" fill="#181D27"/>
<path d="M59.5288 35.1826C58.9631 35.1826 58.4689 35.0913 58.0464 34.9087C57.6274 34.7225 57.2944 34.4683 57.0474 34.146C56.8039 33.8201 56.6624 33.4478 56.623 33.0288L56.6177 32.9697H57.5845L57.5898 33.0288C57.6149 33.2866 57.7134 33.5104 57.8853 33.7002C58.0607 33.8864 58.2935 34.0314 58.5835 34.1353C58.8771 34.2391 59.2101 34.291 59.5825 34.291C59.9334 34.291 60.245 34.2355 60.5171 34.1245C60.7928 34.0099 61.0094 33.8524 61.167 33.6519C61.3245 33.4513 61.4033 33.2204 61.4033 32.959V32.9536C61.4033 32.6313 61.2852 32.361 61.0488 32.1426C60.8125 31.9206 60.4276 31.7505 59.894 31.6323L59.0347 31.4443C58.2576 31.2725 57.6919 31.0075 57.3374 30.6494C56.9865 30.2878 56.811 29.8258 56.811 29.2637V29.2583C56.8146 28.8286 56.931 28.4491 57.1602 28.1196C57.3929 27.7902 57.7134 27.5324 58.1216 27.3462C58.5334 27.16 59.006 27.0669 59.5396 27.0669C60.0552 27.0669 60.5117 27.16 60.9092 27.3462C61.3066 27.5288 61.6217 27.7759 61.8545 28.0874C62.0908 28.3989 62.2215 28.748 62.2466 29.1348L62.252 29.21H61.2852L61.2744 29.1401C61.2386 28.911 61.1455 28.7087 60.9951 28.5332C60.8447 28.3542 60.6442 28.2127 60.3936 28.1089C60.1429 28.005 59.8493 27.9549 59.5127 27.9585C59.1904 27.9585 58.9004 28.0086 58.6426 28.1089C58.3848 28.2091 58.1789 28.3542 58.0249 28.5439C57.8745 28.7301 57.7993 28.9593 57.7993 29.2314V29.2368C57.7993 29.5448 57.9139 29.8044 58.1431 30.0156C58.3722 30.2269 58.75 30.3898 59.2764 30.5044L60.1357 30.6978C60.6764 30.8159 61.1115 30.9699 61.4409 31.1597C61.7703 31.3494 62.0103 31.5822 62.1606 31.8579C62.3146 32.13 62.3916 32.4523 62.3916 32.8247V32.8301C62.3916 33.3135 62.2734 33.7306 62.0371 34.0815C61.8008 34.4325 61.4678 34.7046 61.0381 34.8979C60.6084 35.0877 60.1053 35.1826 59.5288 35.1826ZM66.248 35.1021C65.6966 35.1021 65.2222 34.9803 64.8247 34.7368C64.4308 34.4933 64.1265 34.1496 63.9116 33.7056C63.7004 33.258 63.5947 32.7316 63.5947 32.1265V32.1211C63.5947 31.5231 63.7004 30.9985 63.9116 30.5474C64.1265 30.0962 64.429 29.7435 64.8193 29.4893C65.2096 29.235 65.6662 29.1079 66.189 29.1079C66.7153 29.1079 67.1665 29.2297 67.5425 29.4731C67.922 29.7166 68.2121 30.0568 68.4126 30.4937C68.6167 30.9269 68.7188 31.4318 68.7188 32.0083V32.3735H64.0781V31.627H68.2407L67.7788 32.3091V31.9385C67.7788 31.4837 67.7108 31.1095 67.5747 30.8159C67.4386 30.5223 67.2507 30.3039 67.0107 30.1606C66.7708 30.0138 66.4951 29.9404 66.1836 29.9404C65.8721 29.9404 65.5928 30.0174 65.3457 30.1714C65.1022 30.3218 64.9089 30.5456 64.7656 30.8428C64.6224 31.14 64.5508 31.5052 64.5508 31.9385V32.3091C64.5508 32.7209 64.6206 33.0736 64.7603 33.3672C64.8999 33.6572 65.0986 33.881 65.3564 34.0386C65.6143 34.1925 65.9186 34.2695 66.2695 34.2695C66.5309 34.2695 66.7583 34.2337 66.9517 34.1621C67.145 34.0905 67.3044 33.9992 67.4297 33.8882C67.555 33.7772 67.6427 33.6644 67.6929 33.5498L67.7144 33.5015H68.6489L68.6382 33.5444C68.5881 33.7414 68.4985 33.9329 68.3696 34.1191C68.2443 34.3018 68.0814 34.4683 67.8809 34.6187C67.6803 34.7655 67.4422 34.8836 67.1665 34.9731C66.8944 35.0591 66.5882 35.1021 66.248 35.1021ZM72.5322 35.1021C71.9808 35.1021 71.5063 34.9803 71.1089 34.7368C70.715 34.4933 70.4106 34.1496 70.1958 33.7056C69.9845 33.258 69.8789 32.7316 69.8789 32.1265V32.1211C69.8789 31.5231 69.9845 30.9985 70.1958 30.5474C70.4106 30.0962 70.7132 29.7435 71.1035 29.4893C71.4938 29.235 71.9504 29.1079 72.4731 29.1079C72.9995 29.1079 73.4507 29.2297 73.8267 29.4731C74.2062 29.7166 74.4963 30.0568 74.6968 30.4937C74.9009 30.9269 75.0029 31.4318 75.0029 32.0083V32.3735H70.3623V31.627H74.5249L74.063 32.3091V31.9385C74.063 31.4837 73.995 31.1095 73.8589 30.8159C73.7228 30.5223 73.5348 30.3039 73.2949 30.1606C73.055 30.0138 72.7793 29.9404 72.4678 29.9404C72.1562 29.9404 71.877 30.0174 71.6299 30.1714C71.3864 30.3218 71.193 30.5456 71.0498 30.8428C70.9066 31.14 70.835 31.5052 70.835 31.9385V32.3091C70.835 32.7209 70.9048 33.0736 71.0444 33.3672C71.1841 33.6572 71.3828 33.881 71.6406 34.0386C71.8984 34.1925 72.2028 34.2695 72.5537 34.2695C72.8151 34.2695 73.0425 34.2337 73.2358 34.1621C73.4292 34.0905 73.5885 33.9992 73.7139 33.8882C73.8392 33.7772 73.9269 33.6644 73.9771 33.5498L73.9985 33.5015H74.9331L74.9224 33.5444C74.8722 33.7414 74.7827 33.9329 74.6538 34.1191C74.5285 34.3018 74.3656 34.4683 74.165 34.6187C73.9645 34.7655 73.7264 34.8836 73.4507 34.9731C73.1785 35.0591 72.8724 35.1021 72.5322 35.1021ZM81.9155 35.1021C81.3748 35.1021 80.9058 34.9785 80.5083 34.7314C80.1108 34.4844 79.8029 34.1353 79.5845 33.6841C79.366 33.2329 79.2568 32.7012 79.2568 32.0889V32.0781C79.2568 31.4766 79.3643 30.9538 79.5791 30.5098C79.7975 30.0658 80.1055 29.722 80.5029 29.4785C80.9004 29.2314 81.3695 29.1079 81.9102 29.1079C82.3792 29.1079 82.7839 29.1903 83.124 29.355C83.4642 29.5197 83.7363 29.7417 83.9404 30.021C84.1445 30.2967 84.2752 30.6064 84.3325 30.9502L84.3379 30.9824H83.4087L83.4033 30.9663C83.3317 30.6799 83.1688 30.4364 82.9146 30.2358C82.6603 30.0353 82.3255 29.9351 81.9102 29.9351C81.5628 29.9351 81.262 30.0228 81.0078 30.1982C80.7536 30.3737 80.5566 30.6226 80.417 30.9448C80.2809 31.2635 80.2129 31.6413 80.2129 32.0781V32.0889C80.2129 32.5329 80.2827 32.9196 80.4224 33.249C80.562 33.5749 80.759 33.8273 81.0132 34.0063C81.2674 34.1854 81.5664 34.2749 81.9102 34.2749C82.3005 34.2749 82.6191 34.1908 82.8662 34.0225C83.1133 33.8542 83.2905 33.6089 83.3979 33.2866L83.4087 33.2544L84.3325 33.249L84.3218 33.3081C84.243 33.6554 84.1034 33.9652 83.9028 34.2373C83.7023 34.5059 83.4373 34.7171 83.1079 34.8711C82.7785 35.0251 82.381 35.1021 81.9155 35.1021ZM87.6411 35.1021C87.2043 35.1021 86.8372 35.0197 86.54 34.855C86.2428 34.6867 86.019 34.4432 85.8687 34.1245C85.7218 33.8022 85.6484 33.4137 85.6484 32.959V29.21H86.583V32.7334C86.583 33.2526 86.6833 33.6393 86.8838 33.8936C87.0879 34.1478 87.4209 34.2749 87.8828 34.2749C88.137 34.2749 88.3608 34.2373 88.5542 34.1621C88.7511 34.0869 88.9159 33.9795 89.0483 33.8398C89.1808 33.6966 89.2793 33.5247 89.3438 33.3242C89.4118 33.1201 89.4458 32.891 89.4458 32.6367V29.21H90.3804V35H89.4458V34.1353H89.3599C89.2668 34.3394 89.1396 34.5148 88.9785 34.6616C88.8174 34.8049 88.624 34.9141 88.3984 34.9893C88.1764 35.0645 87.924 35.1021 87.6411 35.1021ZM92.126 35V29.21H93.0605V30.0693H93.1465C93.2575 29.765 93.4455 29.5286 93.7104 29.3604C93.9754 29.1921 94.3031 29.1079 94.6934 29.1079C94.7829 29.1079 94.8706 29.1133 94.9565 29.124C95.0461 29.1312 95.1141 29.1383 95.1606 29.1455V30.0532C95.064 30.0353 94.9691 30.0228 94.876 30.0156C94.7865 30.0049 94.6898 29.9995 94.5859 29.9995C94.2887 29.9995 94.0256 30.0586 93.7964 30.1768C93.5672 30.2949 93.3864 30.4596 93.2539 30.6709C93.125 30.8822 93.0605 31.1292 93.0605 31.4121V35H92.126ZM96.4229 35V29.21H97.3574V30.0693H97.4434C97.5544 29.765 97.7424 29.5286 98.0073 29.3604C98.2723 29.1921 98.5999 29.1079 98.9902 29.1079C99.0798 29.1079 99.1675 29.1133 99.2534 29.124C99.3429 29.1312 99.411 29.1383 99.4575 29.1455V30.0532C99.3608 30.0353 99.266 30.0228 99.1729 30.0156C99.0833 30.0049 98.9867 29.9995 98.8828 29.9995C98.5856 29.9995 98.3224 30.0586 98.0933 30.1768C97.8641 30.2949 97.6833 30.4596 97.5508 30.6709C97.4219 30.8822 97.3574 31.1292 97.3574 31.4121V35H96.4229ZM102.814 35.1021C102.263 35.1021 101.789 34.9803 101.391 34.7368C100.997 34.4933 100.693 34.1496 100.478 33.7056C100.267 33.258 100.161 32.7316 100.161 32.1265V32.1211C100.161 31.5231 100.267 30.9985 100.478 30.5474C100.693 30.0962 100.995 29.7435 101.386 29.4893C101.776 29.235 102.233 29.1079 102.755 29.1079C103.282 29.1079 103.733 29.2297 104.109 29.4731C104.488 29.7166 104.778 30.0568 104.979 30.4937C105.183 30.9269 105.285 31.4318 105.285 32.0083V32.3735H100.645V31.627H104.807L104.345 32.3091V31.9385C104.345 31.4837 104.277 31.1095 104.141 30.8159C104.005 30.5223 103.817 30.3039 103.577 30.1606C103.337 30.0138 103.062 29.9404 102.75 29.9404C102.438 29.9404 102.159 30.0174 101.912 30.1714C101.669 30.3218 101.475 30.5456 101.332 30.8428C101.189 31.14 101.117 31.5052 101.117 31.9385V32.3091C101.117 32.7209 101.187 33.0736 101.327 33.3672C101.466 33.6572 101.665 33.881 101.923 34.0386C102.181 34.1925 102.485 34.2695 102.836 34.2695C103.097 34.2695 103.325 34.2337 103.518 34.1621C103.711 34.0905 103.871 33.9992 103.996 33.8882C104.121 33.7772 104.209 33.6644 104.259 33.5498L104.281 33.5015H105.215L105.205 33.5444C105.154 33.7414 105.065 33.9329 104.936 34.1191C104.811 34.3018 104.648 34.4683 104.447 34.6187C104.247 34.7655 104.009 34.8836 103.733 34.9731C103.461 35.0591 103.155 35.1021 102.814 35.1021ZM106.735 35V29.21H107.67V30.0801H107.756C107.903 29.7721 108.114 29.534 108.39 29.3657C108.665 29.1938 109.016 29.1079 109.442 29.1079C110.094 29.1079 110.594 29.2941 110.941 29.6665C111.292 30.0353 111.467 30.5635 111.467 31.251V35H110.533V31.4766C110.533 30.9538 110.422 30.5671 110.2 30.3164C109.981 30.0622 109.641 29.9351 109.179 29.9351C108.871 29.9351 108.604 30.0013 108.379 30.1338C108.153 30.2663 107.978 30.4543 107.853 30.6978C107.731 30.9412 107.67 31.2331 107.67 31.5732V35H106.735ZM115.216 35.043C114.622 35.043 114.19 34.923 113.922 34.6831C113.657 34.4432 113.524 34.0475 113.524 33.4961V29.9834H112.611V29.21H113.524V27.7114H114.491V29.21H115.759V29.9834H114.491V33.2598C114.491 33.5999 114.556 33.8452 114.685 33.9956C114.813 34.1424 115.028 34.2158 115.329 34.2158C115.411 34.2158 115.481 34.214 115.539 34.2104C115.599 34.2069 115.673 34.2015 115.759 34.1943V34.9893C115.669 35.0036 115.58 35.0161 115.49 35.0269C115.401 35.0376 115.309 35.043 115.216 35.043ZM120.303 35V26.9111H121.237V35H120.303ZM124.621 35.1021C124.256 35.1021 123.926 35.0322 123.633 34.8926C123.343 34.7529 123.112 34.5542 122.94 34.2964C122.772 34.0386 122.688 33.7342 122.688 33.3833V33.3726C122.688 33.0288 122.77 32.7352 122.935 32.4917C123.099 32.2446 123.339 32.0513 123.654 31.9116C123.969 31.772 124.351 31.6896 124.798 31.6646L126.925 31.5356V32.2822L124.911 32.4111C124.471 32.4362 124.148 32.5275 123.944 32.6851C123.744 32.8426 123.644 33.0646 123.644 33.3511V33.3618C123.644 33.6554 123.755 33.8846 123.977 34.0493C124.199 34.2104 124.478 34.291 124.814 34.291C125.133 34.291 125.416 34.2284 125.663 34.103C125.91 33.9741 126.104 33.8005 126.243 33.582C126.386 33.3636 126.458 33.1165 126.458 32.8408V31.0361C126.458 30.6781 126.349 30.4059 126.13 30.2197C125.916 30.0299 125.591 29.9351 125.158 29.9351C124.811 29.9351 124.526 29.9977 124.304 30.123C124.082 30.2448 123.934 30.4185 123.858 30.644L123.853 30.6602H122.918L122.924 30.6279C122.974 30.3236 123.099 30.0586 123.3 29.833C123.504 29.6038 123.767 29.4266 124.089 29.3013C124.412 29.1724 124.779 29.1079 125.19 29.1079C125.663 29.1079 126.062 29.1849 126.388 29.3389C126.718 29.4928 126.966 29.7148 127.135 30.0049C127.307 30.2913 127.393 30.6351 127.393 31.0361V35H126.458V34.146H126.372C126.25 34.3501 126.102 34.5238 125.926 34.667C125.754 34.8102 125.559 34.9194 125.341 34.9946C125.122 35.0662 124.882 35.1021 124.621 35.1021ZM131.979 35.1021C131.711 35.1021 131.462 35.0609 131.233 34.9785C131.004 34.8962 130.8 34.7798 130.621 34.6294C130.442 34.4754 130.293 34.291 130.175 34.0762H130.089V35H129.154V26.9111H130.089V30.123H130.175C130.282 29.9154 130.425 29.7363 130.604 29.5859C130.787 29.4355 130.995 29.3192 131.228 29.2368C131.464 29.1509 131.715 29.1079 131.979 29.1079C132.47 29.1079 132.896 29.2314 133.258 29.4785C133.623 29.7256 133.906 30.0729 134.106 30.5205C134.307 30.9681 134.407 31.4945 134.407 32.0996V32.1104C134.407 32.7119 134.307 33.2383 134.106 33.6895C133.906 34.137 133.623 34.4844 133.258 34.7314C132.896 34.9785 132.47 35.1021 131.979 35.1021ZM131.765 34.2749C132.119 34.2749 132.422 34.189 132.672 34.0171C132.923 33.8416 133.115 33.5928 133.247 33.2705C133.383 32.9447 133.451 32.5579 133.451 32.1104V32.0996C133.451 31.6484 133.383 31.2617 133.247 30.9395C133.115 30.6172 132.923 30.3701 132.672 30.1982C132.422 30.0228 132.119 29.9351 131.765 29.9351C131.414 29.9351 131.111 30.0228 130.857 30.1982C130.603 30.3737 130.408 30.6226 130.271 30.9448C130.135 31.2671 130.067 31.652 130.067 32.0996V32.1104C130.067 32.5544 130.135 32.9393 130.271 33.2651C130.408 33.5874 130.603 33.8363 130.857 34.0117C131.111 34.1872 131.414 34.2749 131.765 34.2749ZM141.336 37.041C140.87 37.041 140.464 36.9748 140.117 36.8423C139.769 36.7134 139.492 36.529 139.284 36.2891C139.08 36.0527 138.953 35.777 138.903 35.4619L138.914 35.4565H139.88L139.886 35.4619C139.936 35.6803 140.086 35.8594 140.337 35.999C140.588 36.1423 140.921 36.2139 141.336 36.2139C141.855 36.2139 142.26 36.0957 142.55 35.8594C142.843 35.6266 142.99 35.2972 142.99 34.8711V33.7002H142.904C142.783 33.9115 142.63 34.0923 142.448 34.2427C142.265 34.3931 142.059 34.5076 141.83 34.5864C141.601 34.6616 141.354 34.6992 141.089 34.6992C140.591 34.6992 140.16 34.5811 139.794 34.3447C139.433 34.1048 139.153 33.7754 138.957 33.3564C138.76 32.9375 138.661 32.4577 138.661 31.917V31.9062C138.661 31.3656 138.76 30.8857 138.957 30.4668C139.157 30.0443 139.44 29.7131 139.805 29.4731C140.17 29.2297 140.605 29.1079 141.11 29.1079C141.382 29.1079 141.633 29.1509 141.862 29.2368C142.091 29.3228 142.294 29.4445 142.469 29.6021C142.648 29.7596 142.797 29.9476 142.915 30.166H142.979V29.21H143.914V34.9194C143.914 35.3491 143.808 35.7233 143.597 36.042C143.389 36.3607 143.092 36.606 142.706 36.7778C142.319 36.9533 141.862 37.041 141.336 37.041ZM141.293 33.8721C141.651 33.8721 141.957 33.7897 142.211 33.625C142.469 33.4567 142.666 33.2257 142.802 32.9321C142.942 32.6385 143.012 32.3001 143.012 31.917V31.9062C143.012 31.5231 142.942 31.1829 142.802 30.8857C142.666 30.5885 142.469 30.3558 142.211 30.1875C141.957 30.0192 141.651 29.9351 141.293 29.9351C140.935 29.9351 140.631 30.0192 140.38 30.1875C140.133 30.3558 139.943 30.5885 139.811 30.8857C139.682 31.1829 139.617 31.5231 139.617 31.9062V31.917C139.617 32.3001 139.682 32.6385 139.811 32.9321C139.943 33.2257 140.133 33.4567 140.38 33.625C140.631 33.7897 140.935 33.8721 141.293 33.8721ZM145.654 35V29.21H146.589V30.0693H146.675C146.786 29.765 146.974 29.5286 147.239 29.3604C147.504 29.1921 147.831 29.1079 148.222 29.1079C148.311 29.1079 148.399 29.1133 148.485 29.124C148.574 29.1312 148.642 29.1383 148.689 29.1455V30.0532C148.592 30.0353 148.497 30.0228 148.404 30.0156C148.315 30.0049 148.218 29.9995 148.114 29.9995C147.817 29.9995 147.554 30.0586 147.325 30.1768C147.096 30.2949 146.915 30.4596 146.782 30.6709C146.653 30.8822 146.589 31.1292 146.589 31.4121V35H145.654ZM152.062 35.1021C151.514 35.1021 151.04 34.9821 150.639 34.7422C150.241 34.4987 149.933 34.1532 149.715 33.7056C149.5 33.258 149.393 32.7262 149.393 32.1104V32.0996C149.393 31.4801 149.5 30.9466 149.715 30.499C149.933 30.0514 150.241 29.7077 150.639 29.4678C151.04 29.2279 151.514 29.1079 152.062 29.1079C152.613 29.1079 153.088 29.2279 153.485 29.4678C153.883 29.7077 154.189 30.0514 154.404 30.499C154.622 30.9466 154.731 31.4801 154.731 32.0996V32.1104C154.731 32.7262 154.622 33.258 154.404 33.7056C154.189 34.1532 153.883 34.4987 153.485 34.7422C153.088 34.9821 152.613 35.1021 152.062 35.1021ZM152.062 34.2749C152.427 34.2749 152.737 34.189 152.991 34.0171C153.245 33.8452 153.439 33.5981 153.571 33.2759C153.707 32.9536 153.775 32.5651 153.775 32.1104V32.0996C153.775 31.6413 153.707 31.251 153.571 30.9287C153.439 30.6064 153.245 30.3612 152.991 30.1929C152.737 30.021 152.427 29.9351 152.062 29.9351C151.697 29.9351 151.387 30.021 151.133 30.1929C150.879 30.3612 150.683 30.6064 150.547 30.9287C150.415 31.251 150.349 31.6413 150.349 32.0996V32.1104C150.349 32.5651 150.415 32.9536 150.547 33.2759C150.683 33.5981 150.879 33.8452 151.133 34.0171C151.387 34.189 151.697 34.2749 152.062 34.2749ZM158.121 35.1021C157.684 35.1021 157.317 35.0197 157.02 34.855C156.722 34.6867 156.499 34.4432 156.348 34.1245C156.201 33.8022 156.128 33.4137 156.128 32.959V29.21H157.062V32.7334C157.062 33.2526 157.163 33.6393 157.363 33.8936C157.567 34.1478 157.9 34.2749 158.362 34.2749C158.617 34.2749 158.84 34.2373 159.034 34.1621C159.231 34.0869 159.395 33.9795 159.528 33.8398C159.66 33.6966 159.759 33.5247 159.823 33.3242C159.891 33.1201 159.925 32.891 159.925 32.6367V29.21H160.86V35H159.925V34.1353H159.839C159.746 34.3394 159.619 34.5148 159.458 34.6616C159.297 34.8049 159.104 34.9141 158.878 34.9893C158.656 35.0645 158.403 35.1021 158.121 35.1021ZM162.605 36.9336V29.21H163.54V30.1338H163.626C163.744 29.9189 163.893 29.7363 164.072 29.5859C164.251 29.432 164.455 29.3138 164.684 29.2314C164.913 29.1491 165.162 29.1079 165.431 29.1079C165.921 29.1079 166.347 29.2332 166.709 29.4839C167.074 29.731 167.357 30.0783 167.558 30.5259C167.758 30.9735 167.858 31.498 167.858 32.0996V32.1104C167.858 32.7155 167.758 33.2419 167.558 33.6895C167.357 34.137 167.074 34.4844 166.709 34.7314C166.347 34.9785 165.921 35.1021 165.431 35.1021C165.166 35.1021 164.915 35.0609 164.679 34.9785C164.446 34.8926 164.238 34.7744 164.056 34.624C163.877 34.4736 163.733 34.2946 163.626 34.0869H163.54V36.9336H162.605ZM165.216 34.2749C165.57 34.2749 165.873 34.189 166.124 34.0171C166.374 33.8416 166.566 33.5928 166.698 33.2705C166.834 32.9447 166.902 32.5579 166.902 32.1104V32.0996C166.902 31.6484 166.834 31.2617 166.698 30.9395C166.566 30.6172 166.374 30.3701 166.124 30.1982C165.873 30.0228 165.57 29.9351 165.216 29.9351C164.865 29.9351 164.562 30.0228 164.308 30.1982C164.054 30.3737 163.859 30.6226 163.723 30.9448C163.587 31.2671 163.519 31.652 163.519 32.0996V32.1104C163.519 32.5544 163.587 32.9393 163.723 33.2651C163.859 33.5874 164.054 33.8363 164.308 34.0117C164.562 34.1872 164.865 34.2749 165.216 34.2749ZM171.307 35.1021C170.877 35.1021 170.497 35.0376 170.168 34.9087C169.839 34.7762 169.574 34.5918 169.373 34.3555C169.176 34.1191 169.06 33.8416 169.024 33.5229H169.98C170.059 33.7629 170.213 33.9562 170.442 34.103C170.671 34.2498 170.97 34.3232 171.339 34.3232C171.6 34.3232 171.829 34.2856 172.026 34.2104C172.227 34.1317 172.384 34.026 172.499 33.8936C172.614 33.7575 172.671 33.6017 172.671 33.4263V33.4155C172.671 33.2186 172.592 33.0521 172.435 32.916C172.277 32.7764 172.019 32.6636 171.661 32.5776L170.764 32.3628C170.403 32.2769 170.105 32.1659 169.873 32.0298C169.64 31.8901 169.468 31.7201 169.357 31.5195C169.246 31.3154 169.19 31.0755 169.19 30.7998V30.7944C169.19 30.4722 169.284 30.1839 169.47 29.9297C169.66 29.6755 169.917 29.4749 170.243 29.3281C170.569 29.1813 170.936 29.1079 171.344 29.1079C171.749 29.1079 172.107 29.1724 172.418 29.3013C172.734 29.4266 172.986 29.6056 173.176 29.8384C173.369 30.0711 173.487 30.3451 173.53 30.6602H172.612C172.551 30.431 172.411 30.2448 172.193 30.1016C171.974 29.9583 171.69 29.8867 171.339 29.8867C171.11 29.8867 170.906 29.9243 170.727 29.9995C170.548 30.0711 170.406 30.1714 170.302 30.3003C170.198 30.4292 170.146 30.5796 170.146 30.7515V30.7622C170.146 30.8911 170.181 31.0057 170.249 31.106C170.317 31.2062 170.422 31.2939 170.565 31.3691C170.709 31.4443 170.893 31.5106 171.119 31.5679L172.01 31.7827C172.555 31.9152 172.959 32.105 173.224 32.3521C173.493 32.5991 173.627 32.9303 173.627 33.3457V33.3564C173.627 33.7002 173.525 34.0046 173.321 34.2695C173.117 34.5309 172.839 34.735 172.488 34.8818C172.141 35.0286 171.747 35.1021 171.307 35.1021Z" fill="#ABABAB"/>
<circle opacity="0.05" cx="20" cy="20" r="20" fill="#951B80"/>
<g clip-path="url(#clip0_83_810)">
<path opacity="0.7" d="M19.4964 27C23.6071 27 27 23.6054 27 19.5C27 15.3946 23.6107 12 19.5 12C15.3966 12 12 15.3946 12 19.5C12 23.6054 15.3929 27 19.4964 27ZM19.4891 20.6823C18.0681 20.675 16.9662 19.4855 16.9662 17.9115C16.9517 16.4318 18.0754 15.1987 19.4891 15.1987C20.9029 15.1987 22.0121 16.4318 22.0121 17.9115C22.0121 19.4855 20.9101 20.6968 19.4891 20.6823ZM19.4891 25.7597C17.8652 25.7597 16.1397 25.0851 15.0449 23.9101C15.8787 22.6625 17.5317 21.9371 19.4891 21.9371C21.4248 21.9371 23.0923 22.648 23.9333 23.9101C22.8386 25.0851 21.1131 25.7597 19.4891 25.7597Z" fill="#951B80"/>
</g>
<defs>
<clipPath id="clip0_83_810">
<rect width="15" height="15" fill="white" transform="translate(12 12)"/>
</clipPath>
</defs>
</svg>
