<svg width="311" height="40" viewBox="0 0 311 40" fill="none" xmlns="http://www.w3.org/2000/svg">
<path d="M305.066 25.8398C305.358 25.8398 305.593 25.7383 305.796 25.5352L310.576 20.876C310.849 20.603 310.97 20.3364 310.976 20C310.976 19.6699 310.849 19.3906 310.576 19.124L305.803 14.4585C305.593 14.2617 305.352 14.1602 305.066 14.1602C304.482 14.1602 304 14.6299 304 15.2139C304 15.5059 304.127 15.7725 304.343 15.9946L308.488 20.0063L304.343 24.0054C304.121 24.2275 304 24.4941 304 24.7861C304 25.3638 304.482 25.8398 305.066 25.8398Z" fill="#ABABAB"/>
<path d="M59.7007 14L56.4443 4.84033H57.9932L60.437 12.2798H60.5449L62.9888 4.84033H64.5439L61.2812 14H59.7007ZM68.1875 14.1333C67.5146 14.1333 66.937 13.9894 66.4546 13.7017C65.9722 13.4097 65.5998 12.9971 65.3374 12.4639C65.0793 11.9307 64.9502 11.3001 64.9502 10.5723V10.5659C64.9502 9.84652 65.0793 9.2181 65.3374 8.68066C65.5998 8.14323 65.9679 7.72428 66.4419 7.42383C66.9201 7.12337 67.4787 6.97314 68.1177 6.97314C68.7609 6.97314 69.3132 7.11702 69.7744 7.40479C70.2399 7.69255 70.5975 8.09668 70.8472 8.61719C71.0968 9.13346 71.2217 9.73861 71.2217 10.4326V10.915H65.6484V9.93115H70.5361L69.876 10.8452V10.293C69.876 9.80208 69.7998 9.39583 69.6475 9.07422C69.4993 8.74837 69.2941 8.50505 69.0317 8.34424C68.7694 8.18343 68.4668 8.10303 68.124 8.10303C67.7812 8.10303 67.4744 8.18766 67.2036 8.35693C66.937 8.52197 66.7254 8.76742 66.5688 9.09326C66.4165 9.41911 66.3403 9.81901 66.3403 10.293V10.8452C66.3403 11.298 66.4165 11.6852 66.5688 12.0068C66.7212 12.3285 66.937 12.5739 67.2163 12.7432C67.4998 12.9124 67.8341 12.9971 68.2192 12.9971C68.5155 12.9971 68.7694 12.9569 68.981 12.8765C69.1968 12.7918 69.3724 12.6882 69.5078 12.5654C69.6475 12.4427 69.7427 12.3221 69.7935 12.2036L69.8188 12.1528H71.1519L71.1392 12.21C71.0799 12.4385 70.9762 12.667 70.8281 12.8955C70.68 13.1198 70.4832 13.325 70.2378 13.5112C69.9966 13.6974 69.7046 13.8477 69.3618 13.9619C69.0233 14.0762 68.6318 14.1333 68.1875 14.1333ZM72.8594 14V7.10645H74.2368V8.14746H74.3447C74.4674 7.7793 74.6833 7.49365 74.9922 7.29053C75.3053 7.0874 75.6904 6.98584 76.1475 6.98584C76.2617 6.98584 76.3739 6.99219 76.4839 7.00488C76.5939 7.01758 76.6828 7.03239 76.7505 7.04932V8.31885C76.6278 8.29346 76.505 8.27441 76.3823 8.26172C76.2638 8.24902 76.139 8.24268 76.0078 8.24268C75.6566 8.24268 75.3477 8.31038 75.0811 8.4458C74.8187 8.58122 74.6113 8.77165 74.459 9.01709C74.3109 9.2583 74.2368 9.54606 74.2368 9.88037V14H72.8594ZM80.4448 14.1333C79.8905 14.1333 79.408 14.0529 78.9976 13.8921C78.5871 13.7271 78.2612 13.5007 78.02 13.2129C77.7788 12.9209 77.637 12.5824 77.5947 12.1973V12.1846H78.9785V12.1973C79.0674 12.4554 79.2367 12.6649 79.4863 12.8257C79.736 12.9865 80.0661 13.0669 80.4766 13.0669C80.7601 13.0669 81.0076 13.0267 81.2192 12.9463C81.4351 12.8659 81.6043 12.7537 81.7271 12.6099C81.8498 12.466 81.9111 12.3009 81.9111 12.1147V12.1021C81.9111 11.8862 81.8244 11.7043 81.6509 11.5562C81.4774 11.408 81.1917 11.2874 80.7939 11.1943L79.6895 10.9404C79.2578 10.8431 78.9002 10.7098 78.6167 10.5405C78.3332 10.3713 78.1237 10.1639 77.9883 9.91846C77.8529 9.66878 77.7852 9.37679 77.7852 9.04248V9.03613C77.7852 8.63411 77.8994 8.27865 78.1279 7.96973C78.3564 7.65658 78.6717 7.41325 79.0737 7.23975C79.48 7.06201 79.9434 6.97314 80.4639 6.97314C80.9886 6.97314 81.4456 7.05566 81.835 7.2207C82.2285 7.38151 82.5396 7.60579 82.7681 7.89355C82.9966 8.17708 83.132 8.50716 83.1743 8.88379V8.89014H81.854V8.87744C81.7905 8.63623 81.6382 8.43522 81.397 8.27441C81.16 8.11361 80.8468 8.0332 80.4575 8.0332C80.2078 8.0332 79.9857 8.0734 79.791 8.15381C79.5964 8.22998 79.4419 8.33789 79.3276 8.47754C79.2176 8.61296 79.1626 8.77376 79.1626 8.95996V8.97266C79.1626 9.11654 79.1986 9.24349 79.2705 9.35352C79.3467 9.45931 79.4652 9.55452 79.626 9.63916C79.7868 9.71956 79.9941 9.7915 80.248 9.85498L81.3462 10.1025C82.0063 10.2591 82.4972 10.4855 82.8188 10.7817C83.1447 11.078 83.3076 11.4757 83.3076 11.9751V11.9878C83.3076 12.411 83.1828 12.7855 82.9331 13.1113C82.6834 13.4329 82.3428 13.6847 81.9111 13.8667C81.4837 14.0444 80.995 14.1333 80.4448 14.1333ZM84.9644 14V7.10645H86.3481V14H84.9644ZM85.6626 5.875C85.4256 5.875 85.2225 5.79036 85.0532 5.62109C84.884 5.45182 84.7993 5.2487 84.7993 5.01172C84.7993 4.77474 84.884 4.57373 85.0532 4.40869C85.2225 4.23942 85.4256 4.15479 85.6626 4.15479C85.8996 4.15479 86.1027 4.23942 86.272 4.40869C86.4412 4.57373 86.5259 4.77474 86.5259 5.01172C86.5259 5.2487 86.4412 5.45182 86.272 5.62109C86.1027 5.79036 85.8996 5.875 85.6626 5.875ZM91.2676 14.1333C90.5947 14.1333 90.0129 13.9894 89.522 13.7017C89.0353 13.4139 88.6608 13.0034 88.3984 12.4702C88.1361 11.9328 88.0049 11.2959 88.0049 10.5596V10.5469C88.0049 9.80632 88.1361 9.16943 88.3984 8.63623C88.665 8.10303 89.0417 7.69255 89.5283 7.40479C90.0192 7.11702 90.599 6.97314 91.2676 6.97314C91.9404 6.97314 92.5202 7.11702 93.0068 7.40479C93.4935 7.68831 93.868 8.0988 94.1304 8.63623C94.397 9.16943 94.5303 9.80632 94.5303 10.5469V10.5596C94.5303 11.2959 94.397 11.9328 94.1304 12.4702C93.868 13.0034 93.4935 13.4139 93.0068 13.7017C92.5244 13.9894 91.9447 14.1333 91.2676 14.1333ZM91.2676 12.978C91.6611 12.978 91.9954 12.8828 92.2705 12.6924C92.5456 12.4977 92.755 12.2205 92.8989 11.8608C93.0428 11.5011 93.1147 11.0674 93.1147 10.5596V10.5469C93.1147 10.0348 93.0428 9.59896 92.8989 9.23926C92.755 8.87956 92.5456 8.60449 92.2705 8.41406C91.9954 8.2194 91.6611 8.12207 91.2676 8.12207C90.874 8.12207 90.5397 8.2194 90.2646 8.41406C89.9896 8.60449 89.778 8.87956 89.6299 9.23926C89.486 9.59896 89.4141 10.0348 89.4141 10.5469V10.5596C89.4141 11.0674 89.486 11.5011 89.6299 11.8608C89.778 12.2205 89.9896 12.4977 90.2646 12.6924C90.5397 12.8828 90.874 12.978 91.2676 12.978ZM96.168 14V7.10645H97.5454V8.14746H97.6533C97.8226 7.7793 98.0723 7.49154 98.4023 7.28418C98.7324 7.07682 99.1493 6.97314 99.6528 6.97314C100.427 6.97314 101.02 7.19531 101.43 7.63965C101.841 8.08398 102.046 8.71663 102.046 9.5376V14H100.662V9.86133C100.662 9.28581 100.542 8.8584 100.3 8.5791C100.063 8.29557 99.6909 8.15381 99.1831 8.15381C98.8488 8.15381 98.5589 8.22786 98.3135 8.37598C98.068 8.51986 97.8776 8.72721 97.7422 8.99805C97.611 9.26465 97.5454 9.58415 97.5454 9.95654V14H96.168Z" fill="#181D27"/>
<path d="M59.5288 35.1826C58.9631 35.1826 58.4689 35.0913 58.0464 34.9087C57.6274 34.7225 57.2944 34.4683 57.0474 34.146C56.8039 33.8201 56.6624 33.4478 56.623 33.0288L56.6177 32.9697H57.5845L57.5898 33.0288C57.6149 33.2866 57.7134 33.5104 57.8853 33.7002C58.0607 33.8864 58.2935 34.0314 58.5835 34.1353C58.8771 34.2391 59.2101 34.291 59.5825 34.291C59.9334 34.291 60.245 34.2355 60.5171 34.1245C60.7928 34.0099 61.0094 33.8524 61.167 33.6519C61.3245 33.4513 61.4033 33.2204 61.4033 32.959V32.9536C61.4033 32.6313 61.2852 32.361 61.0488 32.1426C60.8125 31.9206 60.4276 31.7505 59.894 31.6323L59.0347 31.4443C58.2576 31.2725 57.6919 31.0075 57.3374 30.6494C56.9865 30.2878 56.811 29.8258 56.811 29.2637V29.2583C56.8146 28.8286 56.931 28.4491 57.1602 28.1196C57.3929 27.7902 57.7134 27.5324 58.1216 27.3462C58.5334 27.16 59.006 27.0669 59.5396 27.0669C60.0552 27.0669 60.5117 27.16 60.9092 27.3462C61.3066 27.5288 61.6217 27.7759 61.8545 28.0874C62.0908 28.3989 62.2215 28.748 62.2466 29.1348L62.252 29.21H61.2852L61.2744 29.1401C61.2386 28.911 61.1455 28.7087 60.9951 28.5332C60.8447 28.3542 60.6442 28.2127 60.3936 28.1089C60.1429 28.005 59.8493 27.9549 59.5127 27.9585C59.1904 27.9585 58.9004 28.0086 58.6426 28.1089C58.3848 28.2091 58.1789 28.3542 58.0249 28.5439C57.8745 28.7301 57.7993 28.9593 57.7993 29.2314V29.2368C57.7993 29.5448 57.9139 29.8044 58.1431 30.0156C58.3722 30.2269 58.75 30.3898 59.2764 30.5044L60.1357 30.6978C60.6764 30.8159 61.1115 30.9699 61.4409 31.1597C61.7703 31.3494 62.0103 31.5822 62.1606 31.8579C62.3146 32.13 62.3916 32.4523 62.3916 32.8247V32.8301C62.3916 33.3135 62.2734 33.7306 62.0371 34.0815C61.8008 34.4325 61.4678 34.7046 61.0381 34.8979C60.6084 35.0877 60.1053 35.1826 59.5288 35.1826ZM66.248 35.1021C65.6966 35.1021 65.2222 34.9803 64.8247 34.7368C64.4308 34.4933 64.1265 34.1496 63.9116 33.7056C63.7004 33.258 63.5947 32.7316 63.5947 32.1265V32.1211C63.5947 31.5231 63.7004 30.9985 63.9116 30.5474C64.1265 30.0962 64.429 29.7435 64.8193 29.4893C65.2096 29.235 65.6662 29.1079 66.189 29.1079C66.7153 29.1079 67.1665 29.2297 67.5425 29.4731C67.922 29.7166 68.2121 30.0568 68.4126 30.4937C68.6167 30.9269 68.7188 31.4318 68.7188 32.0083V32.3735H64.0781V31.627H68.2407L67.7788 32.3091V31.9385C67.7788 31.4837 67.7108 31.1095 67.5747 30.8159C67.4386 30.5223 67.2507 30.3039 67.0107 30.1606C66.7708 30.0138 66.4951 29.9404 66.1836 29.9404C65.8721 29.9404 65.5928 30.0174 65.3457 30.1714C65.1022 30.3218 64.9089 30.5456 64.7656 30.8428C64.6224 31.14 64.5508 31.5052 64.5508 31.9385V32.3091C64.5508 32.7209 64.6206 33.0736 64.7603 33.3672C64.8999 33.6572 65.0986 33.881 65.3564 34.0386C65.6143 34.1925 65.9186 34.2695 66.2695 34.2695C66.5309 34.2695 66.7583 34.2337 66.9517 34.1621C67.145 34.0905 67.3044 33.9992 67.4297 33.8882C67.555 33.7772 67.6427 33.6644 67.6929 33.5498L67.7144 33.5015H68.6489L68.6382 33.5444C68.5881 33.7414 68.4985 33.9329 68.3696 34.1191C68.2443 34.3018 68.0814 34.4683 67.8809 34.6187C67.6803 34.7655 67.4422 34.8836 67.1665 34.9731C66.8944 35.0591 66.5882 35.1021 66.248 35.1021ZM72.5322 35.1021C71.9808 35.1021 71.5063 34.9803 71.1089 34.7368C70.715 34.4933 70.4106 34.1496 70.1958 33.7056C69.9845 33.258 69.8789 32.7316 69.8789 32.1265V32.1211C69.8789 31.5231 69.9845 30.9985 70.1958 30.5474C70.4106 30.0962 70.7132 29.7435 71.1035 29.4893C71.4938 29.235 71.9504 29.1079 72.4731 29.1079C72.9995 29.1079 73.4507 29.2297 73.8267 29.4731C74.2062 29.7166 74.4963 30.0568 74.6968 30.4937C74.9009 30.9269 75.0029 31.4318 75.0029 32.0083V32.3735H70.3623V31.627H74.5249L74.063 32.3091V31.9385C74.063 31.4837 73.995 31.1095 73.8589 30.8159C73.7228 30.5223 73.5348 30.3039 73.2949 30.1606C73.055 30.0138 72.7793 29.9404 72.4678 29.9404C72.1562 29.9404 71.877 30.0174 71.6299 30.1714C71.3864 30.3218 71.193 30.5456 71.0498 30.8428C70.9066 31.14 70.835 31.5052 70.835 31.9385V32.3091C70.835 32.7209 70.9048 33.0736 71.0444 33.3672C71.1841 33.6572 71.3828 33.881 71.6406 34.0386C71.8984 34.1925 72.2028 34.2695 72.5537 34.2695C72.8151 34.2695 73.0425 34.2337 73.2358 34.1621C73.4292 34.0905 73.5885 33.9992 73.7139 33.8882C73.8392 33.7772 73.9269 33.6644 73.9771 33.5498L73.9985 33.5015H74.9331L74.9224 33.5444C74.8722 33.7414 74.7827 33.9329 74.6538 34.1191C74.5285 34.3018 74.3656 34.4683 74.165 34.6187C73.9645 34.7655 73.7264 34.8836 73.4507 34.9731C73.1785 35.0591 72.8724 35.1021 72.5322 35.1021ZM81.9155 35.1021C81.3748 35.1021 80.9058 34.9785 80.5083 34.7314C80.1108 34.4844 79.8029 34.1353 79.5845 33.6841C79.366 33.2329 79.2568 32.7012 79.2568 32.0889V32.0781C79.2568 31.4766 79.3643 30.9538 79.5791 30.5098C79.7975 30.0658 80.1055 29.722 80.5029 29.4785C80.9004 29.2314 81.3695 29.1079 81.9102 29.1079C82.3792 29.1079 82.7839 29.1903 83.124 29.355C83.4642 29.5197 83.7363 29.7417 83.9404 30.021C84.1445 30.2967 84.2752 30.6064 84.3325 30.9502L84.3379 30.9824H83.4087L83.4033 30.9663C83.3317 30.6799 83.1688 30.4364 82.9146 30.2358C82.6603 30.0353 82.3255 29.9351 81.9102 29.9351C81.5628 29.9351 81.262 30.0228 81.0078 30.1982C80.7536 30.3737 80.5566 30.6226 80.417 30.9448C80.2809 31.2635 80.2129 31.6413 80.2129 32.0781V32.0889C80.2129 32.5329 80.2827 32.9196 80.4224 33.249C80.562 33.5749 80.759 33.8273 81.0132 34.0063C81.2674 34.1854 81.5664 34.2749 81.9102 34.2749C82.3005 34.2749 82.6191 34.1908 82.8662 34.0225C83.1133 33.8542 83.2905 33.6089 83.3979 33.2866L83.4087 33.2544L84.3325 33.249L84.3218 33.3081C84.243 33.6554 84.1034 33.9652 83.9028 34.2373C83.7023 34.5059 83.4373 34.7171 83.1079 34.8711C82.7785 35.0251 82.381 35.1021 81.9155 35.1021ZM87.6411 35.1021C87.2043 35.1021 86.8372 35.0197 86.54 34.855C86.2428 34.6867 86.019 34.4432 85.8687 34.1245C85.7218 33.8022 85.6484 33.4137 85.6484 32.959V29.21H86.583V32.7334C86.583 33.2526 86.6833 33.6393 86.8838 33.8936C87.0879 34.1478 87.4209 34.2749 87.8828 34.2749C88.137 34.2749 88.3608 34.2373 88.5542 34.1621C88.7511 34.0869 88.9159 33.9795 89.0483 33.8398C89.1808 33.6966 89.2793 33.5247 89.3438 33.3242C89.4118 33.1201 89.4458 32.891 89.4458 32.6367V29.21H90.3804V35H89.4458V34.1353H89.3599C89.2668 34.3394 89.1396 34.5148 88.9785 34.6616C88.8174 34.8049 88.624 34.9141 88.3984 34.9893C88.1764 35.0645 87.924 35.1021 87.6411 35.1021ZM92.126 35V29.21H93.0605V30.0693H93.1465C93.2575 29.765 93.4455 29.5286 93.7104 29.3604C93.9754 29.1921 94.3031 29.1079 94.6934 29.1079C94.7829 29.1079 94.8706 29.1133 94.9565 29.124C95.0461 29.1312 95.1141 29.1383 95.1606 29.1455V30.0532C95.064 30.0353 94.9691 30.0228 94.876 30.0156C94.7865 30.0049 94.6898 29.9995 94.5859 29.9995C94.2887 29.9995 94.0256 30.0586 93.7964 30.1768C93.5672 30.2949 93.3864 30.4596 93.2539 30.6709C93.125 30.8822 93.0605 31.1292 93.0605 31.4121V35H92.126ZM96.4229 35V29.21H97.3574V30.0693H97.4434C97.5544 29.765 97.7424 29.5286 98.0073 29.3604C98.2723 29.1921 98.5999 29.1079 98.9902 29.1079C99.0798 29.1079 99.1675 29.1133 99.2534 29.124C99.3429 29.1312 99.411 29.1383 99.4575 29.1455V30.0532C99.3608 30.0353 99.266 30.0228 99.1729 30.0156C99.0833 30.0049 98.9867 29.9995 98.8828 29.9995C98.5856 29.9995 98.3224 30.0586 98.0933 30.1768C97.8641 30.2949 97.6833 30.4596 97.5508 30.6709C97.4219 30.8822 97.3574 31.1292 97.3574 31.4121V35H96.4229ZM102.814 35.1021C102.263 35.1021 101.789 34.9803 101.391 34.7368C100.997 34.4933 100.693 34.1496 100.478 33.7056C100.267 33.258 100.161 32.7316 100.161 32.1265V32.1211C100.161 31.5231 100.267 30.9985 100.478 30.5474C100.693 30.0962 100.995 29.7435 101.386 29.4893C101.776 29.235 102.233 29.1079 102.755 29.1079C103.282 29.1079 103.733 29.2297 104.109 29.4731C104.488 29.7166 104.778 30.0568 104.979 30.4937C105.183 30.9269 105.285 31.4318 105.285 32.0083V32.3735H100.645V31.627H104.807L104.345 32.3091V31.9385C104.345 31.4837 104.277 31.1095 104.141 30.8159C104.005 30.5223 103.817 30.3039 103.577 30.1606C103.337 30.0138 103.062 29.9404 102.75 29.9404C102.438 29.9404 102.159 30.0174 101.912 30.1714C101.669 30.3218 101.475 30.5456 101.332 30.8428C101.189 31.14 101.117 31.5052 101.117 31.9385V32.3091C101.117 32.7209 101.187 33.0736 101.327 33.3672C101.466 33.6572 101.665 33.881 101.923 34.0386C102.181 34.1925 102.485 34.2695 102.836 34.2695C103.097 34.2695 103.325 34.2337 103.518 34.1621C103.711 34.0905 103.871 33.9992 103.996 33.8882C104.121 33.7772 104.209 33.6644 104.259 33.5498L104.281 33.5015H105.215L105.205 33.5444C105.154 33.7414 105.065 33.9329 104.936 34.1191C104.811 34.3018 104.648 34.4683 104.447 34.6187C104.247 34.7655 104.009 34.8836 103.733 34.9731C103.461 35.0591 103.155 35.1021 102.814 35.1021ZM106.735 35V29.21H107.67V30.0801H107.756C107.903 29.7721 108.114 29.534 108.39 29.3657C108.665 29.1938 109.016 29.1079 109.442 29.1079C110.094 29.1079 110.594 29.2941 110.941 29.6665C111.292 30.0353 111.467 30.5635 111.467 31.251V35H110.533V31.4766C110.533 30.9538 110.422 30.5671 110.2 30.3164C109.981 30.0622 109.641 29.9351 109.179 29.9351C108.871 29.9351 108.604 30.0013 108.379 30.1338C108.153 30.2663 107.978 30.4543 107.853 30.6978C107.731 30.9412 107.67 31.2331 107.67 31.5732V35H106.735ZM115.216 35.043C114.622 35.043 114.19 34.923 113.922 34.6831C113.657 34.4432 113.524 34.0475 113.524 33.4961V29.9834H112.611V29.21H113.524V27.7114H114.491V29.21H115.759V29.9834H114.491V33.2598C114.491 33.5999 114.556 33.8452 114.685 33.9956C114.813 34.1424 115.028 34.2158 115.329 34.2158C115.411 34.2158 115.481 34.214 115.539 34.2104C115.599 34.2069 115.673 34.2015 115.759 34.1943V34.9893C115.669 35.0036 115.58 35.0161 115.49 35.0269C115.401 35.0376 115.309 35.043 115.216 35.043ZM121.887 35L119.744 29.21H120.732L122.317 33.9795H122.403L123.987 29.21H124.976L122.833 35H121.887ZM128.359 35.1021C127.808 35.1021 127.333 34.9803 126.936 34.7368C126.542 34.4933 126.238 34.1496 126.023 33.7056C125.812 33.258 125.706 32.7316 125.706 32.1265V32.1211C125.706 31.5231 125.812 30.9985 126.023 30.5474C126.238 30.0962 126.54 29.7435 126.931 29.4893C127.321 29.235 127.778 29.1079 128.3 29.1079C128.827 29.1079 129.278 29.2297 129.654 29.4731C130.033 29.7166 130.323 30.0568 130.524 30.4937C130.728 30.9269 130.83 31.4318 130.83 32.0083V32.3735H126.189V31.627H130.352L129.89 32.3091V31.9385C129.89 31.4837 129.822 31.1095 129.686 30.8159C129.55 30.5223 129.362 30.3039 129.122 30.1606C128.882 30.0138 128.606 29.9404 128.295 29.9404C127.983 29.9404 127.704 30.0174 127.457 30.1714C127.214 30.3218 127.02 30.5456 126.877 30.8428C126.734 31.14 126.662 31.5052 126.662 31.9385V32.3091C126.662 32.7209 126.732 33.0736 126.872 33.3672C127.011 33.6572 127.21 33.881 127.468 34.0386C127.726 34.1925 128.03 34.2695 128.381 34.2695C128.642 34.2695 128.87 34.2337 129.063 34.1621C129.256 34.0905 129.416 33.9992 129.541 33.8882C129.666 33.7772 129.754 33.6644 129.804 33.5498L129.826 33.5015H130.76L130.75 33.5444C130.699 33.7414 130.61 33.9329 130.481 34.1191C130.356 34.3018 130.193 34.4683 129.992 34.6187C129.792 34.7655 129.554 34.8836 129.278 34.9731C129.006 35.0591 128.7 35.1021 128.359 35.1021ZM132.28 35V29.21H133.215V30.0693H133.301C133.412 29.765 133.6 29.5286 133.865 29.3604C134.13 29.1921 134.457 29.1079 134.848 29.1079C134.937 29.1079 135.025 29.1133 135.111 29.124C135.2 29.1312 135.268 29.1383 135.315 29.1455V30.0532C135.218 30.0353 135.123 30.0228 135.03 30.0156C134.941 30.0049 134.844 29.9995 134.74 29.9995C134.443 29.9995 134.18 30.0586 133.951 30.1768C133.722 30.2949 133.541 30.4596 133.408 30.6709C133.279 30.8822 133.215 31.1292 133.215 31.4121V35H132.28ZM138.35 35.1021C137.92 35.1021 137.54 35.0376 137.211 34.9087C136.882 34.7762 136.617 34.5918 136.416 34.3555C136.219 34.1191 136.103 33.8416 136.067 33.5229H137.023C137.102 33.7629 137.256 33.9562 137.485 34.103C137.714 34.2498 138.013 34.3232 138.382 34.3232C138.643 34.3232 138.872 34.2856 139.069 34.2104C139.27 34.1317 139.427 34.026 139.542 33.8936C139.657 33.7575 139.714 33.6017 139.714 33.4263V33.4155C139.714 33.2186 139.635 33.0521 139.478 32.916C139.32 32.7764 139.062 32.6636 138.704 32.5776L137.807 32.3628C137.445 32.2769 137.148 32.1659 136.916 32.0298C136.683 31.8901 136.511 31.7201 136.4 31.5195C136.289 31.3154 136.233 31.0755 136.233 30.7998V30.7944C136.233 30.4722 136.326 30.1839 136.513 29.9297C136.702 29.6755 136.96 29.4749 137.286 29.3281C137.612 29.1813 137.979 29.1079 138.387 29.1079C138.792 29.1079 139.15 29.1724 139.461 29.3013C139.777 29.4266 140.029 29.6056 140.219 29.8384C140.412 30.0711 140.53 30.3451 140.573 30.6602H139.655C139.594 30.431 139.454 30.2448 139.236 30.1016C139.017 29.9583 138.733 29.8867 138.382 29.8867C138.153 29.8867 137.949 29.9243 137.77 29.9995C137.59 30.0711 137.449 30.1714 137.345 30.3003C137.241 30.4292 137.189 30.5796 137.189 30.7515V30.7622C137.189 30.8911 137.223 31.0057 137.292 31.106C137.36 31.2062 137.465 31.2939 137.608 31.3691C137.752 31.4443 137.936 31.5106 138.162 31.5679L139.053 31.7827C139.597 31.9152 140.002 32.105 140.267 32.3521C140.536 32.5991 140.67 32.9303 140.67 33.3457V33.3564C140.67 33.7002 140.568 34.0046 140.364 34.2695C140.16 34.5309 139.882 34.735 139.531 34.8818C139.184 35.0286 138.79 35.1021 138.35 35.1021ZM142.142 35V29.21H143.076V35H142.142ZM142.614 28.0928C142.439 28.0928 142.287 28.0301 142.158 27.9048C142.032 27.7759 141.97 27.6237 141.97 27.4482C141.97 27.2692 142.032 27.117 142.158 26.9917C142.287 26.8664 142.439 26.8037 142.614 26.8037C142.793 26.8037 142.945 26.8664 143.071 26.9917C143.196 27.117 143.259 27.2692 143.259 27.4482C143.259 27.6237 143.196 27.7759 143.071 27.9048C142.945 28.0301 142.793 28.0928 142.614 28.0928ZM147.217 35.1021C146.669 35.1021 146.195 34.9821 145.794 34.7422C145.396 34.4987 145.089 34.1532 144.87 33.7056C144.655 33.258 144.548 32.7262 144.548 32.1104V32.0996C144.548 31.4801 144.655 30.9466 144.87 30.499C145.089 30.0514 145.396 29.7077 145.794 29.4678C146.195 29.2279 146.669 29.1079 147.217 29.1079C147.769 29.1079 148.243 29.2279 148.641 29.4678C149.038 29.7077 149.344 30.0514 149.559 30.499C149.778 30.9466 149.887 31.4801 149.887 32.0996V32.1104C149.887 32.7262 149.778 33.258 149.559 33.7056C149.344 34.1532 149.038 34.4987 148.641 34.7422C148.243 34.9821 147.769 35.1021 147.217 35.1021ZM147.217 34.2749C147.583 34.2749 147.892 34.189 148.146 34.0171C148.401 33.8452 148.594 33.5981 148.727 33.2759C148.863 32.9536 148.931 32.5651 148.931 32.1104V32.0996C148.931 31.6413 148.863 31.251 148.727 30.9287C148.594 30.6064 148.401 30.3612 148.146 30.1929C147.892 30.021 147.583 29.9351 147.217 29.9351C146.852 29.9351 146.542 30.021 146.288 30.1929C146.034 30.3612 145.839 30.6064 145.703 30.9287C145.57 31.251 145.504 31.6413 145.504 32.0996V32.1104C145.504 32.5651 145.57 32.9536 145.703 33.2759C145.839 33.5981 146.034 33.8452 146.288 34.0171C146.542 34.189 146.852 34.2749 147.217 34.2749ZM151.337 35V29.21H152.271V30.0801H152.357C152.504 29.7721 152.715 29.534 152.991 29.3657C153.267 29.1938 153.618 29.1079 154.044 29.1079C154.696 29.1079 155.195 29.2941 155.542 29.6665C155.893 30.0353 156.069 30.5635 156.069 31.251V35H155.134V31.4766C155.134 30.9538 155.023 30.5671 154.801 30.3164C154.583 30.0622 154.243 29.9351 153.781 29.9351C153.473 29.9351 153.206 30.0013 152.98 30.1338C152.755 30.2663 152.579 30.4543 152.454 30.6978C152.332 30.9412 152.271 31.2331 152.271 31.5732V35H151.337ZM163.234 35.1021C162.686 35.1021 162.212 34.9821 161.811 34.7422C161.413 34.4987 161.105 34.1532 160.887 33.7056C160.672 33.258 160.564 32.7262 160.564 32.1104V32.0996C160.564 31.4801 160.672 30.9466 160.887 30.499C161.105 30.0514 161.413 29.7077 161.811 29.4678C162.212 29.2279 162.686 29.1079 163.234 29.1079C163.785 29.1079 164.26 29.2279 164.657 29.4678C165.055 29.7077 165.361 30.0514 165.576 30.499C165.794 30.9466 165.903 31.4801 165.903 32.0996V32.1104C165.903 32.7262 165.794 33.258 165.576 33.7056C165.361 34.1532 165.055 34.4987 164.657 34.7422C164.26 34.9821 163.785 35.1021 163.234 35.1021ZM163.234 34.2749C163.599 34.2749 163.909 34.189 164.163 34.0171C164.417 33.8452 164.611 33.5981 164.743 33.2759C164.879 32.9536 164.947 32.5651 164.947 32.1104V32.0996C164.947 31.6413 164.879 31.251 164.743 30.9287C164.611 30.6064 164.417 30.3612 164.163 30.1929C163.909 30.021 163.599 29.9351 163.234 29.9351C162.869 29.9351 162.559 30.021 162.305 30.1929C162.05 30.3612 161.855 30.6064 161.719 30.9287C161.587 31.251 161.521 31.6413 161.521 32.0996V32.1104C161.521 32.5651 161.587 32.9536 161.719 33.2759C161.855 33.5981 162.05 33.8452 162.305 34.0171C162.559 34.189 162.869 34.2749 163.234 34.2749ZM167.74 35V29.9834H166.779V29.21H167.74V28.5654C167.74 28.1787 167.803 27.86 167.928 27.6094C168.057 27.3551 168.247 27.1672 168.498 27.0454C168.748 26.9201 169.056 26.8574 169.421 26.8574C169.536 26.8574 169.643 26.8628 169.744 26.8735C169.847 26.8807 169.948 26.8932 170.044 26.9111V27.6577C169.987 27.647 169.921 27.6398 169.846 27.6362C169.771 27.6326 169.692 27.6309 169.609 27.6309C169.276 27.6309 169.036 27.7114 168.89 27.8726C168.746 28.0337 168.675 28.2736 168.675 28.5923V29.21H169.991V29.9834H168.675V35H167.74ZM174.551 35V27.2495H175.518V34.1299H179.256V35H174.551ZM182.274 35.1021C181.909 35.1021 181.58 35.0322 181.286 34.8926C180.996 34.7529 180.765 34.5542 180.593 34.2964C180.425 34.0386 180.341 33.7342 180.341 33.3833V33.3726C180.341 33.0288 180.423 32.7352 180.588 32.4917C180.753 32.2446 180.993 32.0513 181.308 31.9116C181.623 31.772 182.004 31.6896 182.452 31.6646L184.579 31.5356V32.2822L182.564 32.4111C182.124 32.4362 181.802 32.5275 181.598 32.6851C181.397 32.8426 181.297 33.0646 181.297 33.3511V33.3618C181.297 33.6554 181.408 33.8846 181.63 34.0493C181.852 34.2104 182.131 34.291 182.468 34.291C182.786 34.291 183.069 34.2284 183.316 34.103C183.563 33.9741 183.757 33.8005 183.896 33.582C184.04 33.3636 184.111 33.1165 184.111 32.8408V31.0361C184.111 30.6781 184.002 30.4059 183.784 30.2197C183.569 30.0299 183.245 29.9351 182.812 29.9351C182.464 29.9351 182.18 29.9977 181.958 30.123C181.736 30.2448 181.587 30.4185 181.512 30.644L181.506 30.6602H180.572L180.577 30.6279C180.627 30.3236 180.753 30.0586 180.953 29.833C181.157 29.6038 181.42 29.4266 181.743 29.3013C182.065 29.1724 182.432 29.1079 182.844 29.1079C183.316 29.1079 183.716 29.1849 184.042 29.3389C184.371 29.4928 184.62 29.7148 184.788 30.0049C184.96 30.2913 185.046 30.6351 185.046 31.0361V35H184.111V34.146H184.025C183.904 34.3501 183.755 34.5238 183.58 34.667C183.408 34.8102 183.213 34.9194 182.994 34.9946C182.776 35.0662 182.536 35.1021 182.274 35.1021ZM189.633 35.1021C189.364 35.1021 189.115 35.0609 188.886 34.9785C188.657 34.8962 188.453 34.7798 188.274 34.6294C188.095 34.4754 187.946 34.291 187.828 34.0762H187.742V35H186.808V26.9111H187.742V30.123H187.828C187.936 29.9154 188.079 29.7363 188.258 29.5859C188.44 29.4355 188.648 29.3192 188.881 29.2368C189.117 29.1509 189.368 29.1079 189.633 29.1079C190.123 29.1079 190.549 29.2314 190.911 29.4785C191.276 29.7256 191.559 30.0729 191.76 30.5205C191.96 30.9681 192.061 31.4945 192.061 32.0996V32.1104C192.061 32.7119 191.96 33.2383 191.76 33.6895C191.559 34.137 191.276 34.4844 190.911 34.7314C190.549 34.9785 190.123 35.1021 189.633 35.1021ZM189.418 34.2749C189.772 34.2749 190.075 34.189 190.326 34.0171C190.576 33.8416 190.768 33.5928 190.9 33.2705C191.036 32.9447 191.104 32.5579 191.104 32.1104V32.0996C191.104 31.6484 191.036 31.2617 190.9 30.9395C190.768 30.6172 190.576 30.3701 190.326 30.1982C190.075 30.0228 189.772 29.9351 189.418 29.9351C189.067 29.9351 188.764 30.0228 188.51 30.1982C188.256 30.3737 188.061 30.6226 187.925 30.9448C187.789 31.2671 187.721 31.652 187.721 32.0996V32.1104C187.721 32.5544 187.789 32.9393 187.925 33.2651C188.061 33.5874 188.256 33.8363 188.51 34.0117C188.764 34.1872 189.067 34.2749 189.418 34.2749ZM196.105 35L198.962 27.2495H199.704V28.501H199.397L197.12 35H196.105ZM197.399 32.7817L197.7 31.96H201.202L201.503 32.7817H197.399ZM201.761 35L199.483 28.501V27.2495H199.918L202.776 35H201.761ZM205.896 35.1021C205.467 35.1021 205.087 35.0376 204.758 34.9087C204.428 34.7762 204.163 34.5918 203.963 34.3555C203.766 34.1191 203.65 33.8416 203.614 33.5229H204.57C204.649 33.7629 204.803 33.9562 205.032 34.103C205.261 34.2498 205.56 34.3232 205.929 34.3232C206.19 34.3232 206.419 34.2856 206.616 34.2104C206.817 34.1317 206.974 34.026 207.089 33.8936C207.203 33.7575 207.261 33.6017 207.261 33.4263V33.4155C207.261 33.2186 207.182 33.0521 207.024 32.916C206.867 32.7764 206.609 32.6636 206.251 32.5776L205.354 32.3628C204.992 32.2769 204.695 32.1659 204.462 32.0298C204.23 31.8901 204.058 31.7201 203.947 31.5195C203.836 31.3154 203.78 31.0755 203.78 30.7998V30.7944C203.78 30.4722 203.873 30.1839 204.06 29.9297C204.249 29.6755 204.507 29.4749 204.833 29.3281C205.159 29.1813 205.526 29.1079 205.934 29.1079C206.339 29.1079 206.697 29.1724 207.008 29.3013C207.323 29.4266 207.576 29.6056 207.766 29.8384C207.959 30.0711 208.077 30.3451 208.12 30.6602H207.202C207.141 30.431 207.001 30.2448 206.783 30.1016C206.564 29.9583 206.28 29.8867 205.929 29.8867C205.7 29.8867 205.495 29.9243 205.316 29.9995C205.137 30.0711 204.996 30.1714 204.892 30.3003C204.788 30.4292 204.736 30.5796 204.736 30.7515V30.7622C204.736 30.8911 204.77 31.0057 204.838 31.106C204.906 31.2062 205.012 31.2939 205.155 31.3691C205.299 31.4443 205.483 31.5106 205.708 31.5679L206.6 31.7827C207.144 31.9152 207.549 32.105 207.814 32.3521C208.083 32.5991 208.217 32.9303 208.217 33.3457V33.3564C208.217 33.7002 208.115 34.0046 207.911 34.2695C207.707 34.5309 207.429 34.735 207.078 34.8818C206.731 35.0286 206.337 35.1021 205.896 35.1021ZM211.547 35.1021C211.117 35.1021 210.738 35.0376 210.408 34.9087C210.079 34.7762 209.814 34.5918 209.613 34.3555C209.416 34.1191 209.3 33.8416 209.264 33.5229H210.22C210.299 33.7629 210.453 33.9562 210.682 34.103C210.911 34.2498 211.21 34.3232 211.579 34.3232C211.84 34.3232 212.07 34.2856 212.267 34.2104C212.467 34.1317 212.625 34.026 212.739 33.8936C212.854 33.7575 212.911 33.6017 212.911 33.4263V33.4155C212.911 33.2186 212.832 33.0521 212.675 32.916C212.517 32.7764 212.259 32.6636 211.901 32.5776L211.004 32.3628C210.643 32.2769 210.346 32.1659 210.113 32.0298C209.88 31.8901 209.708 31.7201 209.597 31.5195C209.486 31.3154 209.431 31.0755 209.431 30.7998V30.7944C209.431 30.4722 209.524 30.1839 209.71 29.9297C209.9 29.6755 210.158 29.4749 210.483 29.3281C210.809 29.1813 211.176 29.1079 211.584 29.1079C211.989 29.1079 212.347 29.1724 212.659 29.3013C212.974 29.4266 213.226 29.6056 213.416 29.8384C213.609 30.0711 213.728 30.3451 213.771 30.6602H212.852C212.791 30.431 212.652 30.2448 212.433 30.1016C212.215 29.9583 211.93 29.8867 211.579 29.8867C211.35 29.8867 211.146 29.9243 210.967 29.9995C210.788 30.0711 210.646 30.1714 210.542 30.3003C210.439 30.4292 210.387 30.5796 210.387 30.7515V30.7622C210.387 30.8911 210.421 31.0057 210.489 31.106C210.557 31.2062 210.662 31.2939 210.806 31.3691C210.949 31.4443 211.133 31.5106 211.359 31.5679L212.25 31.7827C212.795 31.9152 213.199 32.105 213.464 32.3521C213.733 32.5991 213.867 32.9303 213.867 33.3457V33.3564C213.867 33.7002 213.765 34.0046 213.561 34.2695C213.357 34.5309 213.079 34.735 212.729 34.8818C212.381 35.0286 211.987 35.1021 211.547 35.1021ZM215.339 35V29.21H216.273V35H215.339ZM215.812 28.0928C215.636 28.0928 215.484 28.0301 215.355 27.9048C215.23 27.7759 215.167 27.6237 215.167 27.4482C215.167 27.2692 215.23 27.117 215.355 26.9917C215.484 26.8664 215.636 26.8037 215.812 26.8037C215.991 26.8037 216.143 26.8664 216.268 26.9917C216.393 27.117 216.456 27.2692 216.456 27.4482C216.456 27.6237 216.393 27.7759 216.268 27.9048C216.143 28.0301 215.991 28.0928 215.812 28.0928ZM220.022 35.1021C219.593 35.1021 219.213 35.0376 218.884 34.9087C218.554 34.7762 218.289 34.5918 218.089 34.3555C217.892 34.1191 217.776 33.8416 217.74 33.5229H218.696C218.775 33.7629 218.929 33.9562 219.158 34.103C219.387 34.2498 219.686 34.3232 220.055 34.3232C220.316 34.3232 220.545 34.2856 220.742 34.2104C220.943 34.1317 221.1 34.026 221.215 33.8936C221.329 33.7575 221.387 33.6017 221.387 33.4263V33.4155C221.387 33.2186 221.308 33.0521 221.15 32.916C220.993 32.7764 220.735 32.6636 220.377 32.5776L219.48 32.3628C219.118 32.2769 218.821 32.1659 218.588 32.0298C218.356 31.8901 218.184 31.7201 218.073 31.5195C217.962 31.3154 217.906 31.0755 217.906 30.7998V30.7944C217.906 30.4722 217.999 30.1839 218.186 29.9297C218.375 29.6755 218.633 29.4749 218.959 29.3281C219.285 29.1813 219.652 29.1079 220.06 29.1079C220.465 29.1079 220.823 29.1724 221.134 29.3013C221.449 29.4266 221.702 29.6056 221.892 29.8384C222.085 30.0711 222.203 30.3451 222.246 30.6602H221.328C221.267 30.431 221.127 30.2448 220.909 30.1016C220.69 29.9583 220.406 29.8867 220.055 29.8867C219.826 29.8867 219.621 29.9243 219.442 29.9995C219.263 30.0711 219.122 30.1714 219.018 30.3003C218.914 30.4292 218.862 30.5796 218.862 30.7515V30.7622C218.862 30.8911 218.896 31.0057 218.964 31.106C219.032 31.2062 219.138 31.2939 219.281 31.3691C219.424 31.4443 219.609 31.5106 219.834 31.5679L220.726 31.7827C221.27 31.9152 221.675 32.105 221.94 32.3521C222.208 32.5991 222.343 32.9303 222.343 33.3457V33.3564C222.343 33.7002 222.241 34.0046 222.037 34.2695C221.833 34.5309 221.555 34.735 221.204 34.8818C220.857 35.0286 220.463 35.1021 220.022 35.1021ZM225.796 35.043C225.202 35.043 224.771 34.923 224.502 34.6831C224.237 34.4432 224.104 34.0475 224.104 33.4961V29.9834H223.191V29.21H224.104V27.7114H225.071V29.21H226.339V29.9834H225.071V33.2598C225.071 33.5999 225.136 33.8452 225.265 33.9956C225.394 34.1424 225.608 34.2158 225.909 34.2158C225.992 34.2158 226.061 34.214 226.119 34.2104C226.18 34.2069 226.253 34.2015 226.339 34.1943V34.9893C226.249 35.0036 226.16 35.0161 226.07 35.0269C225.981 35.0376 225.889 35.043 225.796 35.043Z" fill="#ABABAB"/>
<path opacity="0.7" d="M26.3958 24.8877C28.5447 24.8877 30.0476 23.7078 30.0476 22.0466C30.0476 20.7283 29.0984 19.8779 27.5955 19.7725V19.7395C28.8479 19.5286 29.6521 18.6914 29.6521 17.5115C29.6521 16.0415 28.3074 15 26.3826 15C24.906 15 23.7524 15.646 23.2976 16.6348C23.179 16.8721 23.1262 17.0962 23.1262 17.3401C23.1262 17.7092 23.3899 17.9597 23.759 17.9597C24.115 17.9597 24.293 17.8279 24.4248 17.4983C24.7346 16.6941 25.407 16.2393 26.3496 16.2393C27.457 16.2393 28.1689 16.8193 28.1689 17.7158C28.1689 18.6387 27.4175 19.2319 26.3035 19.2319H25.6443C25.2686 19.2319 25.0247 19.4626 25.0247 19.812C25.0247 20.1614 25.2686 20.3987 25.6443 20.3987H26.3101C27.668 20.3987 28.4722 20.9656 28.4722 21.9873C28.4722 22.9431 27.6284 23.6023 26.4155 23.6023C25.3542 23.6023 24.6094 23.1541 24.3062 22.3564C24.1414 22.0269 23.9568 21.8884 23.6206 21.8884C23.2119 21.8884 22.9285 22.1521 22.9285 22.5674C22.9285 22.7981 22.9944 23.0156 23.113 23.2463C23.647 24.2747 24.8269 24.8877 26.3958 24.8877ZM15.7896 24.7295H21.3333C21.7288 24.7295 21.9924 24.479 21.9924 24.0967C21.9924 23.7144 21.7354 23.4573 21.3333 23.4573H17.1409V23.4243L19.6985 20.9919C21.1816 19.5747 21.676 18.7441 21.676 17.7488C21.676 16.1733 20.2983 15.0066 18.3801 15.0066C16.864 15.0066 15.6445 15.7646 15.2292 16.9644C15.1567 17.1819 15.1238 17.3599 15.1238 17.5378C15.1238 17.9333 15.3743 18.197 15.7698 18.197C16.1389 18.197 16.3169 18.0256 16.4421 17.6631C16.4883 17.4719 16.5608 17.3005 16.6597 17.1489C16.9893 16.6018 17.5891 16.259 18.3669 16.259C19.3821 16.259 20.1599 16.9512 20.1599 17.8279C20.1599 18.5332 19.8501 19.0408 18.657 20.2141L15.5127 23.2463C15.1963 23.543 15.0776 23.7671 15.0776 24.0571C15.0776 24.4724 15.3545 24.7295 15.7896 24.7295ZM12.5596 24.8745C13.021 24.8745 13.3242 24.5911 13.3242 24.123V15.8569C13.3242 15.3296 12.9946 15.0461 12.4541 15.0461C12.0718 15.0461 11.8477 15.145 11.4785 15.3823L9.38232 16.7402C9.10547 16.9248 9 17.1094 9 17.3665C9 17.696 9.2373 17.9268 9.58667 17.9268C9.77783 17.9268 9.87671 17.874 10.0085 17.7883L11.7751 16.6743H11.8015V24.123C11.8015 24.5911 12.0916 24.8745 12.5596 24.8745Z" fill="#951B80"/>
<circle opacity="0.05" cx="20" cy="20" r="20" fill="#951B80"/>
</svg>
