<svg width="90" height="90" viewBox="0 0 90 90" fill="none" xmlns="http://www.w3.org/2000/svg">
<g id="Group 8">
<path id="Ellipse 1" d="M34.9731 1.13133C44.7075 -1.09364 54.9054 -0.0176848 63.9611 4.18976C73.0169 8.39721 80.416 15.4971 84.9934 24.3716C89.5708 33.2461 91.0665 43.391 89.2449 53.2089C87.4234 63.0267 82.3881 71.9599 74.9319 78.6018C67.4757 85.2436 58.0222 89.2169 48.0599 89.8958C38.0976 90.5748 28.1924 87.921 19.904 82.3522C11.6156 76.7835 5.41478 68.6161 2.27799 59.1361C-0.858793 49.6562 -0.753396 39.4022 2.57759 29.9887L6.25819 31.2911C3.2162 39.8878 3.11995 49.2522 5.98459 57.9097C8.84922 66.5671 14.512 74.0259 22.0813 79.1115C29.6506 84.1972 38.6964 86.6207 47.7944 86.0006C56.8924 85.3806 65.5257 81.7521 72.335 75.6865C79.1443 69.6209 83.7427 61.4627 85.4062 52.4967C87.0697 43.5306 85.7038 34.2659 81.5235 26.1614C77.3432 18.0568 70.5861 11.5729 62.3161 7.73049C54.046 3.88808 44.7328 2.90548 35.843 4.9374L34.9731 1.13133Z" fill="#231F20"/>
<circle id="Ellipse 2" cx="45" cy="45" r="27" fill="#231F20"/>
</g>
</svg>
