<svg width="71" height="92" viewBox="0 0 71 92" fill="none" xmlns="http://www.w3.org/2000/svg">
<path id="path14" d="M44.2594 1.85817e-07C40.4469 1.85817e-07 37.3565 3.09032 37.3565 6.90187L37.3572 16.6803H62.7944C66.6069 16.6803 69.6973 13.59 69.6973 9.77844L69.6966 1.00869C69.7164 0.627233 69.9373 0.299585 70.2555 0.12917L70.2598 0.126267C70.2811 0.114873 70.2954 0.093248 70.2954 0.0674876C70.2954 0.0303331 70.2651 0 70.2279 0L44.2594 1.85817e-07ZM37.3572 21.6969V91.442L39.7823 91.4435C56.304 91.4435 69.6973 78.0537 69.6973 61.5363V28.5988C69.6973 24.7872 66.6069 21.6969 62.7943 21.6969H37.3572ZM0 36.6051V61.5363C0 78.0537 13.393 91.4435 29.9142 91.4435L32.3401 91.442V43.5062C32.3401 39.6947 29.2489 36.6051 25.4364 36.6051H0Z" fill="white"/>
</svg>
