<svg width="311" height="40" viewBox="0 0 311 40" fill="none" xmlns="http://www.w3.org/2000/svg">
<path d="M305.066 25.8398C305.358 25.8398 305.593 25.7383 305.796 25.5352L310.576 20.876C310.849 20.603 310.97 20.3364 310.976 20C310.976 19.6699 310.849 19.3906 310.576 19.124L305.803 14.4585C305.593 14.2617 305.352 14.1602 305.066 14.1602C304.482 14.1602 304 14.6299 304 15.2139C304 15.5059 304.127 15.7725 304.343 15.9946L308.488 20.0063L304.343 24.0054C304.121 24.2275 304 24.4941 304 24.7861C304 25.3638 304.482 25.8398 305.066 25.8398Z" fill="#ABABAB"/>
<path d="M57.1489 14V4.84033H58.5708V14H57.1489ZM60.71 14V7.10645H62.0874V8.14746H62.1953C62.3646 7.7793 62.6143 7.49154 62.9443 7.28418C63.2744 7.07682 63.6912 6.97314 64.1948 6.97314C64.9692 6.97314 65.5617 7.19531 65.9722 7.63965C66.3826 8.08398 66.5879 8.71663 66.5879 9.5376V14H65.2041V9.86133C65.2041 9.28581 65.0835 8.8584 64.8423 8.5791C64.6053 8.29557 64.2329 8.15381 63.7251 8.15381C63.3908 8.15381 63.1009 8.22786 62.8555 8.37598C62.61 8.51986 62.4196 8.72721 62.2842 8.99805C62.153 9.26465 62.0874 9.58415 62.0874 9.95654V14H60.71ZM68.9937 14V8.19189H67.8574V7.10645H68.9937V6.38281C68.9937 5.92155 69.0698 5.54069 69.2222 5.24023C69.3787 4.93555 69.6157 4.70915 69.9331 4.56104C70.2505 4.41292 70.6504 4.33887 71.1328 4.33887C71.2852 4.33887 71.4269 4.34521 71.5581 4.35791C71.6935 4.36637 71.8226 4.38118 71.9453 4.40234V5.41797C71.8818 5.40527 71.8035 5.39681 71.7104 5.39258C71.6216 5.38411 71.5243 5.37988 71.4185 5.37988C71.0376 5.37988 70.7646 5.47087 70.5996 5.65283C70.4388 5.8348 70.3584 6.09928 70.3584 6.44629V7.10645H71.8818V8.19189H70.3711V14H68.9937ZM76.084 14.1333C75.4111 14.1333 74.8293 13.9894 74.3384 13.7017C73.8517 13.4139 73.4772 13.0034 73.2148 12.4702C72.9525 11.9328 72.8213 11.2959 72.8213 10.5596V10.5469C72.8213 9.80632 72.9525 9.16943 73.2148 8.63623C73.4814 8.10303 73.8581 7.69255 74.3447 7.40479C74.8356 7.11702 75.4154 6.97314 76.084 6.97314C76.7568 6.97314 77.3366 7.11702 77.8232 7.40479C78.3099 7.68831 78.6844 8.0988 78.9468 8.63623C79.2134 9.16943 79.3467 9.80632 79.3467 10.5469V10.5596C79.3467 11.2959 79.2134 11.9328 78.9468 12.4702C78.6844 13.0034 78.3099 13.4139 77.8232 13.7017C77.3408 13.9894 76.7611 14.1333 76.084 14.1333ZM76.084 12.978C76.4775 12.978 76.8118 12.8828 77.0869 12.6924C77.362 12.4977 77.5715 12.2205 77.7153 11.8608C77.8592 11.5011 77.9312 11.0674 77.9312 10.5596V10.5469C77.9312 10.0348 77.8592 9.59896 77.7153 9.23926C77.5715 8.87956 77.362 8.60449 77.0869 8.41406C76.8118 8.2194 76.4775 8.12207 76.084 8.12207C75.6904 8.12207 75.3561 8.2194 75.0811 8.41406C74.806 8.60449 74.5944 8.87956 74.4463 9.23926C74.3024 9.59896 74.2305 10.0348 74.2305 10.5469V10.5596C74.2305 11.0674 74.3024 11.5011 74.4463 11.8608C74.5944 12.2205 74.806 12.4977 75.0811 12.6924C75.3561 12.8828 75.6904 12.978 76.084 12.978ZM80.9844 14V7.10645H82.3618V8.14746H82.4697C82.5924 7.7793 82.8083 7.49365 83.1172 7.29053C83.4303 7.0874 83.8154 6.98584 84.2725 6.98584C84.3867 6.98584 84.4989 6.99219 84.6089 7.00488C84.7189 7.01758 84.8078 7.03239 84.8755 7.04932V8.31885C84.7528 8.29346 84.63 8.27441 84.5073 8.26172C84.3888 8.24902 84.264 8.24268 84.1328 8.24268C83.7816 8.24268 83.4727 8.31038 83.2061 8.4458C82.9437 8.58122 82.7363 8.77165 82.584 9.01709C82.4359 9.2583 82.3618 9.54606 82.3618 9.88037V14H80.9844ZM86.3037 14V7.10645H87.6812V8.1665H87.7891C87.9414 7.78564 88.1784 7.49154 88.5 7.28418C88.8258 7.07682 89.2152 6.97314 89.668 6.97314C89.9811 6.97314 90.2625 7.02393 90.5122 7.12549C90.7619 7.22705 90.9756 7.37093 91.1533 7.55713C91.3353 7.7391 91.4771 7.95492 91.5786 8.20459H91.6865C91.8008 7.95492 91.9616 7.7391 92.1689 7.55713C92.3763 7.37093 92.6175 7.22705 92.8926 7.12549C93.1719 7.02393 93.4681 6.97314 93.7812 6.97314C94.2467 6.97314 94.6445 7.06413 94.9746 7.24609C95.3047 7.42383 95.5565 7.68197 95.73 8.02051C95.9035 8.35905 95.9902 8.76742 95.9902 9.24561V14H94.6128V9.57568C94.6128 9.2583 94.5641 8.99593 94.4668 8.78857C94.3695 8.57699 94.2214 8.41829 94.0225 8.3125C93.8278 8.20671 93.5824 8.15381 93.2861 8.15381C92.9941 8.15381 92.7381 8.22152 92.5181 8.35693C92.3022 8.48812 92.133 8.66585 92.0103 8.89014C91.8918 9.11019 91.8325 9.35986 91.8325 9.63916V14H90.4551V9.43604C90.4551 9.17367 90.4001 8.94727 90.29 8.75684C90.1842 8.56217 90.0319 8.41406 89.833 8.3125C89.6341 8.20671 89.3993 8.15381 89.1284 8.15381C88.8534 8.15381 88.6058 8.22575 88.3857 8.36963C88.1699 8.51351 87.9985 8.70817 87.8716 8.95361C87.7446 9.19482 87.6812 9.46566 87.6812 9.76611V14H86.3037ZM99.8115 14.1143C99.3757 14.1143 98.9842 14.0317 98.6372 13.8667C98.2944 13.6974 98.0236 13.4583 97.8247 13.1494C97.6258 12.8405 97.5264 12.4787 97.5264 12.064V12.0513C97.5264 11.6366 97.6258 11.2832 97.8247 10.9912C98.0278 10.6992 98.3198 10.4707 98.7007 10.3057C99.0858 10.1364 99.5513 10.0348 100.097 10.001L102.643 9.84863V10.8198L100.288 10.9722C99.8136 11.0018 99.4645 11.1034 99.2402 11.2769C99.016 11.4461 98.9038 11.6852 98.9038 11.9941V12.0068C98.9038 12.32 99.0244 12.5675 99.2656 12.7495C99.5068 12.9272 99.8115 13.0161 100.18 13.0161C100.522 13.0161 100.827 12.9484 101.094 12.813C101.365 12.6733 101.576 12.4871 101.729 12.2544C101.881 12.0174 101.957 11.7508 101.957 11.4546V9.28369C101.957 8.90283 101.839 8.61296 101.602 8.41406C101.369 8.21094 101.022 8.10938 100.561 8.10938C100.175 8.10938 99.8602 8.17708 99.6147 8.3125C99.3735 8.44792 99.2127 8.63835 99.1323 8.88379L99.1196 8.90283H97.793L97.7993 8.8584C97.8543 8.47754 98.0046 8.14746 98.25 7.86816C98.4997 7.58464 98.8255 7.36458 99.2275 7.20801C99.6338 7.05143 100.097 6.97314 100.618 6.97314C101.197 6.97314 101.688 7.06624 102.09 7.25244C102.497 7.43441 102.803 7.69889 103.011 8.0459C103.222 8.38867 103.328 8.80127 103.328 9.28369V14H101.957V13.0225H101.855C101.72 13.2552 101.551 13.4541 101.348 13.6191C101.145 13.7799 100.914 13.9027 100.656 13.9873C100.398 14.0719 100.116 14.1143 99.8115 14.1143ZM107.873 14.0444C107.12 14.0444 106.574 13.9006 106.235 13.6128C105.901 13.3208 105.734 12.8447 105.734 12.1846V8.19189H104.655V7.10645H105.734V5.36719H107.143V7.10645H108.622V8.19189H107.143V11.8481C107.143 12.2205 107.217 12.4893 107.365 12.6543C107.513 12.8151 107.759 12.8955 108.102 12.8955C108.203 12.8955 108.29 12.8934 108.362 12.8892C108.438 12.8849 108.525 12.8786 108.622 12.8701V13.9746C108.512 13.9915 108.394 14.0063 108.267 14.019C108.14 14.036 108.008 14.0444 107.873 14.0444ZM110.253 14V7.10645H111.637V14H110.253ZM110.952 5.875C110.715 5.875 110.512 5.79036 110.342 5.62109C110.173 5.45182 110.088 5.2487 110.088 5.01172C110.088 4.77474 110.173 4.57373 110.342 4.40869C110.512 4.23942 110.715 4.15479 110.952 4.15479C111.189 4.15479 111.392 4.23942 111.561 4.40869C111.73 4.57373 111.815 4.77474 111.815 5.01172C111.815 5.2487 111.73 5.45182 111.561 5.62109C111.392 5.79036 111.189 5.875 110.952 5.875ZM116.557 14.1333C115.884 14.1333 115.302 13.9894 114.811 13.7017C114.324 13.4139 113.95 13.0034 113.688 12.4702C113.425 11.9328 113.294 11.2959 113.294 10.5596V10.5469C113.294 9.80632 113.425 9.16943 113.688 8.63623C113.954 8.10303 114.331 7.69255 114.817 7.40479C115.308 7.11702 115.888 6.97314 116.557 6.97314C117.229 6.97314 117.809 7.11702 118.296 7.40479C118.783 7.68831 119.157 8.0988 119.419 8.63623C119.686 9.16943 119.819 9.80632 119.819 10.5469V10.5596C119.819 11.2959 119.686 11.9328 119.419 12.4702C119.157 13.0034 118.783 13.4139 118.296 13.7017C117.813 13.9894 117.234 14.1333 116.557 14.1333ZM116.557 12.978C116.95 12.978 117.285 12.8828 117.56 12.6924C117.835 12.4977 118.044 12.2205 118.188 11.8608C118.332 11.5011 118.404 11.0674 118.404 10.5596V10.5469C118.404 10.0348 118.332 9.59896 118.188 9.23926C118.044 8.87956 117.835 8.60449 117.56 8.41406C117.285 8.2194 116.95 8.12207 116.557 8.12207C116.163 8.12207 115.829 8.2194 115.554 8.41406C115.279 8.60449 115.067 8.87956 114.919 9.23926C114.775 9.59896 114.703 10.0348 114.703 10.5469V10.5596C114.703 11.0674 114.775 11.5011 114.919 11.8608C115.067 12.2205 115.279 12.4977 115.554 12.6924C115.829 12.8828 116.163 12.978 116.557 12.978ZM121.457 14V7.10645H122.834V8.14746H122.942C123.112 7.7793 123.361 7.49154 123.691 7.28418C124.021 7.07682 124.438 6.97314 124.942 6.97314C125.716 6.97314 126.309 7.19531 126.719 7.63965C127.13 8.08398 127.335 8.71663 127.335 9.5376V14H125.951V9.86133C125.951 9.28581 125.831 8.8584 125.589 8.5791C125.352 8.29557 124.98 8.15381 124.472 8.15381C124.138 8.15381 123.848 8.22786 123.603 8.37598C123.357 8.51986 123.167 8.72721 123.031 8.99805C122.9 9.26465 122.834 9.58415 122.834 9.95654V14H121.457Z" fill="#181D27"/>
<path d="M56.3706 35L59.228 27.2495H59.9692V28.501H59.6631L57.3857 35H56.3706ZM57.665 32.7817L57.9658 31.96H61.4678L61.7686 32.7817H57.665ZM62.0264 35L59.749 28.501V27.2495H60.1841L63.0415 35H62.0264ZM67.1611 35.1021C66.8926 35.1021 66.6437 35.0609 66.4146 34.9785C66.1854 34.8962 65.9813 34.7798 65.8022 34.6294C65.6232 34.4754 65.4746 34.291 65.3564 34.0762H65.2705V35H64.3359V26.9111H65.2705V30.123H65.3564C65.4639 29.9154 65.6071 29.7363 65.7861 29.5859C65.9688 29.4355 66.1764 29.3192 66.4092 29.2368C66.6455 29.1509 66.8962 29.1079 67.1611 29.1079C67.6517 29.1079 68.0778 29.2314 68.4395 29.4785C68.8047 29.7256 69.0876 30.0729 69.2881 30.5205C69.4886 30.9681 69.5889 31.4945 69.5889 32.0996V32.1104C69.5889 32.7119 69.4886 33.2383 69.2881 33.6895C69.0876 34.137 68.8047 34.4844 68.4395 34.7314C68.0778 34.9785 67.6517 35.1021 67.1611 35.1021ZM66.9463 34.2749C67.3008 34.2749 67.6034 34.189 67.854 34.0171C68.1047 33.8416 68.2962 33.5928 68.4287 33.2705C68.5648 32.9447 68.6328 32.5579 68.6328 32.1104V32.0996C68.6328 31.6484 68.5648 31.2617 68.4287 30.9395C68.2962 30.6172 68.1047 30.3701 67.854 30.1982C67.6034 30.0228 67.3008 29.9351 66.9463 29.9351C66.5954 29.9351 66.2928 30.0228 66.0386 30.1982C65.7843 30.3737 65.5892 30.6226 65.4531 30.9448C65.3171 31.2671 65.249 31.652 65.249 32.0996V32.1104C65.249 32.5544 65.3171 32.9393 65.4531 33.2651C65.5892 33.5874 65.7843 33.8363 66.0386 34.0117C66.2928 34.1872 66.5954 34.2749 66.9463 34.2749ZM73.4185 35.1021C72.8706 35.1021 72.3962 34.9821 71.9951 34.7422C71.5977 34.4987 71.2897 34.1532 71.0713 33.7056C70.8564 33.258 70.749 32.7262 70.749 32.1104V32.0996C70.749 31.4801 70.8564 30.9466 71.0713 30.499C71.2897 30.0514 71.5977 29.7077 71.9951 29.4678C72.3962 29.2279 72.8706 29.1079 73.4185 29.1079C73.9699 29.1079 74.4443 29.2279 74.8418 29.4678C75.2393 29.7077 75.5454 30.0514 75.7603 30.499C75.9787 30.9466 76.0879 31.4801 76.0879 32.0996V32.1104C76.0879 32.7262 75.9787 33.258 75.7603 33.7056C75.5454 34.1532 75.2393 34.4987 74.8418 34.7422C74.4443 34.9821 73.9699 35.1021 73.4185 35.1021ZM73.4185 34.2749C73.7837 34.2749 74.0934 34.189 74.3477 34.0171C74.6019 33.8452 74.7952 33.5981 74.9277 33.2759C75.0638 32.9536 75.1318 32.5651 75.1318 32.1104V32.0996C75.1318 31.6413 75.0638 31.251 74.9277 30.9287C74.7952 30.6064 74.6019 30.3612 74.3477 30.1929C74.0934 30.021 73.7837 29.9351 73.4185 29.9351C73.0532 29.9351 72.7435 30.021 72.4893 30.1929C72.235 30.3612 72.0399 30.6064 71.9038 30.9287C71.7713 31.251 71.7051 31.6413 71.7051 32.0996V32.1104C71.7051 32.5651 71.7713 32.9536 71.9038 33.2759C72.0399 33.5981 72.235 33.8452 72.4893 34.0171C72.7435 34.189 73.0532 34.2749 73.4185 34.2749ZM79.4771 35.1021C79.0402 35.1021 78.6732 35.0197 78.376 34.855C78.0788 34.6867 77.855 34.4432 77.7046 34.1245C77.5578 33.8022 77.4844 33.4137 77.4844 32.959V29.21H78.4189V32.7334C78.4189 33.2526 78.5192 33.6393 78.7197 33.8936C78.9238 34.1478 79.2568 34.2749 79.7188 34.2749C79.973 34.2749 80.1968 34.2373 80.3901 34.1621C80.5871 34.0869 80.7518 33.9795 80.8843 33.8398C81.0168 33.6966 81.1152 33.5247 81.1797 33.3242C81.2477 33.1201 81.2817 32.891 81.2817 32.6367V29.21H82.2163V35H81.2817V34.1353H81.1958C81.1027 34.3394 80.9756 34.5148 80.8145 34.6616C80.6533 34.8049 80.46 34.9141 80.2344 34.9893C80.0124 35.0645 79.7599 35.1021 79.4771 35.1021ZM86.019 35.043C85.4246 35.043 84.9932 34.923 84.7246 34.6831C84.4596 34.4432 84.3271 34.0475 84.3271 33.4961V29.9834H83.4141V29.21H84.3271V27.7114H85.2939V29.21H86.5615V29.9834H85.2939V33.2598C85.2939 33.5999 85.3584 33.8452 85.4873 33.9956C85.6162 34.1424 85.8311 34.2158 86.1318 34.2158C86.2142 34.2158 86.284 34.214 86.3413 34.2104C86.4022 34.2069 86.4756 34.2015 86.5615 34.1943V34.9893C86.472 35.0036 86.3825 35.0161 86.293 35.0269C86.2035 35.0376 86.1121 35.043 86.019 35.043ZM91.1699 35V27.2495H92.1367V34.1299H95.875V35H91.1699ZM98.8936 35.1021C98.5283 35.1021 98.1989 35.0322 97.9053 34.8926C97.6152 34.7529 97.3843 34.5542 97.2124 34.2964C97.0441 34.0386 96.96 33.7342 96.96 33.3833V33.3726C96.96 33.0288 97.0423 32.7352 97.207 32.4917C97.3717 32.2446 97.6117 32.0513 97.9268 31.9116C98.2419 31.772 98.6232 31.6896 99.0708 31.6646L101.198 31.5356V32.2822L99.1836 32.4111C98.7432 32.4362 98.4209 32.5275 98.2168 32.6851C98.0163 32.8426 97.916 33.0646 97.916 33.3511V33.3618C97.916 33.6554 98.027 33.8846 98.249 34.0493C98.471 34.2104 98.7503 34.291 99.0869 34.291C99.4056 34.291 99.6885 34.2284 99.9355 34.103C100.183 33.9741 100.376 33.8005 100.516 33.582C100.659 33.3636 100.73 33.1165 100.73 32.8408V31.0361C100.73 30.6781 100.621 30.4059 100.403 30.2197C100.188 30.0299 99.8639 29.9351 99.4307 29.9351C99.0833 29.9351 98.7987 29.9977 98.5767 30.123C98.3547 30.2448 98.2061 30.4185 98.1309 30.644L98.1255 30.6602H97.1909L97.1963 30.6279C97.2464 30.3236 97.3717 30.0586 97.5723 29.833C97.7764 29.6038 98.0396 29.4266 98.3618 29.3013C98.6841 29.1724 99.0511 29.1079 99.4629 29.1079C99.9355 29.1079 100.335 29.1849 100.661 29.3389C100.99 29.4928 101.239 29.7148 101.407 30.0049C101.579 30.2913 101.665 30.6351 101.665 31.0361V35H100.73V34.146H100.645C100.523 34.3501 100.374 34.5238 100.199 34.667C100.027 34.8102 99.8317 34.9194 99.6133 34.9946C99.3949 35.0662 99.1549 35.1021 98.8936 35.1021ZM106.252 35.1021C105.983 35.1021 105.735 35.0609 105.505 34.9785C105.276 34.8962 105.072 34.7798 104.893 34.6294C104.714 34.4754 104.565 34.291 104.447 34.0762H104.361V35H103.427V26.9111H104.361V30.123H104.447C104.555 29.9154 104.698 29.7363 104.877 29.5859C105.06 29.4355 105.267 29.3192 105.5 29.2368C105.736 29.1509 105.987 29.1079 106.252 29.1079C106.743 29.1079 107.169 29.2314 107.53 29.4785C107.896 29.7256 108.178 30.0729 108.379 30.5205C108.579 30.9681 108.68 31.4945 108.68 32.0996V32.1104C108.68 32.7119 108.579 33.2383 108.379 33.6895C108.178 34.137 107.896 34.4844 107.53 34.7314C107.169 34.9785 106.743 35.1021 106.252 35.1021ZM106.037 34.2749C106.392 34.2749 106.694 34.189 106.945 34.0171C107.195 33.8416 107.387 33.5928 107.52 33.2705C107.656 32.9447 107.724 32.5579 107.724 32.1104V32.0996C107.724 31.6484 107.656 31.2617 107.52 30.9395C107.387 30.6172 107.195 30.3701 106.945 30.1982C106.694 30.0228 106.392 29.9351 106.037 29.9351C105.686 29.9351 105.384 30.0228 105.129 30.1982C104.875 30.3737 104.68 30.6226 104.544 30.9448C104.408 31.2671 104.34 31.652 104.34 32.0996V32.1104C104.34 32.5544 104.408 32.9393 104.544 33.2651C104.68 33.5874 104.875 33.8363 105.129 34.0117C105.384 34.1872 105.686 34.2749 106.037 34.2749ZM112.724 35L115.582 27.2495H116.323V28.501H116.017L113.739 35H112.724ZM114.019 32.7817L114.319 31.96H117.821L118.122 32.7817H114.019ZM118.38 35L116.103 28.501V27.2495H116.538L119.395 35H118.38ZM122.516 35.1021C122.086 35.1021 121.706 35.0376 121.377 34.9087C121.048 34.7762 120.783 34.5918 120.582 34.3555C120.385 34.1191 120.269 33.8416 120.233 33.5229H121.189C121.268 33.7629 121.422 33.9562 121.651 34.103C121.88 34.2498 122.179 34.3232 122.548 34.3232C122.809 34.3232 123.038 34.2856 123.235 34.2104C123.436 34.1317 123.593 34.026 123.708 33.8936C123.823 33.7575 123.88 33.6017 123.88 33.4263V33.4155C123.88 33.2186 123.801 33.0521 123.644 32.916C123.486 32.7764 123.228 32.6636 122.87 32.5776L121.973 32.3628C121.611 32.2769 121.314 32.1659 121.082 32.0298C120.849 31.8901 120.677 31.7201 120.566 31.5195C120.455 31.3154 120.399 31.0755 120.399 30.7998V30.7944C120.399 30.4722 120.493 30.1839 120.679 29.9297C120.868 29.6755 121.126 29.4749 121.452 29.3281C121.778 29.1813 122.145 29.1079 122.553 29.1079C122.958 29.1079 123.316 29.1724 123.627 29.3013C123.943 29.4266 124.195 29.6056 124.385 29.8384C124.578 30.0711 124.696 30.3451 124.739 30.6602H123.821C123.76 30.431 123.62 30.2448 123.402 30.1016C123.183 29.9583 122.899 29.8867 122.548 29.8867C122.319 29.8867 122.115 29.9243 121.936 29.9995C121.757 30.0711 121.615 30.1714 121.511 30.3003C121.407 30.4292 121.355 30.5796 121.355 30.7515V30.7622C121.355 30.8911 121.389 31.0057 121.458 31.106C121.526 31.2062 121.631 31.2939 121.774 31.3691C121.918 31.4443 122.102 31.5106 122.328 31.5679L123.219 31.7827C123.764 31.9152 124.168 32.105 124.433 32.3521C124.702 32.5991 124.836 32.9303 124.836 33.3457V33.3564C124.836 33.7002 124.734 34.0046 124.53 34.2695C124.326 34.5309 124.048 34.735 123.697 34.8818C123.35 35.0286 122.956 35.1021 122.516 35.1021ZM128.166 35.1021C127.736 35.1021 127.357 35.0376 127.027 34.9087C126.698 34.7762 126.433 34.5918 126.232 34.3555C126.035 34.1191 125.919 33.8416 125.883 33.5229H126.839C126.918 33.7629 127.072 33.9562 127.301 34.103C127.53 34.2498 127.829 34.3232 128.198 34.3232C128.46 34.3232 128.689 34.2856 128.886 34.2104C129.086 34.1317 129.244 34.026 129.358 33.8936C129.473 33.7575 129.53 33.6017 129.53 33.4263V33.4155C129.53 33.2186 129.451 33.0521 129.294 32.916C129.136 32.7764 128.879 32.6636 128.521 32.5776L127.624 32.3628C127.262 32.2769 126.965 32.1659 126.732 32.0298C126.499 31.8901 126.327 31.7201 126.216 31.5195C126.105 31.3154 126.05 31.0755 126.05 30.7998V30.7944C126.05 30.4722 126.143 30.1839 126.329 29.9297C126.519 29.6755 126.777 29.4749 127.103 29.3281C127.428 29.1813 127.795 29.1079 128.204 29.1079C128.608 29.1079 128.966 29.1724 129.278 29.3013C129.593 29.4266 129.845 29.6056 130.035 29.8384C130.229 30.0711 130.347 30.3451 130.39 30.6602H129.471C129.41 30.431 129.271 30.2448 129.052 30.1016C128.834 29.9583 128.549 29.8867 128.198 29.8867C127.969 29.8867 127.765 29.9243 127.586 29.9995C127.407 30.0711 127.265 30.1714 127.162 30.3003C127.058 30.4292 127.006 30.5796 127.006 30.7515V30.7622C127.006 30.8911 127.04 31.0057 127.108 31.106C127.176 31.2062 127.282 31.2939 127.425 31.3691C127.568 31.4443 127.752 31.5106 127.978 31.5679L128.87 31.7827C129.414 31.9152 129.819 32.105 130.083 32.3521C130.352 32.5991 130.486 32.9303 130.486 33.3457V33.3564C130.486 33.7002 130.384 34.0046 130.18 34.2695C129.976 34.5309 129.699 34.735 129.348 34.8818C129 35.0286 128.606 35.1021 128.166 35.1021ZM131.958 35V29.21H132.893V35H131.958ZM132.431 28.0928C132.255 28.0928 132.103 28.0301 131.974 27.9048C131.849 27.7759 131.786 27.6237 131.786 27.4482C131.786 27.2692 131.849 27.117 131.974 26.9917C132.103 26.8664 132.255 26.8037 132.431 26.8037C132.61 26.8037 132.762 26.8664 132.887 26.9917C133.013 27.117 133.075 27.2692 133.075 27.4482C133.075 27.6237 133.013 27.7759 132.887 27.9048C132.762 28.0301 132.61 28.0928 132.431 28.0928ZM136.642 35.1021C136.212 35.1021 135.832 35.0376 135.503 34.9087C135.174 34.7762 134.909 34.5918 134.708 34.3555C134.511 34.1191 134.395 33.8416 134.359 33.5229H135.315C135.394 33.7629 135.548 33.9562 135.777 34.103C136.006 34.2498 136.305 34.3232 136.674 34.3232C136.935 34.3232 137.164 34.2856 137.361 34.2104C137.562 34.1317 137.719 34.026 137.834 33.8936C137.949 33.7575 138.006 33.6017 138.006 33.4263V33.4155C138.006 33.2186 137.927 33.0521 137.77 32.916C137.612 32.7764 137.354 32.6636 136.996 32.5776L136.099 32.3628C135.737 32.2769 135.44 32.1659 135.208 32.0298C134.975 31.8901 134.803 31.7201 134.692 31.5195C134.581 31.3154 134.525 31.0755 134.525 30.7998V30.7944C134.525 30.4722 134.618 30.1839 134.805 29.9297C134.994 29.6755 135.252 29.4749 135.578 29.3281C135.904 29.1813 136.271 29.1079 136.679 29.1079C137.084 29.1079 137.442 29.1724 137.753 29.3013C138.069 29.4266 138.321 29.6056 138.511 29.8384C138.704 30.0711 138.822 30.3451 138.865 30.6602H137.947C137.886 30.431 137.746 30.2448 137.528 30.1016C137.309 29.9583 137.025 29.8867 136.674 29.8867C136.445 29.8867 136.241 29.9243 136.062 29.9995C135.882 30.0711 135.741 30.1714 135.637 30.3003C135.533 30.4292 135.481 30.5796 135.481 30.7515V30.7622C135.481 30.8911 135.515 31.0057 135.583 31.106C135.652 31.2062 135.757 31.2939 135.9 31.3691C136.044 31.4443 136.228 31.5106 136.454 31.5679L137.345 31.7827C137.889 31.9152 138.294 32.105 138.559 32.3521C138.828 32.5991 138.962 32.9303 138.962 33.3457V33.3564C138.962 33.7002 138.86 34.0046 138.656 34.2695C138.452 34.5309 138.174 34.735 137.823 34.8818C137.476 35.0286 137.082 35.1021 136.642 35.1021ZM142.416 35.043C141.821 35.043 141.39 34.923 141.121 34.6831C140.856 34.4432 140.724 34.0475 140.724 33.4961V29.9834H139.811V29.21H140.724V27.7114H141.69V29.21H142.958V29.9834H141.69V33.2598C141.69 33.5999 141.755 33.8452 141.884 33.9956C142.013 34.1424 142.228 34.2158 142.528 34.2158C142.611 34.2158 142.681 34.214 142.738 34.2104C142.799 34.2069 142.872 34.2015 142.958 34.1943V34.9893C142.868 35.0036 142.779 35.0161 142.689 35.0269C142.6 35.0376 142.509 35.043 142.416 35.043Z" fill="#ABABAB"/>
<circle opacity="0.05" cx="20" cy="20" r="20" fill="#951B80"/>
<path opacity="0.7" d="M19.4964 27C23.6071 27 27 23.6054 27 19.5C27 15.3946 23.5998 12 19.4891 12C15.3857 12 12 15.3946 12 19.5C12 23.6054 15.3929 27 19.4964 27ZM19.4964 25.5058C16.1687 25.5058 13.508 22.8293 13.508 19.5C13.508 16.1707 16.1687 13.5015 19.4891 13.5015C22.8168 13.5015 25.492 16.1707 25.4993 19.5C25.5065 22.8293 22.8241 25.5058 19.4964 25.5058ZM19.4819 22.8221C19.9531 22.8221 20.2141 22.5174 20.2141 22.0169V16.8888C20.2141 16.3883 19.9531 16.0837 19.4819 16.0837C19.0179 16.0837 18.7641 16.3956 18.7641 16.8888V22.0169C18.7641 22.5102 19.0179 22.8221 19.4819 22.8221Z" fill="#951B80"/>
</svg>
