<svg width="336" height="56" viewBox="0 0 336 56" fill="none" xmlns="http://www.w3.org/2000/svg">
<rect width="336" height="56" rx="20" fill="#181D27"/>
<rect width="336" height="56" rx="20" fill="#181D27"/>
<path d="M125.738 33V22.5H127.298V31.44H131.82V33H125.738ZM136.098 33.195C135.408 33.195 134.778 33.0175 134.208 32.6625C133.643 32.3075 133.191 31.8325 132.851 31.2375C132.516 30.6375 132.348 29.975 132.348 29.25C132.348 28.7 132.446 28.1875 132.641 27.7125C132.836 27.2325 133.103 26.8125 133.443 26.4525C133.788 26.0875 134.188 25.8025 134.643 25.5975C135.098 25.3925 135.583 25.29 136.098 25.29C136.673 25.29 137.201 25.41 137.681 25.65C138.161 25.885 138.571 26.2125 138.911 26.6325C139.251 27.0475 139.501 27.5275 139.661 28.0725C139.821 28.6125 139.868 29.1875 139.803 29.7975H134.021C134.086 30.1425 134.211 30.455 134.396 30.735C134.586 31.01 134.826 31.2275 135.116 31.3875C135.411 31.5475 135.738 31.63 136.098 31.635C136.478 31.635 136.823 31.54 137.133 31.35C137.448 31.16 137.706 30.8975 137.906 30.5625L139.488 30.93C139.188 31.595 138.736 32.14 138.131 32.565C137.526 32.985 136.848 33.195 136.098 33.195ZM133.968 28.605H138.228C138.178 28.245 138.051 27.92 137.846 27.63C137.646 27.335 137.393 27.1025 137.088 26.9325C136.788 26.7575 136.458 26.67 136.098 26.67C135.743 26.67 135.413 26.755 135.108 26.925C134.808 27.095 134.558 27.3275 134.358 27.6225C134.163 27.9125 134.033 28.24 133.968 28.605ZM146.866 25.5H148.426V33H146.858L146.798 31.9125C146.578 32.2975 146.281 32.6075 145.906 32.8425C145.531 33.0775 145.088 33.195 144.578 33.195C144.028 33.195 143.511 33.0925 143.026 32.8875C142.541 32.6775 142.113 32.3875 141.743 32.0175C141.378 31.6475 141.093 31.2225 140.888 30.7425C140.683 30.2575 140.581 29.7375 140.581 29.1825C140.581 28.6475 140.681 28.145 140.881 27.675C141.081 27.2 141.358 26.785 141.713 26.43C142.068 26.075 142.478 25.7975 142.943 25.5975C143.413 25.3925 143.916 25.29 144.451 25.29C144.996 25.29 145.476 25.415 145.891 25.665C146.311 25.91 146.658 26.225 146.933 26.61L146.866 25.5ZM144.541 31.6875C144.981 31.6875 145.366 31.58 145.696 31.365C146.026 31.145 146.281 30.85 146.461 30.48C146.646 30.11 146.738 29.7 146.738 29.25C146.738 28.795 146.646 28.3825 146.461 28.0125C146.276 27.6425 146.018 27.35 145.688 27.135C145.363 26.915 144.981 26.805 144.541 26.805C144.106 26.805 143.708 26.915 143.348 27.135C142.988 27.355 142.703 27.65 142.493 28.02C142.283 28.39 142.178 28.8 142.178 29.25C142.178 29.705 142.286 30.1175 142.501 30.4875C142.721 30.8525 143.008 31.145 143.363 31.365C143.723 31.58 144.116 31.6875 144.541 31.6875ZM153.934 33H151.932L149.194 25.485H150.859L152.929 31.2L155.007 25.485H156.664L153.934 33ZM160.825 33.195C160.135 33.195 159.505 33.0175 158.935 32.6625C158.37 32.3075 157.918 31.8325 157.578 31.2375C157.243 30.6375 157.075 29.975 157.075 29.25C157.075 28.7 157.173 28.1875 157.368 27.7125C157.563 27.2325 157.83 26.8125 158.17 26.4525C158.515 26.0875 158.915 25.8025 159.37 25.5975C159.825 25.3925 160.31 25.29 160.825 25.29C161.4 25.29 161.928 25.41 162.408 25.65C162.888 25.885 163.298 26.2125 163.638 26.6325C163.978 27.0475 164.228 27.5275 164.388 28.0725C164.548 28.6125 164.595 29.1875 164.53 29.7975H158.748C158.813 30.1425 158.938 30.455 159.123 30.735C159.313 31.01 159.553 31.2275 159.843 31.3875C160.138 31.5475 160.465 31.63 160.825 31.635C161.205 31.635 161.55 31.54 161.86 31.35C162.175 31.16 162.433 30.8975 162.633 30.5625L164.215 30.93C163.915 31.595 163.463 32.14 162.858 32.565C162.253 32.985 161.575 33.195 160.825 33.195ZM158.695 28.605H162.955C162.905 28.245 162.778 27.92 162.573 27.63C162.373 27.335 162.12 27.1025 161.815 26.9325C161.515 26.7575 161.185 26.67 160.825 26.67C160.47 26.67 160.14 26.755 159.835 26.925C159.535 27.095 159.285 27.3275 159.085 27.6225C158.89 27.9125 158.76 28.24 158.695 28.605ZM173.002 33.21C172.277 33.21 171.615 33.0325 171.015 32.6775C170.42 32.3225 169.945 31.845 169.59 31.245C169.235 30.645 169.057 29.98 169.057 29.25C169.057 28.705 169.16 28.195 169.365 27.72C169.57 27.245 169.852 26.8275 170.212 26.4675C170.577 26.1025 170.997 25.8175 171.472 25.6125C171.947 25.4075 172.457 25.305 173.002 25.305C173.532 25.305 173.992 25.425 174.382 25.665C174.772 25.905 175.092 26.2175 175.342 26.6025V25.5H176.902V36.75H175.342V31.9125C175.092 32.2925 174.772 32.605 174.382 32.85C173.992 33.09 173.532 33.21 173.002 33.21ZM173.017 26.8125C172.582 26.8125 172.185 26.9225 171.825 27.1425C171.465 27.3625 171.18 27.6575 170.97 28.0275C170.76 28.3975 170.655 28.805 170.655 29.25C170.655 29.705 170.762 30.1175 170.977 30.4875C171.192 30.8575 171.477 31.1525 171.832 31.3725C172.192 31.5875 172.587 31.695 173.017 31.695C173.457 31.695 173.842 31.585 174.172 31.365C174.502 31.145 174.757 30.85 174.937 30.48C175.117 30.11 175.207 29.7 175.207 29.25C175.207 28.8 175.115 28.3925 174.93 28.0275C174.75 27.6575 174.495 27.3625 174.165 27.1425C173.84 26.9225 173.457 26.8125 173.017 26.8125ZM178.216 30.1875V25.5H179.776V29.805C179.776 30.14 179.859 30.445 180.024 30.72C180.189 30.995 180.409 31.215 180.684 31.38C180.959 31.54 181.261 31.62 181.591 31.62C181.926 31.62 182.229 31.54 182.499 31.38C182.774 31.215 182.991 30.995 183.151 30.72C183.316 30.445 183.399 30.14 183.399 29.805V25.5H184.959L184.966 33H183.406L183.399 32.19C183.144 32.5 182.826 32.745 182.446 32.925C182.066 33.105 181.659 33.195 181.224 33.195C180.669 33.195 180.164 33.06 179.709 32.79C179.254 32.52 178.891 32.1575 178.621 31.7025C178.351 31.2475 178.216 30.7425 178.216 30.1875ZM189.668 33.195C188.978 33.195 188.348 33.0175 187.778 32.6625C187.213 32.3075 186.76 31.8325 186.42 31.2375C186.085 30.6375 185.918 29.975 185.918 29.25C185.918 28.7 186.015 28.1875 186.21 27.7125C186.405 27.2325 186.673 26.8125 187.013 26.4525C187.358 26.0875 187.758 25.8025 188.213 25.5975C188.668 25.3925 189.153 25.29 189.668 25.29C190.243 25.29 190.77 25.41 191.25 25.65C191.73 25.885 192.14 26.2125 192.48 26.6325C192.82 27.0475 193.07 27.5275 193.23 28.0725C193.39 28.6125 193.438 29.1875 193.373 29.7975H187.59C187.655 30.1425 187.78 30.455 187.965 30.735C188.155 31.01 188.395 31.2275 188.685 31.3875C188.98 31.5475 189.308 31.63 189.668 31.635C190.048 31.635 190.393 31.54 190.703 31.35C191.018 31.16 191.275 30.8975 191.475 30.5625L193.058 30.93C192.758 31.595 192.305 32.14 191.7 32.565C191.095 32.985 190.418 33.195 189.668 33.195ZM187.538 28.605H191.798C191.748 28.245 191.62 27.92 191.415 27.63C191.215 27.335 190.963 27.1025 190.658 26.9325C190.358 26.7575 190.028 26.67 189.668 26.67C189.313 26.67 188.983 26.755 188.678 26.925C188.378 27.095 188.128 27.3275 187.928 27.6225C187.733 27.9125 187.603 28.24 187.538 28.605ZM194.168 30.1875V25.5H195.728V29.805C195.728 30.14 195.811 30.445 195.976 30.72C196.141 30.995 196.361 31.215 196.636 31.38C196.911 31.54 197.213 31.62 197.543 31.62C197.878 31.62 198.181 31.54 198.451 31.38C198.726 31.215 198.943 30.995 199.103 30.72C199.268 30.445 199.351 30.14 199.351 29.805V25.5H200.911L200.918 33H199.358L199.351 32.19C199.096 32.5 198.778 32.745 198.398 32.925C198.018 33.105 197.611 33.195 197.176 33.195C196.621 33.195 196.116 33.06 195.661 32.79C195.206 32.52 194.843 32.1575 194.573 31.7025C194.303 31.2475 194.168 30.7425 194.168 30.1875ZM205.62 33.195C204.93 33.195 204.3 33.0175 203.73 32.6625C203.165 32.3075 202.712 31.8325 202.372 31.2375C202.037 30.6375 201.87 29.975 201.87 29.25C201.87 28.7 201.967 28.1875 202.162 27.7125C202.357 27.2325 202.625 26.8125 202.965 26.4525C203.31 26.0875 203.71 25.8025 204.165 25.5975C204.62 25.3925 205.105 25.29 205.62 25.29C206.195 25.29 206.722 25.41 207.202 25.65C207.682 25.885 208.092 26.2125 208.432 26.6325C208.772 27.0475 209.022 27.5275 209.182 28.0725C209.342 28.6125 209.39 29.1875 209.325 29.7975H203.542C203.607 30.1425 203.732 30.455 203.917 30.735C204.107 31.01 204.347 31.2275 204.637 31.3875C204.932 31.5475 205.26 31.63 205.62 31.635C206 31.635 206.345 31.54 206.655 31.35C206.97 31.16 207.227 30.8975 207.427 30.5625L209.01 30.93C208.71 31.595 208.257 32.14 207.652 32.565C207.047 32.985 206.37 33.195 205.62 33.195ZM203.49 28.605H207.75C207.7 28.245 207.572 27.92 207.367 27.63C207.167 27.335 206.915 27.1025 206.61 26.9325C206.31 26.7575 205.98 26.67 205.62 26.67C205.265 26.67 204.935 26.755 204.63 26.925C204.33 27.095 204.08 27.3275 203.88 27.6225C203.685 27.9125 203.555 28.24 203.49 28.605Z" fill="white"/>
</svg>
