<svg width="72" height="43" viewBox="0 0 72 43" fill="none" xmlns="http://www.w3.org/2000/svg">
<path d="M22.7341 40.7142V33.6683H25.5807C26.0853 33.6683 26.5182 33.7579 26.8796 33.9369C27.2409 34.1159 27.5176 34.3682 27.7096 34.6937C27.9017 35.0192 27.9977 35.4066 27.9977 35.8558V35.8656C27.9977 36.3311 27.8805 36.7445 27.6462 37.1058C27.4151 37.4639 27.0912 37.7178 26.6745 37.8676L28.2126 40.7142H26.777L25.3903 38.0629C25.3838 38.0629 25.374 38.0629 25.361 38.0629C25.348 38.0629 25.3366 38.0629 25.3268 38.0629H23.9938V40.7142H22.7341ZM23.9938 37.0961H25.4489C25.8493 37.0961 26.1602 36.9903 26.3815 36.7787C26.6029 36.5671 26.7136 36.2725 26.7136 35.8949V35.8851C26.7136 35.5173 26.598 35.226 26.3669 35.0111C26.139 34.793 25.8249 34.684 25.4245 34.684H23.9938V37.0961ZM31.6627 40.8217C31.1321 40.8217 30.6747 40.711 30.2906 40.4896C29.9065 40.265 29.6102 39.946 29.4019 39.5326C29.1968 39.1192 29.0943 38.6244 29.0943 38.0482V38.0385C29.0943 37.4688 29.1985 36.9773 29.4068 36.5638C29.6151 36.1472 29.9097 35.8282 30.2906 35.6068C30.6747 35.3855 31.1321 35.2748 31.6627 35.2748C32.1933 35.2748 32.649 35.3855 33.0298 35.6068C33.414 35.8282 33.7102 36.1455 33.9185 36.559C34.1268 36.9724 34.231 37.4655 34.231 38.0385V38.0482C34.231 38.6244 34.1268 39.1192 33.9185 39.5326C33.7134 39.946 33.4188 40.265 33.0347 40.4896C32.6539 40.711 32.1965 40.8217 31.6627 40.8217ZM31.6627 39.8353C31.9426 39.8353 32.1802 39.7653 32.3755 39.6254C32.5741 39.4821 32.7255 39.2787 32.8296 39.015C32.9338 38.7481 32.9859 38.4274 32.9859 38.0531V38.0433C32.9859 37.6657 32.9338 37.3451 32.8296 37.0814C32.7255 36.8145 32.5741 36.611 32.3755 36.4711C32.1802 36.3278 31.9426 36.2562 31.6627 36.2562C31.3827 36.2562 31.1434 36.3278 30.9449 36.4711C30.7463 36.611 30.5949 36.8145 30.4908 37.0814C30.3866 37.3451 30.3345 37.6657 30.3345 38.0433V38.0531C30.3345 38.4274 30.3866 38.7481 30.4908 39.015C30.5949 39.2819 30.7447 39.4854 30.94 39.6254C31.1386 39.7653 31.3795 39.8353 31.6627 39.8353ZM37.8764 40.8217C37.3458 40.8217 36.8884 40.711 36.5043 40.4896C36.1202 40.265 35.824 39.946 35.6157 39.5326C35.4106 39.1192 35.308 38.6244 35.308 38.0482V38.0385C35.308 37.4688 35.4122 36.9773 35.6205 36.5638C35.8289 36.1472 36.1235 35.8282 36.5043 35.6068C36.8884 35.3855 37.3458 35.2748 37.8764 35.2748C38.407 35.2748 38.8627 35.3855 39.2436 35.6068C39.6277 35.8282 39.9239 36.1455 40.1323 36.559C40.3406 36.9724 40.4448 37.4655 40.4448 38.0385V38.0482C40.4448 38.6244 40.3406 39.1192 40.1323 39.5326C39.9272 39.946 39.6326 40.265 39.2485 40.4896C38.8676 40.711 38.4103 40.8217 37.8764 40.8217ZM37.8764 39.8353C38.1564 39.8353 38.394 39.7653 38.5893 39.6254C38.7879 39.4821 38.9392 39.2787 39.0434 39.015C39.1476 38.7481 39.1996 38.4274 39.1996 38.0531V38.0433C39.1996 37.6657 39.1476 37.3451 39.0434 37.0814C38.9392 36.8145 38.7879 36.611 38.5893 36.4711C38.394 36.3278 38.1564 36.2562 37.8764 36.2562C37.5965 36.2562 37.3572 36.3278 37.1586 36.4711C36.9601 36.611 36.8087 36.8145 36.7045 37.0814C36.6004 37.3451 36.5483 37.6657 36.5483 38.0433V38.0531C36.5483 38.4274 36.6004 38.7481 36.7045 39.015C36.8087 39.2819 36.9584 39.4854 37.1537 39.6254C37.3523 39.7653 37.5932 39.8353 37.8764 39.8353ZM41.7855 40.7142V35.3773H43.0013V36.2074H43.0843C43.1982 35.9112 43.3821 35.6817 43.6361 35.5189C43.8932 35.3562 44.1976 35.2748 44.5491 35.2748C44.79 35.2748 45.0065 35.3138 45.1986 35.392C45.3939 35.4701 45.5615 35.5808 45.7015 35.724C45.8415 35.8672 45.9489 36.0381 46.0238 36.2367H46.1116C46.1995 36.0446 46.3216 35.877 46.4779 35.7338C46.6374 35.5873 46.8229 35.475 47.0345 35.3969C47.2493 35.3155 47.4805 35.2748 47.7279 35.2748C48.0859 35.2748 48.3919 35.3464 48.6458 35.4896C48.903 35.6296 49.0999 35.8314 49.2366 36.0951C49.3766 36.3588 49.4466 36.6745 49.4466 37.0424V40.7142H48.2308V37.3402C48.2308 37.1058 48.195 36.9122 48.1234 36.7592C48.055 36.6062 47.9492 36.4906 47.806 36.4125C47.6627 36.3344 47.4821 36.2953 47.264 36.2953C47.0524 36.2953 46.8685 36.3441 46.7122 36.4418C46.556 36.5362 46.4339 36.6648 46.346 36.8275C46.2614 36.9903 46.2191 37.1742 46.2191 37.3793V40.7142H45.0032V37.2523C45.0032 37.0538 44.9642 36.8829 44.8861 36.7396C44.8112 36.5964 44.7005 36.4873 44.554 36.4125C44.4108 36.3344 44.2399 36.2953 44.0413 36.2953C43.8428 36.2953 43.6637 36.3474 43.5042 36.4515C43.348 36.5524 43.2243 36.6924 43.1331 36.8715C43.0452 37.0472 43.0013 37.2458 43.0013 37.4672V40.7142H41.7855Z" fill="#8E8E93"/>
<path d="M29.6367 15.0052H34.998V20.4942C34.998 21.0521 35.4463 21.52 36 21.52C36.5537 21.52 37.002 21.0521 37.002 20.4942V15.0052H42.3633C42.9082 15.0052 43.3652 14.5463 43.3652 13.9794C43.3652 13.4125 42.9082 12.9536 42.3633 12.9536H37.002V7.46465C37.002 6.90676 36.5537 6.43884 36 6.43884C35.4463 6.43884 34.998 6.90676 34.998 7.46465V12.9536H29.6367C29.0918 12.9536 28.6348 13.4125 28.6348 13.9794C28.6348 14.5463 29.0918 15.0052 29.6367 15.0052Z" fill="#951B80"/>
</svg>
