<svg width="280" height="47" viewBox="0 0 280 47" fill="none" xmlns="http://www.w3.org/2000/svg">
<rect width="280" height="47" rx="21" fill="#DADADA"/>
<path d="M38.105 29H37.055L31.25 20.18V29H30.2V18.515H31.25L37.055 27.32V18.515H38.105V29ZM40.0032 24.89C40.0032 24.05 40.1682 23.315 40.4982 22.685C40.8382 22.045 41.3032 21.555 41.8932 21.215C42.4932 20.865 43.1682 20.69 43.9182 20.69C44.6982 20.69 45.3682 20.87 45.9282 21.23C46.4982 21.59 46.9082 22.05 47.1582 22.61V20.81H48.2082V29H47.1582V27.185C46.8982 27.745 46.4832 28.21 45.9132 28.58C45.3532 28.94 44.6832 29.12 43.9032 29.12C43.1632 29.12 42.4932 28.945 41.8932 28.595C41.3032 28.245 40.8382 27.75 40.4982 27.11C40.1682 26.47 40.0032 25.73 40.0032 24.89ZM47.1582 24.905C47.1582 24.245 47.0232 23.665 46.7532 23.165C46.4832 22.665 46.1132 22.28 45.6432 22.01C45.1832 21.74 44.6732 21.605 44.1132 21.605C43.5332 21.605 43.0132 21.735 42.5532 21.995C42.0932 22.255 41.7282 22.635 41.4582 23.135C41.1982 23.625 41.0682 24.21 41.0682 24.89C41.0682 25.56 41.1982 26.15 41.4582 26.66C41.7282 27.16 42.0932 27.545 42.5532 27.815C43.0132 28.075 43.5332 28.205 44.1132 28.205C44.6732 28.205 45.1832 28.07 45.6432 27.8C46.1132 27.53 46.4832 27.145 46.7532 26.645C47.0232 26.145 47.1582 25.565 47.1582 24.905ZM60.3553 20.66C61.3153 20.66 62.0953 20.965 62.6953 21.575C63.3053 22.175 63.6103 23.05 63.6103 24.2V29H62.5753V24.32C62.5753 23.43 62.3603 22.75 61.9303 22.28C61.5003 21.81 60.9153 21.575 60.1753 21.575C59.4053 21.575 58.7903 21.83 58.3303 22.34C57.8703 22.85 57.6403 23.59 57.6403 24.56V29H56.6053V24.32C56.6053 23.43 56.3903 22.75 55.9603 22.28C55.5303 21.81 54.9403 21.575 54.1903 21.575C53.4203 21.575 52.8053 21.83 52.3453 22.34C51.8853 22.85 51.6553 23.59 51.6553 24.56V29H50.6053V20.81H51.6553V22.22C51.9153 21.71 52.2853 21.325 52.7653 21.065C53.2453 20.795 53.7803 20.66 54.3703 20.66C55.0803 20.66 55.7003 20.83 56.2303 21.17C56.7703 21.51 57.1603 22.01 57.4003 22.67C57.6203 22.02 57.9953 21.525 58.5253 21.185C59.0653 20.835 59.6753 20.66 60.3553 20.66ZM73.3522 24.485C73.3522 24.845 73.3422 25.12 73.3222 25.31H66.5272C66.5572 25.93 66.7072 26.46 66.9772 26.9C67.2472 27.34 67.6022 27.675 68.0422 27.905C68.4822 28.125 68.9622 28.235 69.4822 28.235C70.1622 28.235 70.7322 28.07 71.1922 27.74C71.6622 27.41 71.9722 26.965 72.1222 26.405H73.2322C73.0322 27.205 72.6022 27.86 71.9422 28.37C71.2922 28.87 70.4722 29.12 69.4822 29.12C68.7122 29.12 68.0222 28.95 67.4122 28.61C66.8022 28.26 66.3222 27.77 65.9722 27.14C65.6322 26.5 65.4622 25.755 65.4622 24.905C65.4622 24.055 65.6322 23.31 65.9722 22.67C66.3122 22.03 66.7872 21.54 67.3972 21.2C68.0072 20.86 68.7022 20.69 69.4822 20.69C70.2622 20.69 70.9422 20.86 71.5222 21.2C72.1122 21.54 72.5622 22 72.8722 22.58C73.1922 23.15 73.3522 23.785 73.3522 24.485ZM72.2872 24.455C72.2972 23.845 72.1722 23.325 71.9122 22.895C71.6622 22.465 71.3172 22.14 70.8772 21.92C70.4372 21.7 69.9572 21.59 69.4372 21.59C68.6572 21.59 67.9922 21.84 67.4422 22.34C66.8922 22.84 66.5872 23.545 66.5272 24.455H72.2872Z" fill="black" fill-opacity="0.7"/>
</svg>
