<svg width="76" height="98" viewBox="0 0 76 98" fill="none" xmlns="http://www.w3.org/2000/svg">
<g id="g12">
<path id="path14" d="M47.2559 1.98811e-07C43.1852 1.98811e-07 39.8856 3.30643 39.8856 7.38452L39.8864 17.8468H67.0456C71.1163 17.8468 74.4159 14.5403 74.4159 10.4622L74.4151 1.07922C74.4363 0.671095 74.6722 0.320535 75.0119 0.138203L75.0165 0.135097C75.0393 0.122906 75.0545 0.0997688 75.0545 0.072207C75.0545 0.0324543 75.0221 0 74.9824 0L47.2559 1.98811e-07ZM39.8864 23.2141V97.8365L42.4757 97.8381C60.1159 97.8381 74.4159 83.512 74.4159 65.8396V30.5987C74.4159 26.5206 71.1163 23.2141 67.0456 23.2141H39.8864ZM0 39.1649V65.8395C0 83.512 14.2998 97.8381 31.9395 97.8381L34.5295 97.8365V46.5486C34.5295 42.4706 31.2291 39.1649 27.1585 39.1649H0Z" fill="#231F20"/>
</g>
</svg>
