<svg width="72" height="43" viewBox="0 0 72 43" fill="none" xmlns="http://www.w3.org/2000/svg">
<g opacity="0.9">
<path d="M34.9331 25.0776C33.9823 25.0776 33.3197 24.9316 32.9453 24.6396C32.571 24.3551 32.3838 23.9471 32.3838 23.4155C32.3838 22.6968 32.6047 21.9406 33.0464 21.147C33.4881 20.3534 34.1245 19.6121 34.9556 18.9233C35.7866 18.2271 36.7861 17.6618 37.9541 17.2275C39.1296 16.7933 40.4435 16.5762 41.896 16.5762C43.3485 16.5762 44.6587 16.7933 45.8267 17.2275C47.0021 17.6618 48.0054 18.2271 48.8364 18.9233C49.6675 19.6121 50.3039 20.3534 50.7456 21.147C51.1873 21.9406 51.4082 22.6968 51.4082 23.4155C51.4082 23.9471 51.221 24.3551 50.8467 24.6396C50.4723 24.9316 49.806 25.0776 48.8477 25.0776H34.9331ZM41.896 14.5996C41.0649 14.5996 40.305 14.3787 39.6162 13.937C38.9274 13.4878 38.3734 12.8888 37.9541 12.1401C37.5423 11.384 37.3364 10.5379 37.3364 9.60205C37.3364 8.69613 37.5461 7.87256 37.9653 7.13135C38.3846 6.38265 38.9386 5.79118 39.6274 5.35693C40.3162 4.9152 41.0724 4.69434 41.896 4.69434C42.7271 4.69434 43.487 4.91146 44.1758 5.3457C44.8646 5.77995 45.4149 6.36768 45.8267 7.10889C46.2459 7.84261 46.4556 8.66992 46.4556 9.59082C46.4556 10.5267 46.2459 11.3727 45.8267 12.1289C45.4149 12.8851 44.8646 13.4878 44.1758 13.937C43.487 14.3787 42.7271 14.5996 41.896 14.5996ZM22.7368 25.0889C21.9507 25.0889 21.3966 24.9242 21.0747 24.5947C20.7528 24.2728 20.5918 23.8161 20.5918 23.2246C20.5918 22.4759 20.7865 21.7122 21.1758 20.9336C21.5726 20.1475 22.1341 19.425 22.8604 18.7661C23.5941 18.1073 24.4663 17.5719 25.4771 17.1602C26.4953 16.7484 27.6296 16.5425 28.8799 16.5425C29.8682 16.5425 30.7629 16.6735 31.564 16.9355C32.3726 17.1901 33.0801 17.512 33.6865 17.9014C33.0352 18.418 32.4774 18.9982 32.0132 19.6421C31.549 20.286 31.1934 20.9448 30.9463 21.6187C30.7067 22.285 30.5907 22.9176 30.5981 23.5166C30.6131 24.123 30.7703 24.6471 31.0698 25.0889H22.7368ZM28.8799 14.8467C28.1611 14.8467 27.4985 14.6558 26.8921 14.2739C26.2931 13.8846 25.814 13.3605 25.4546 12.7017C25.0952 12.0428 24.9155 11.3091 24.9155 10.5005C24.9155 9.70687 25.0952 8.98812 25.4546 8.34424C25.8215 7.69287 26.3044 7.17627 26.9033 6.79443C27.5098 6.4126 28.1686 6.22168 28.8799 6.22168C29.5911 6.22168 30.2463 6.4126 30.8452 6.79443C31.4517 7.16878 31.9346 7.6779 32.2939 8.32178C32.6608 8.96566 32.8442 9.68815 32.8442 10.4893C32.8442 11.2979 32.6646 12.0353 32.3052 12.7017C31.9458 13.3605 31.4666 13.8846 30.8677 14.2739C30.2687 14.6558 29.6061 14.8467 28.8799 14.8467Z" fill="#951B80"/>
<path d="M23.7483 41.1758C23.0582 41.1758 22.4641 41.026 21.9661 40.7266C21.4713 40.4238 21.0888 39.9958 20.8186 39.4424C20.5484 38.889 20.4133 38.2347 20.4133 37.4795V37.4697C20.4133 36.7113 20.5484 36.057 20.8186 35.5068C21.092 34.9535 21.4778 34.527 21.9758 34.2275C22.4771 33.9281 23.0679 33.7783 23.7483 33.7783C24.4319 33.7783 25.0227 33.9281 25.5207 34.2275C26.0188 34.527 26.4029 34.9535 26.6731 35.5068C26.9433 36.0602 27.0784 36.7145 27.0784 37.4697V37.4795C27.0784 38.2347 26.9433 38.889 26.6731 39.4424C26.4062 39.9958 26.0237 40.4238 25.5256 40.7266C25.0276 41.026 24.4351 41.1758 23.7483 41.1758ZM23.7483 40.0869C24.1682 40.0869 24.5312 39.9795 24.8371 39.7646C25.1431 39.5498 25.3791 39.2471 25.5452 38.8564C25.7144 38.4658 25.7991 38.0068 25.7991 37.4795V37.4697C25.7991 36.9391 25.7144 36.4801 25.5452 36.0928C25.3791 35.7021 25.1431 35.401 24.8371 35.1895C24.5312 34.9746 24.1682 34.8672 23.7483 34.8672C23.3316 34.8672 22.9687 34.9746 22.6594 35.1895C22.3534 35.401 22.1158 35.7021 21.9465 36.0928C21.7805 36.4801 21.6975 36.9391 21.6975 37.4697V37.4795C21.6975 38.0068 21.7789 38.4658 21.9416 38.8564C22.1077 39.2471 22.3437 39.5498 22.6496 39.7646C22.9589 39.9795 23.3251 40.0869 23.7483 40.0869ZM25.5842 41.7324L23.3967 38.793H24.6272L26.8147 41.7324H25.5842ZM30.2843 41.1074C29.8872 41.1074 29.5535 41.0309 29.2833 40.8779C29.0131 40.7217 28.8097 40.4954 28.673 40.1992C28.5363 39.8997 28.4679 39.5384 28.4679 39.1152V35.6631H29.6837V38.8369C29.6837 39.2503 29.7651 39.5612 29.9279 39.7695C30.0906 39.9779 30.3559 40.082 30.7238 40.082C30.9191 40.082 31.0916 40.0527 31.2413 39.9941C31.3943 39.9323 31.5213 39.8444 31.6222 39.7305C31.7231 39.6165 31.7996 39.4798 31.8517 39.3203C31.9038 39.1576 31.9298 38.9753 31.9298 38.7734V35.6631H33.1456V41H31.9298V40.1895H31.8468C31.7654 40.3783 31.6515 40.5426 31.505 40.6826C31.3585 40.8193 31.1827 40.9251 30.9777 41C30.7726 41.0716 30.5415 41.1074 30.2843 41.1074ZM37.0352 41.1074C36.5046 41.1074 36.0488 40.9951 35.668 40.7705C35.2904 40.5459 34.999 40.2269 34.7939 39.8135C34.5889 39.4001 34.4863 38.9102 34.4863 38.3438V38.3389C34.4863 37.779 34.5872 37.2907 34.7891 36.874C34.9941 36.4574 35.2839 36.1351 35.6582 35.9072C36.0326 35.6761 36.472 35.5605 36.9766 35.5605C37.4844 35.5605 37.9206 35.6729 38.2852 35.8975C38.653 36.1188 38.9362 36.4297 39.1348 36.8301C39.3333 37.2305 39.4326 37.6992 39.4326 38.2363V38.6367H35.0967V37.8213H38.8369L38.2607 38.583V38.0996C38.2607 37.7448 38.207 37.4502 38.0996 37.2158C37.9922 36.9814 37.8424 36.8057 37.6504 36.6885C37.4616 36.5713 37.2419 36.5127 36.9912 36.5127C36.7406 36.5127 36.5176 36.5745 36.3223 36.6982C36.1302 36.8187 35.9772 36.9977 35.8633 37.2354C35.7526 37.4697 35.6973 37.7578 35.6973 38.0996V38.5879C35.6973 38.9167 35.7526 39.1982 35.8633 39.4326C35.974 39.6637 36.1302 39.8428 36.332 39.9697C36.5371 40.0934 36.7796 40.1553 37.0596 40.1553C37.2777 40.1553 37.4648 40.1243 37.6211 40.0625C37.7806 39.9974 37.9092 39.9209 38.0068 39.833C38.1045 39.7419 38.1729 39.6556 38.2119 39.5742L38.2266 39.54H39.3789L39.3691 39.584C39.3268 39.7565 39.2487 39.9323 39.1348 40.1113C39.0241 40.2871 38.8727 40.4515 38.6807 40.6045C38.4919 40.7542 38.2607 40.8763 37.9873 40.9707C37.7139 41.0618 37.3965 41.1074 37.0352 41.1074ZM42.536 41.1074C42.1389 41.1074 41.8052 41.0309 41.535 40.8779C41.2649 40.7217 41.0614 40.4954 40.9247 40.1992C40.788 39.8997 40.7196 39.5384 40.7196 39.1152V35.6631H41.9354V38.8369C41.9354 39.2503 42.0168 39.5612 42.1796 39.7695C42.3423 39.9779 42.6076 40.082 42.9755 40.082C43.1708 40.082 43.3433 40.0527 43.493 39.9941C43.646 39.9323 43.773 39.8444 43.8739 39.7305C43.9748 39.6165 44.0513 39.4798 44.1034 39.3203C44.1555 39.1576 44.1815 38.9753 44.1815 38.7734V35.6631H45.3973V41H44.1815V40.1895H44.0985C44.0171 40.3783 43.9032 40.5426 43.7567 40.6826C43.6102 40.8193 43.4345 40.9251 43.2294 41C43.0243 41.0716 42.7932 41.1074 42.536 41.1074ZM49.2869 41.1074C48.7563 41.1074 48.3005 40.9951 47.9197 40.7705C47.5421 40.5459 47.2507 40.2269 47.0457 39.8135C46.8406 39.4001 46.738 38.9102 46.738 38.3438V38.3389C46.738 37.779 46.839 37.2907 47.0408 36.874C47.2459 36.4574 47.5356 36.1351 47.9099 35.9072C48.2843 35.6761 48.7237 35.5605 49.2283 35.5605C49.7361 35.5605 50.1723 35.6729 50.5369 35.8975C50.9047 36.1188 51.1879 36.4297 51.3865 36.8301C51.585 37.2305 51.6843 37.6992 51.6843 38.2363V38.6367H47.3484V37.8213H51.0886L50.5125 38.583V38.0996C50.5125 37.7448 50.4587 37.4502 50.3513 37.2158C50.2439 36.9814 50.0942 36.8057 49.9021 36.6885C49.7133 36.5713 49.4936 36.5127 49.2429 36.5127C48.9923 36.5127 48.7693 36.5745 48.574 36.6982C48.3819 36.8187 48.2289 36.9977 48.115 37.2354C48.0043 37.4697 47.949 37.7578 47.949 38.0996V38.5879C47.949 38.9167 48.0043 39.1982 48.115 39.4326C48.2257 39.6637 48.3819 39.8428 48.5837 39.9697C48.7888 40.0934 49.0313 40.1553 49.3113 40.1553C49.5294 40.1553 49.7166 40.1243 49.8728 40.0625C50.0323 39.9974 50.1609 39.9209 50.2586 39.833C50.3562 39.7419 50.4246 39.6556 50.4636 39.5742L50.4783 39.54H51.6306L51.6209 39.584C51.5785 39.7565 51.5004 39.9323 51.3865 40.1113C51.2758 40.2871 51.1244 40.4515 50.9324 40.6045C50.7436 40.7542 50.5125 40.8763 50.239 40.9707C49.9656 41.0618 49.6482 41.1074 49.2869 41.1074Z" fill="#8E8E93"/>
</g>
</svg>
