<svg width="311" height="40" viewBox="0 0 311 40" fill="none" xmlns="http://www.w3.org/2000/svg">
<path d="M305.066 25.8398C305.358 25.8398 305.593 25.7383 305.796 25.5352L310.576 20.876C310.849 20.603 310.97 20.3364 310.976 20C310.976 19.6699 310.849 19.3906 310.576 19.124L305.803 14.4585C305.593 14.2617 305.352 14.1602 305.066 14.1602C304.482 14.1602 304 14.6299 304 15.2139C304 15.5059 304.127 15.7725 304.343 15.9946L308.488 20.0063L304.343 24.0054C304.121 24.2275 304 24.4941 304 24.7861C304 25.3638 304.482 25.8398 305.066 25.8398Z" fill="#ABABAB"/>
<path d="M57.1489 14V4.84033H58.5708V12.7686H62.8682V14H57.1489ZM67.1084 14.1333C66.4355 14.1333 65.8537 13.9894 65.3628 13.7017C64.8761 13.4139 64.5016 13.0034 64.2393 12.4702C63.9769 11.9328 63.8457 11.2959 63.8457 10.5596V10.5469C63.8457 9.80632 63.9769 9.16943 64.2393 8.63623C64.5059 8.10303 64.8825 7.69255 65.3691 7.40479C65.86 7.11702 66.4398 6.97314 67.1084 6.97314C67.7812 6.97314 68.361 7.11702 68.8477 7.40479C69.3343 7.68831 69.7088 8.0988 69.9712 8.63623C70.2378 9.16943 70.3711 9.80632 70.3711 10.5469V10.5596C70.3711 11.2959 70.2378 11.9328 69.9712 12.4702C69.7088 13.0034 69.3343 13.4139 68.8477 13.7017C68.3652 13.9894 67.7855 14.1333 67.1084 14.1333ZM67.1084 12.978C67.502 12.978 67.8363 12.8828 68.1113 12.6924C68.3864 12.4977 68.5959 12.2205 68.7397 11.8608C68.8836 11.5011 68.9556 11.0674 68.9556 10.5596V10.5469C68.9556 10.0348 68.8836 9.59896 68.7397 9.23926C68.5959 8.87956 68.3864 8.60449 68.1113 8.41406C67.8363 8.2194 67.502 8.12207 67.1084 8.12207C66.7148 8.12207 66.3805 8.2194 66.1055 8.41406C65.8304 8.60449 65.6188 8.87956 65.4707 9.23926C65.3268 9.59896 65.2549 10.0348 65.2549 10.5469V10.5596C65.2549 11.0674 65.3268 11.5011 65.4707 11.8608C65.6188 12.2205 65.8304 12.4977 66.1055 12.6924C66.3805 12.8828 66.7148 12.978 67.1084 12.978ZM74.9224 16.4312C74.3384 16.4312 73.8306 16.3507 73.3989 16.1899C72.9715 16.0291 72.633 15.8049 72.3833 15.5171C72.1336 15.2293 71.9813 14.895 71.9263 14.5142L71.9326 14.5015H73.3291L73.3354 14.5142C73.3947 14.7511 73.5618 14.9458 73.8369 15.0981C74.112 15.2505 74.4801 15.3267 74.9414 15.3267C75.5085 15.3267 75.9507 15.1976 76.2681 14.9395C76.5897 14.6813 76.7505 14.3195 76.7505 13.854V12.502H76.6426C76.5072 12.7474 76.3337 12.959 76.1221 13.1367C75.9105 13.3102 75.6693 13.4414 75.3984 13.5303C75.1276 13.6191 74.8335 13.6636 74.5161 13.6636C73.9321 13.6636 73.4243 13.5239 72.9927 13.2446C72.5653 12.9611 72.2352 12.5718 72.0024 12.0767C71.7739 11.5773 71.6597 11.0039 71.6597 10.3564V10.3438C71.6597 9.68783 71.776 9.10807 72.0088 8.60449C72.2415 8.09668 72.5737 7.70101 73.0054 7.41748C73.437 7.12972 73.9512 6.98584 74.5479 6.98584C74.8695 6.98584 75.1636 7.03662 75.4302 7.13818C75.701 7.23975 75.9401 7.38363 76.1475 7.56982C76.3548 7.75602 76.5262 7.97819 76.6616 8.23633H76.7441V7.10645H78.1216V13.8604C78.1216 14.3809 77.9904 14.8337 77.728 15.2188C77.4699 15.6038 77.1017 15.9022 76.6235 16.1138C76.1453 16.3254 75.5783 16.4312 74.9224 16.4312ZM74.9033 12.521C75.2926 12.521 75.627 12.43 75.9062 12.248C76.1855 12.0618 76.3993 11.8058 76.5474 11.48C76.6997 11.1541 76.7759 10.7775 76.7759 10.3501V10.3374C76.7759 9.91423 76.6997 9.5376 76.5474 9.20752C76.3993 8.87744 76.1855 8.6193 75.9062 8.43311C75.627 8.24691 75.2926 8.15381 74.9033 8.15381C74.514 8.15381 74.1818 8.24691 73.9067 8.43311C73.6359 8.6193 73.4285 8.87744 73.2847 9.20752C73.1408 9.53337 73.0688 9.90999 73.0688 10.3374V10.3501C73.0688 10.7775 73.1408 11.1541 73.2847 11.48C73.4285 11.8058 73.6359 12.0618 73.9067 12.248C74.1818 12.43 74.514 12.521 74.9033 12.521ZM86.5703 14.1333C85.8975 14.1333 85.3156 13.9894 84.8247 13.7017C84.3381 13.4139 83.9635 13.0034 83.7012 12.4702C83.4388 11.9328 83.3076 11.2959 83.3076 10.5596V10.5469C83.3076 9.80632 83.4388 9.16943 83.7012 8.63623C83.9678 8.10303 84.3444 7.69255 84.8311 7.40479C85.3219 7.11702 85.9017 6.97314 86.5703 6.97314C87.2432 6.97314 87.8229 7.11702 88.3096 7.40479C88.7962 7.68831 89.1707 8.0988 89.4331 8.63623C89.6997 9.16943 89.833 9.80632 89.833 10.5469V10.5596C89.833 11.2959 89.6997 11.9328 89.4331 12.4702C89.1707 13.0034 88.7962 13.4139 88.3096 13.7017C87.8271 13.9894 87.2474 14.1333 86.5703 14.1333ZM86.5703 12.978C86.9639 12.978 87.2982 12.8828 87.5732 12.6924C87.8483 12.4977 88.0578 12.2205 88.2017 11.8608C88.3455 11.5011 88.4175 11.0674 88.4175 10.5596V10.5469C88.4175 10.0348 88.3455 9.59896 88.2017 9.23926C88.0578 8.87956 87.8483 8.60449 87.5732 8.41406C87.2982 8.2194 86.9639 8.12207 86.5703 8.12207C86.1768 8.12207 85.8424 8.2194 85.5674 8.41406C85.2923 8.60449 85.0807 8.87956 84.9326 9.23926C84.7887 9.59896 84.7168 10.0348 84.7168 10.5469V10.5596C84.7168 11.0674 84.7887 11.5011 84.9326 11.8608C85.0807 12.2205 85.2923 12.4977 85.5674 12.6924C85.8424 12.8828 86.1768 12.978 86.5703 12.978ZM93.7686 14.1333C93.2523 14.1333 92.8164 14.0339 92.4609 13.835C92.1097 13.6318 91.8452 13.3398 91.6675 12.959C91.494 12.5739 91.4072 12.1105 91.4072 11.5688V7.10645H92.7847V11.2451C92.7847 11.8122 92.8968 12.2375 93.1211 12.521C93.3454 12.8045 93.7114 12.9463 94.2192 12.9463C94.4901 12.9463 94.7313 12.9061 94.9429 12.8257C95.1545 12.741 95.3322 12.6204 95.4761 12.4639C95.62 12.3073 95.7257 12.119 95.7935 11.8989C95.8654 11.6789 95.9014 11.4292 95.9014 11.1499V7.10645H97.2852V14H95.9014V12.959H95.7998C95.6898 13.2044 95.5396 13.416 95.3491 13.5938C95.1587 13.7673 94.9302 13.9006 94.6636 13.9937C94.4012 14.0868 94.1029 14.1333 93.7686 14.1333ZM101.868 14.0444C101.115 14.0444 100.569 13.9006 100.23 13.6128C99.8962 13.3208 99.729 12.8447 99.729 12.1846V8.19189H98.6499V7.10645H99.729V5.36719H101.138V7.10645H102.617V8.19189H101.138V11.8481C101.138 12.2205 101.212 12.4893 101.36 12.6543C101.508 12.8151 101.754 12.8955 102.097 12.8955C102.198 12.8955 102.285 12.8934 102.357 12.8892C102.433 12.8849 102.52 12.8786 102.617 12.8701V13.9746C102.507 13.9915 102.389 14.0063 102.262 14.019C102.135 14.036 102.004 14.0444 101.868 14.0444Z" fill="#555555"/>
<path d="M59.5288 35.1826C58.9631 35.1826 58.4689 35.0913 58.0464 34.9087C57.6274 34.7225 57.2944 34.4683 57.0474 34.146C56.8039 33.8201 56.6624 33.4478 56.623 33.0288L56.6177 32.9697H57.5845L57.5898 33.0288C57.6149 33.2866 57.7134 33.5104 57.8853 33.7002C58.0607 33.8864 58.2935 34.0314 58.5835 34.1353C58.8771 34.2391 59.2101 34.291 59.5825 34.291C59.9334 34.291 60.245 34.2355 60.5171 34.1245C60.7928 34.0099 61.0094 33.8524 61.167 33.6519C61.3245 33.4513 61.4033 33.2204 61.4033 32.959V32.9536C61.4033 32.6313 61.2852 32.361 61.0488 32.1426C60.8125 31.9206 60.4276 31.7505 59.894 31.6323L59.0347 31.4443C58.2576 31.2725 57.6919 31.0075 57.3374 30.6494C56.9865 30.2878 56.811 29.8258 56.811 29.2637V29.2583C56.8146 28.8286 56.931 28.4491 57.1602 28.1196C57.3929 27.7902 57.7134 27.5324 58.1216 27.3462C58.5334 27.16 59.006 27.0669 59.5396 27.0669C60.0552 27.0669 60.5117 27.16 60.9092 27.3462C61.3066 27.5288 61.6217 27.7759 61.8545 28.0874C62.0908 28.3989 62.2215 28.748 62.2466 29.1348L62.252 29.21H61.2852L61.2744 29.1401C61.2386 28.911 61.1455 28.7087 60.9951 28.5332C60.8447 28.3542 60.6442 28.2127 60.3936 28.1089C60.1429 28.005 59.8493 27.9549 59.5127 27.9585C59.1904 27.9585 58.9004 28.0086 58.6426 28.1089C58.3848 28.2091 58.1789 28.3542 58.0249 28.5439C57.8745 28.7301 57.7993 28.9593 57.7993 29.2314V29.2368C57.7993 29.5448 57.9139 29.8044 58.1431 30.0156C58.3722 30.2269 58.75 30.3898 59.2764 30.5044L60.1357 30.6978C60.6764 30.8159 61.1115 30.9699 61.4409 31.1597C61.7703 31.3494 62.0103 31.5822 62.1606 31.8579C62.3146 32.13 62.3916 32.4523 62.3916 32.8247V32.8301C62.3916 33.3135 62.2734 33.7306 62.0371 34.0815C61.8008 34.4325 61.4678 34.7046 61.0381 34.8979C60.6084 35.0877 60.1053 35.1826 59.5288 35.1826ZM63.9062 35V29.21H64.8408V35H63.9062ZM64.3789 28.0928C64.2035 28.0928 64.0513 28.0301 63.9224 27.9048C63.797 27.7759 63.7344 27.6237 63.7344 27.4482C63.7344 27.2692 63.797 27.117 63.9224 26.9917C64.0513 26.8664 64.2035 26.8037 64.3789 26.8037C64.5579 26.8037 64.7101 26.8664 64.8354 26.9917C64.9608 27.117 65.0234 27.2692 65.0234 27.4482C65.0234 27.6237 64.9608 27.7759 64.8354 27.9048C64.7101 28.0301 64.5579 28.0928 64.3789 28.0928ZM68.9873 37.041C68.5218 37.041 68.1154 36.9748 67.7681 36.8423C67.4207 36.7134 67.1432 36.529 66.9355 36.2891C66.7314 36.0527 66.6043 35.777 66.5542 35.4619L66.5649 35.4565H67.5317L67.5371 35.4619C67.5872 35.6803 67.7376 35.8594 67.9883 35.999C68.2389 36.1423 68.5719 36.2139 68.9873 36.2139C69.5065 36.2139 69.9111 36.0957 70.2012 35.8594C70.4948 35.6266 70.6416 35.2972 70.6416 34.8711V33.7002H70.5557C70.4339 33.9115 70.2817 34.0923 70.0991 34.2427C69.9165 34.3931 69.7106 34.5076 69.4814 34.5864C69.2523 34.6616 69.0052 34.6992 68.7402 34.6992C68.2425 34.6992 67.811 34.5811 67.4458 34.3447C67.0841 34.1048 66.8049 33.7754 66.6079 33.3564C66.411 32.9375 66.3125 32.4577 66.3125 31.917V31.9062C66.3125 31.3656 66.411 30.8857 66.6079 30.4668C66.8084 30.0443 67.0913 29.7131 67.4565 29.4731C67.8218 29.2297 68.2568 29.1079 68.7617 29.1079C69.0339 29.1079 69.2845 29.1509 69.5137 29.2368C69.7428 29.3228 69.9451 29.4445 70.1206 29.6021C70.2996 29.7596 70.4482 29.9476 70.5664 30.166H70.6309V29.21H71.5654V34.9194C71.5654 35.3491 71.4598 35.7233 71.2485 36.042C71.0409 36.3607 70.7437 36.606 70.3569 36.7778C69.9702 36.9533 69.5137 37.041 68.9873 37.041ZM68.9443 33.8721C69.3024 33.8721 69.6086 33.7897 69.8628 33.625C70.1206 33.4567 70.3175 33.2257 70.4536 32.9321C70.5933 32.6385 70.6631 32.3001 70.6631 31.917V31.9062C70.6631 31.5231 70.5933 31.1829 70.4536 30.8857C70.3175 30.5885 70.1206 30.3558 69.8628 30.1875C69.6086 30.0192 69.3024 29.9351 68.9443 29.9351C68.5863 29.9351 68.2819 30.0192 68.0312 30.1875C67.7842 30.3558 67.5944 30.5885 67.4619 30.8857C67.333 31.1829 67.2686 31.5231 67.2686 31.9062V31.917C67.2686 32.3001 67.333 32.6385 67.4619 32.9321C67.5944 33.2257 67.7842 33.4567 68.0312 33.625C68.2819 33.7897 68.5863 33.8721 68.9443 33.8721ZM73.3057 35V29.21H74.2402V30.0801H74.3262C74.473 29.7721 74.6842 29.534 74.96 29.3657C75.2357 29.1938 75.5866 29.1079 76.0127 29.1079C76.6644 29.1079 77.1639 29.2941 77.5112 29.6665C77.8621 30.0353 78.0376 30.5635 78.0376 31.251V35H77.103V31.4766C77.103 30.9538 76.992 30.5671 76.77 30.3164C76.5516 30.0622 76.2114 29.9351 75.7495 29.9351C75.4416 29.9351 75.1748 30.0013 74.9492 30.1338C74.7236 30.2663 74.5482 30.4543 74.4229 30.6978C74.3011 30.9412 74.2402 31.2331 74.2402 31.5732V35H73.3057ZM85.2026 35.1021C84.6548 35.1021 84.1803 34.9821 83.7793 34.7422C83.3818 34.4987 83.0739 34.1532 82.8555 33.7056C82.6406 33.258 82.5332 32.7262 82.5332 32.1104V32.0996C82.5332 31.4801 82.6406 30.9466 82.8555 30.499C83.0739 30.0514 83.3818 29.7077 83.7793 29.4678C84.1803 29.2279 84.6548 29.1079 85.2026 29.1079C85.7541 29.1079 86.2285 29.2279 86.626 29.4678C87.0234 29.7077 87.3296 30.0514 87.5444 30.499C87.7629 30.9466 87.8721 31.4801 87.8721 32.0996V32.1104C87.8721 32.7262 87.7629 33.258 87.5444 33.7056C87.3296 34.1532 87.0234 34.4987 86.626 34.7422C86.2285 34.9821 85.7541 35.1021 85.2026 35.1021ZM85.2026 34.2749C85.5679 34.2749 85.8776 34.189 86.1318 34.0171C86.3861 33.8452 86.5794 33.5981 86.7119 33.2759C86.848 32.9536 86.916 32.5651 86.916 32.1104V32.0996C86.916 31.6413 86.848 31.251 86.7119 30.9287C86.5794 30.6064 86.3861 30.3612 86.1318 30.1929C85.8776 30.021 85.5679 29.9351 85.2026 29.9351C84.8374 29.9351 84.5277 30.021 84.2734 30.1929C84.0192 30.3612 83.8241 30.6064 83.688 30.9287C83.5555 31.251 83.4893 31.6413 83.4893 32.0996V32.1104C83.4893 32.5651 83.5555 32.9536 83.688 33.2759C83.8241 33.5981 84.0192 33.8452 84.2734 34.0171C84.5277 34.189 84.8374 34.2749 85.2026 34.2749ZM91.2612 35.1021C90.8244 35.1021 90.4574 35.0197 90.1602 34.855C89.863 34.6867 89.6392 34.4432 89.4888 34.1245C89.342 33.8022 89.2686 33.4137 89.2686 32.959V29.21H90.2031V32.7334C90.2031 33.2526 90.3034 33.6393 90.5039 33.8936C90.708 34.1478 91.041 34.2749 91.5029 34.2749C91.7572 34.2749 91.981 34.2373 92.1743 34.1621C92.3713 34.0869 92.536 33.9795 92.6685 33.8398C92.8009 33.6966 92.8994 33.5247 92.9639 33.3242C93.0319 33.1201 93.0659 32.891 93.0659 32.6367V29.21H94.0005V35H93.0659V34.1353H92.98C92.8869 34.3394 92.7598 34.5148 92.5986 34.6616C92.4375 34.8049 92.2441 34.9141 92.0186 34.9893C91.7965 35.0645 91.5441 35.1021 91.2612 35.1021ZM97.8032 35.043C97.2088 35.043 96.7773 34.923 96.5088 34.6831C96.2438 34.4432 96.1113 34.0475 96.1113 33.4961V29.9834H95.1982V29.21H96.1113V27.7114H97.0781V29.21H98.3457V29.9834H97.0781V33.2598C97.0781 33.5999 97.1426 33.8452 97.2715 33.9956C97.4004 34.1424 97.6152 34.2158 97.916 34.2158C97.9984 34.2158 98.0682 34.214 98.1255 34.2104C98.1864 34.2069 98.2598 34.2015 98.3457 34.1943V34.9893C98.2562 35.0036 98.1667 35.0161 98.0771 35.0269C97.9876 35.0376 97.8963 35.043 97.8032 35.043ZM103.223 35V29.9834H102.261V29.21H103.223V28.5654C103.223 28.1787 103.285 27.86 103.411 27.6094C103.54 27.3551 103.729 27.1672 103.98 27.0454C104.231 26.9201 104.539 26.8574 104.904 26.8574C105.018 26.8574 105.126 26.8628 105.226 26.8735C105.33 26.8807 105.43 26.8932 105.527 26.9111V27.6577C105.47 27.647 105.403 27.6398 105.328 27.6362C105.253 27.6326 105.174 27.6309 105.092 27.6309C104.759 27.6309 104.519 27.7114 104.372 27.8726C104.229 28.0337 104.157 28.2736 104.157 28.5923V29.21H105.473V29.9834H104.157V35H103.223ZM106.821 35V29.21H107.756V30.0693H107.842C107.953 29.765 108.141 29.5286 108.406 29.3604C108.671 29.1921 108.998 29.1079 109.389 29.1079C109.478 29.1079 109.566 29.1133 109.652 29.124C109.741 29.1312 109.809 29.1383 109.856 29.1455V30.0532C109.759 30.0353 109.664 30.0228 109.571 30.0156C109.482 30.0049 109.385 29.9995 109.281 29.9995C108.984 29.9995 108.721 30.0586 108.492 30.1768C108.263 30.2949 108.082 30.4596 107.949 30.6709C107.82 30.8822 107.756 31.1292 107.756 31.4121V35H106.821ZM113.229 35.1021C112.681 35.1021 112.207 34.9821 111.806 34.7422C111.408 34.4987 111.1 34.1532 110.882 33.7056C110.667 33.258 110.56 32.7262 110.56 32.1104V32.0996C110.56 31.4801 110.667 30.9466 110.882 30.499C111.1 30.0514 111.408 29.7077 111.806 29.4678C112.207 29.2279 112.681 29.1079 113.229 29.1079C113.78 29.1079 114.255 29.2279 114.652 29.4678C115.05 29.7077 115.356 30.0514 115.571 30.499C115.789 30.9466 115.898 31.4801 115.898 32.0996V32.1104C115.898 32.7262 115.789 33.258 115.571 33.7056C115.356 34.1532 115.05 34.4987 114.652 34.7422C114.255 34.9821 113.78 35.1021 113.229 35.1021ZM113.229 34.2749C113.594 34.2749 113.904 34.189 114.158 34.0171C114.412 33.8452 114.606 33.5981 114.738 33.2759C114.874 32.9536 114.942 32.5651 114.942 32.1104V32.0996C114.942 31.6413 114.874 31.251 114.738 30.9287C114.606 30.6064 114.412 30.3612 114.158 30.1929C113.904 30.021 113.594 29.9351 113.229 29.9351C112.864 29.9351 112.554 30.021 112.3 30.1929C112.046 30.3612 111.85 30.6064 111.714 30.9287C111.582 31.251 111.516 31.6413 111.516 32.0996V32.1104C111.516 32.5651 111.582 32.9536 111.714 33.2759C111.85 33.5981 112.046 33.8452 112.3 34.0171C112.554 34.189 112.864 34.2749 113.229 34.2749ZM117.349 35V29.21H118.283V30.0908H118.369C118.498 29.7793 118.695 29.5376 118.96 29.3657C119.229 29.1938 119.553 29.1079 119.932 29.1079C120.194 29.1079 120.428 29.1509 120.636 29.2368C120.843 29.3228 121.022 29.4427 121.173 29.5967C121.323 29.7471 121.443 29.9225 121.533 30.123H121.619C121.722 29.9189 121.862 29.7417 122.038 29.5913C122.213 29.4373 122.415 29.3192 122.645 29.2368C122.877 29.1509 123.126 29.1079 123.391 29.1079C123.785 29.1079 124.118 29.1813 124.39 29.3281C124.666 29.4749 124.875 29.6898 125.019 29.9727C125.162 30.252 125.233 30.5939 125.233 30.9985V35H124.299V31.2134C124.299 30.9269 124.254 30.6906 124.165 30.5044C124.079 30.3146 123.946 30.1732 123.767 30.0801C123.588 29.9834 123.362 29.9351 123.09 29.9351C122.822 29.9351 122.587 29.9959 122.387 30.1177C122.186 30.2394 122.03 30.4023 121.919 30.6064C121.808 30.807 121.753 31.0308 121.753 31.2778V35H120.818V31.0684C120.818 30.8392 120.768 30.6405 120.668 30.4722C120.571 30.3003 120.432 30.1678 120.249 30.0747C120.07 29.9816 119.859 29.9351 119.615 29.9351C119.365 29.9351 119.137 30.0013 118.933 30.1338C118.733 30.2663 118.573 30.4453 118.455 30.6709C118.34 30.8929 118.283 31.14 118.283 31.4121V35H117.349ZM131.604 35.1021C131.238 35.1021 130.909 35.0322 130.615 34.8926C130.325 34.7529 130.094 34.5542 129.922 34.2964C129.754 34.0386 129.67 33.7342 129.67 33.3833V33.3726C129.67 33.0288 129.752 32.7352 129.917 32.4917C130.082 32.2446 130.322 32.0513 130.637 31.9116C130.952 31.772 131.333 31.6896 131.781 31.6646L133.908 31.5356V32.2822L131.894 32.4111C131.453 32.4362 131.131 32.5275 130.927 32.6851C130.726 32.8426 130.626 33.0646 130.626 33.3511V33.3618C130.626 33.6554 130.737 33.8846 130.959 34.0493C131.181 34.2104 131.46 34.291 131.797 34.291C132.116 34.291 132.398 34.2284 132.646 34.103C132.893 33.9741 133.086 33.8005 133.226 33.582C133.369 33.3636 133.44 33.1165 133.44 32.8408V31.0361C133.44 30.6781 133.331 30.4059 133.113 30.2197C132.898 30.0299 132.574 29.9351 132.141 29.9351C131.793 29.9351 131.509 29.9977 131.287 30.123C131.065 30.2448 130.916 30.4185 130.841 30.644L130.835 30.6602H129.901L129.906 30.6279C129.956 30.3236 130.082 30.0586 130.282 29.833C130.486 29.6038 130.75 29.4266 131.072 29.3013C131.394 29.1724 131.761 29.1079 132.173 29.1079C132.646 29.1079 133.045 29.1849 133.371 29.3389C133.7 29.4928 133.949 29.7148 134.117 30.0049C134.289 30.2913 134.375 30.6351 134.375 31.0361V35H133.44V34.146H133.354C133.233 34.3501 133.084 34.5238 132.909 34.667C132.737 34.8102 132.542 34.9194 132.323 34.9946C132.105 35.0662 131.865 35.1021 131.604 35.1021ZM138.452 35.1021C137.911 35.1021 137.442 34.9785 137.044 34.7314C136.647 34.4844 136.339 34.1353 136.121 33.6841C135.902 33.2329 135.793 32.7012 135.793 32.0889V32.0781C135.793 31.4766 135.9 30.9538 136.115 30.5098C136.334 30.0658 136.642 29.722 137.039 29.4785C137.437 29.2314 137.906 29.1079 138.446 29.1079C138.915 29.1079 139.32 29.1903 139.66 29.355C140 29.5197 140.272 29.7417 140.477 30.021C140.681 30.2967 140.811 30.6064 140.869 30.9502L140.874 30.9824H139.945L139.939 30.9663C139.868 30.6799 139.705 30.4364 139.451 30.2358C139.196 30.0353 138.862 29.9351 138.446 29.9351C138.099 29.9351 137.798 30.0228 137.544 30.1982C137.29 30.3737 137.093 30.6226 136.953 30.9448C136.817 31.2635 136.749 31.6413 136.749 32.0781V32.0889C136.749 32.5329 136.819 32.9196 136.958 33.249C137.098 33.5749 137.295 33.8273 137.549 34.0063C137.804 34.1854 138.103 34.2749 138.446 34.2749C138.837 34.2749 139.155 34.1908 139.402 34.0225C139.649 33.8542 139.827 33.6089 139.934 33.2866L139.945 33.2544L140.869 33.249L140.858 33.3081C140.779 33.6554 140.639 33.9652 140.439 34.2373C140.238 34.5059 139.973 34.7171 139.644 34.8711C139.315 35.0251 138.917 35.1021 138.452 35.1021ZM144.607 35.1021C144.066 35.1021 143.597 34.9785 143.2 34.7314C142.802 34.4844 142.494 34.1353 142.276 33.6841C142.057 33.2329 141.948 32.7012 141.948 32.0889V32.0781C141.948 31.4766 142.056 30.9538 142.271 30.5098C142.489 30.0658 142.797 29.722 143.194 29.4785C143.592 29.2314 144.061 29.1079 144.602 29.1079C145.071 29.1079 145.475 29.1903 145.815 29.355C146.156 29.5197 146.428 29.7417 146.632 30.021C146.836 30.2967 146.967 30.6064 147.024 30.9502L147.029 30.9824H146.1L146.095 30.9663C146.023 30.6799 145.86 30.4364 145.606 30.2358C145.352 30.0353 145.017 29.9351 144.602 29.9351C144.254 29.9351 143.953 30.0228 143.699 30.1982C143.445 30.3737 143.248 30.6226 143.108 30.9448C142.972 31.2635 142.904 31.6413 142.904 32.0781V32.0889C142.904 32.5329 142.974 32.9196 143.114 33.249C143.253 33.5749 143.45 33.8273 143.705 34.0063C143.959 34.1854 144.258 34.2749 144.602 34.2749C144.992 34.2749 145.311 34.1908 145.558 34.0225C145.805 33.8542 145.982 33.6089 146.089 33.2866L146.1 33.2544L147.024 33.249L147.013 33.3081C146.934 33.6554 146.795 33.9652 146.594 34.2373C146.394 34.5059 146.129 34.7171 145.799 34.8711C145.47 35.0251 145.072 35.1021 144.607 35.1021ZM150.773 35.1021C150.225 35.1021 149.751 34.9821 149.35 34.7422C148.952 34.4987 148.644 34.1532 148.426 33.7056C148.211 33.258 148.104 32.7262 148.104 32.1104V32.0996C148.104 31.4801 148.211 30.9466 148.426 30.499C148.644 30.0514 148.952 29.7077 149.35 29.4678C149.751 29.2279 150.225 29.1079 150.773 29.1079C151.324 29.1079 151.799 29.2279 152.196 29.4678C152.594 29.7077 152.9 30.0514 153.115 30.499C153.333 30.9466 153.442 31.4801 153.442 32.0996V32.1104C153.442 32.7262 153.333 33.258 153.115 33.7056C152.9 34.1532 152.594 34.4987 152.196 34.7422C151.799 34.9821 151.324 35.1021 150.773 35.1021ZM150.773 34.2749C151.138 34.2749 151.448 34.189 151.702 34.0171C151.956 33.8452 152.15 33.5981 152.282 33.2759C152.418 32.9536 152.486 32.5651 152.486 32.1104V32.0996C152.486 31.6413 152.418 31.251 152.282 30.9287C152.15 30.6064 151.956 30.3612 151.702 30.1929C151.448 30.021 151.138 29.9351 150.773 29.9351C150.408 29.9351 150.098 30.021 149.844 30.1929C149.59 30.3612 149.394 30.6064 149.258 30.9287C149.126 31.251 149.06 31.6413 149.06 32.0996V32.1104C149.06 32.5651 149.126 32.9536 149.258 33.2759C149.394 33.5981 149.59 33.8452 149.844 34.0171C150.098 34.189 150.408 34.2749 150.773 34.2749ZM156.832 35.1021C156.395 35.1021 156.028 35.0197 155.73 34.855C155.433 34.6867 155.209 34.4432 155.059 34.1245C154.912 33.8022 154.839 33.4137 154.839 32.959V29.21H155.773V32.7334C155.773 33.2526 155.874 33.6393 156.074 33.8936C156.278 34.1478 156.611 34.2749 157.073 34.2749C157.327 34.2749 157.551 34.2373 157.745 34.1621C157.942 34.0869 158.106 33.9795 158.239 33.8398C158.371 33.6966 158.47 33.5247 158.534 33.3242C158.602 33.1201 158.636 32.891 158.636 32.6367V29.21H159.571V35H158.636V34.1353H158.55C158.457 34.3394 158.33 34.5148 158.169 34.6616C158.008 34.8049 157.814 34.9141 157.589 34.9893C157.367 35.0645 157.114 35.1021 156.832 35.1021ZM161.316 35V29.21H162.251V30.0801H162.337C162.484 29.7721 162.695 29.534 162.971 29.3657C163.246 29.1938 163.597 29.1079 164.023 29.1079C164.675 29.1079 165.175 29.2941 165.522 29.6665C165.873 30.0353 166.048 30.5635 166.048 31.251V35H165.114V31.4766C165.114 30.9538 165.003 30.5671 164.781 30.3164C164.562 30.0622 164.222 29.9351 163.76 29.9351C163.452 29.9351 163.186 30.0013 162.96 30.1338C162.734 30.2663 162.559 30.4543 162.434 30.6978C162.312 30.9412 162.251 31.2331 162.251 31.5732V35H161.316ZM169.797 35.043C169.203 35.043 168.771 34.923 168.503 34.6831C168.238 34.4432 168.105 34.0475 168.105 33.4961V29.9834H167.192V29.21H168.105V27.7114H169.072V29.21H170.34V29.9834H169.072V33.2598C169.072 33.5999 169.137 33.8452 169.266 33.9956C169.395 34.1424 169.609 34.2158 169.91 34.2158C169.993 34.2158 170.062 34.214 170.12 34.2104C170.181 34.2069 170.254 34.2015 170.34 34.1943V34.9893C170.25 35.0036 170.161 35.0161 170.071 35.0269C169.982 35.0376 169.89 35.043 169.797 35.043Z" fill="#ABABAB"/>
<circle opacity="0.05" cx="20" cy="20" r="20" fill="#555555"/>
<g opacity="0.7">
<path opacity="0.4" d="M22.5133 16.1579V15.3804C22.5133 13.6846 21.1383 12.3096 19.4425 12.3096H15.38C13.685 12.3096 12.31 13.6846 12.31 15.3804V24.6554C12.31 26.3512 13.685 27.7262 15.38 27.7262H19.4508C21.1417 27.7262 22.5133 26.3554 22.5133 24.6646V23.8787" stroke="#951B80" stroke-linecap="round" stroke-linejoin="round"/>
<path d="M28.1746 20.0177H18.1404" stroke="#951B80" stroke-linecap="round" stroke-linejoin="round"/>
<path d="M25.7343 17.5884L28.1743 20.0175L25.7343 22.4475" stroke="#951B80" stroke-linecap="round" stroke-linejoin="round"/>
</g>
</svg>
