<svg width="72" height="43" viewBox="0 0 72 43" fill="none" xmlns="http://www.w3.org/2000/svg">
<path d="M21.1136 38.3851V37.3695H22.9886C23.4411 37.3695 23.7927 37.2539 24.0433 37.0228C24.294 36.7885 24.4193 36.4597 24.4193 36.0365V36.0267C24.4193 35.6003 24.294 35.2715 24.0433 35.0404C23.7927 34.8093 23.4411 34.6937 22.9886 34.6937H21.1136V33.6683H23.2962C23.7748 33.6683 24.1931 33.766 24.5511 33.9613C24.9092 34.1566 25.1892 34.4317 25.391 34.7865C25.5928 35.1381 25.6937 35.5498 25.6937 36.0219V36.0316C25.6937 36.5004 25.5928 36.9122 25.391 37.267C25.1892 37.6185 24.9092 37.8936 24.5511 38.0922C24.1931 38.2875 23.7748 38.3851 23.2962 38.3851H21.1136ZM20.4837 40.7142V33.6683H21.7435V40.7142H20.4837ZM27.0784 40.7142V35.3773H28.2942V36.1976H28.3772C28.4683 35.9112 28.6311 35.6882 28.8655 35.5287C29.1031 35.3692 29.3977 35.2894 29.7493 35.2894C29.8404 35.2894 29.9299 35.2959 30.0178 35.309C30.109 35.3187 30.1838 35.3317 30.2424 35.348V36.4369C30.1448 36.4141 30.0455 36.3978 29.9446 36.3881C29.8469 36.375 29.7444 36.3685 29.637 36.3685C29.3668 36.3685 29.1308 36.419 28.9289 36.5199C28.7271 36.6208 28.5709 36.7657 28.4602 36.9545C28.3495 37.14 28.2942 37.3597 28.2942 37.6136V40.7142H27.0784ZM33.5265 40.8217C32.9959 40.8217 32.5385 40.711 32.1544 40.4896C31.7703 40.265 31.4741 39.946 31.2657 39.5326C31.0607 39.1192 30.9581 38.6244 30.9581 38.0482V38.0385C30.9581 37.4688 31.0623 36.9773 31.2706 36.5638C31.479 36.1472 31.7736 35.8282 32.1544 35.6068C32.5385 35.3855 32.9959 35.2748 33.5265 35.2748C34.0571 35.2748 34.5128 35.3855 34.8937 35.6068C35.2778 35.8282 35.574 36.1455 35.7823 36.559C35.9907 36.9724 36.0948 37.4655 36.0948 38.0385V38.0482C36.0948 38.6244 35.9907 39.1192 35.7823 39.5326C35.5773 39.946 35.2827 40.265 34.8986 40.4896C34.5177 40.711 34.0603 40.8217 33.5265 40.8217ZM33.5265 39.8353C33.8064 39.8353 34.0441 39.7653 34.2394 39.6254C34.4379 39.4821 34.5893 39.2787 34.6935 39.015C34.7976 38.7481 34.8497 38.4274 34.8497 38.0531V38.0433C34.8497 37.6657 34.7976 37.3451 34.6935 37.0814C34.5893 36.8145 34.4379 36.611 34.2394 36.4711C34.0441 36.3278 33.8064 36.2562 33.5265 36.2562C33.2465 36.2562 33.0073 36.3278 32.8087 36.4711C32.6101 36.611 32.4588 36.8145 32.3546 37.0814C32.2504 37.3451 32.1984 37.6657 32.1984 38.0433V38.0531C32.1984 38.4274 32.2504 38.7481 32.3546 39.015C32.4588 39.2819 32.6085 39.4854 32.8038 39.6254C33.0024 39.7653 33.2433 39.8353 33.5265 39.8353ZM37.8262 40.7142V36.3197H36.9521V35.3773H37.8262V34.85C37.8262 34.4919 37.8864 34.1957 38.0068 33.9613C38.1305 33.7269 38.321 33.5528 38.5781 33.4388C38.8353 33.3217 39.1608 33.2631 39.5547 33.2631C39.6849 33.2631 39.8053 33.2679 39.916 33.2777C40.0267 33.2842 40.1292 33.2956 40.2236 33.3119V34.1615C40.1781 34.155 40.1195 34.1501 40.0479 34.1469C39.9762 34.1403 39.8981 34.1371 39.8135 34.1371C39.527 34.1371 39.3236 34.2038 39.2031 34.3373C39.0827 34.4675 39.0225 34.6612 39.0225 34.9183V35.3773H40.1797V36.3197H39.042V40.7142H37.8262ZM41.4862 40.7142V35.3773H42.6971V40.7142H41.4862ZM42.0966 34.4838C41.898 34.4838 41.7271 34.4138 41.5839 34.2738C41.4406 34.1338 41.369 33.9662 41.369 33.7709C41.369 33.5691 41.4406 33.3998 41.5839 33.2631C41.7271 33.1231 41.898 33.0531 42.0966 33.0531C42.2951 33.0531 42.4644 33.1231 42.6044 33.2631C42.7476 33.3998 42.8192 33.5691 42.8192 33.7709C42.8192 33.9662 42.7476 34.1338 42.6044 34.2738C42.4644 34.4138 42.2951 34.4838 42.0966 34.4838ZM44.365 40.7142V33.3119H45.5808V40.7142H44.365ZM49.5143 40.8217C48.9837 40.8217 48.528 40.7094 48.1471 40.4847C47.7695 40.2601 47.4782 39.9411 47.2731 39.5277C47.068 39.1143 46.9655 38.6244 46.9655 38.058V38.0531C46.9655 37.4932 47.0664 37.0049 47.2682 36.5883C47.4733 36.1716 47.763 35.8493 48.1373 35.6215C48.5117 35.3903 48.9511 35.2748 49.4557 35.2748C49.9635 35.2748 50.3997 35.3871 50.7643 35.6117C51.1321 35.833 51.4153 36.1439 51.6139 36.5443C51.8125 36.9447 51.9118 37.4135 51.9118 37.9506V38.351H47.5758V37.5355H51.3161L50.7399 38.2972V37.8138C50.7399 37.459 50.6862 37.1644 50.5788 36.9301C50.4713 36.6957 50.3216 36.5199 50.1295 36.4027C49.9407 36.2855 49.721 36.2269 49.4704 36.2269C49.2197 36.2269 48.9967 36.2888 48.8014 36.4125C48.6093 36.5329 48.4564 36.712 48.3424 36.9496C48.2317 37.184 48.1764 37.472 48.1764 37.8138V38.3021C48.1764 38.6309 48.2317 38.9125 48.3424 39.1469C48.4531 39.378 48.6093 39.557 48.8112 39.684C49.0163 39.8077 49.2588 39.8695 49.5387 39.8695C49.7568 39.8695 49.944 39.8386 50.1002 39.7767C50.2597 39.7116 50.3883 39.6351 50.486 39.5472C50.5836 39.4561 50.652 39.3698 50.6911 39.2885L50.7057 39.2543H51.858L51.8483 39.2982C51.806 39.4707 51.7278 39.6465 51.6139 39.8256C51.5032 40.0013 51.3519 40.1657 51.1598 40.3187C50.971 40.4685 50.7399 40.5905 50.4664 40.6849C50.193 40.7761 49.8756 40.8217 49.5143 40.8217Z" fill="#8E8E93"/>
<g clip-path="url(#clip0_16_251)">
<path d="M35.9932 28.6667C43.6665 28.6667 50 22.1792 50 14.3333C50 6.48743 43.6733 0 36 0C28.3403 0 22 6.48743 22 14.3333C22 22.1792 28.3335 28.6667 35.9932 28.6667ZM35.9797 16.5928C33.3272 16.579 31.2702 14.3056 31.2702 11.2976C31.2431 8.4697 33.3407 6.11315 35.9797 6.11315C38.6187 6.11315 40.6892 8.4697 40.6892 11.2976C40.6892 14.3056 38.6322 16.6206 35.9797 16.5928ZM35.9797 26.2963C32.9483 26.2963 29.7274 25.0071 27.6839 22.7614C29.2402 20.3772 32.3258 18.991 35.9797 18.991C39.593 18.991 42.7057 20.3495 44.2755 22.7614C42.232 25.0071 39.0111 26.2963 35.9797 26.2963Z" fill="#951B80"/>
</g>
<defs>
<clipPath id="clip0_16_251">
<rect width="28" height="28.6667" fill="white" transform="translate(22)"/>
</clipPath>
</defs>
</svg>
