<svg width="160" height="160" viewBox="0 0 160 160" fill="none" xmlns="http://www.w3.org/2000/svg">
<path d="M79.519 159.115C123.124 159.115 159.115 123.124 159.115 79.519C159.115 35.9912 123.047 0 79.4421 0C35.9143 0 0 35.9912 0 79.519C0 123.124 35.9912 159.115 79.519 159.115ZM79.519 76.8274C68.291 76.8274 59.2163 67.3682 59.2163 54.679C59.2163 42.9126 68.291 33.0688 79.519 33.0688C90.6702 33.0688 99.7449 42.9126 99.7449 54.679C99.7449 67.3682 90.6702 76.9043 79.519 76.8274ZM44.2969 119.586C40.6824 119.586 38.9905 117.202 38.9905 113.972C38.9905 105.359 51.7566 83.1335 79.519 83.1335C107.205 83.1335 119.971 105.359 119.971 113.972C119.971 117.202 118.279 119.586 114.741 119.586H44.2969Z" fill="#E3E3E3"/>
</svg>
