<svg width="72" height="43" viewBox="0 0 72 43" fill="none" xmlns="http://www.w3.org/2000/svg">
<path d="M26.3815 41V35.0137H24.2136V33.9541H29.8093V35.0137H27.6413V41H26.3815ZM31.0425 41V35.6631H32.2535V41H31.0425ZM31.6529 34.7695C31.4543 34.7695 31.2834 34.6995 31.1402 34.5596C30.997 34.4196 30.9254 34.252 30.9254 34.0566C30.9254 33.8548 30.997 33.6855 31.1402 33.5488C31.2834 33.4089 31.4543 33.3389 31.6529 33.3389C31.8515 33.3389 32.0207 33.4089 32.1607 33.5488C32.3039 33.6855 32.3755 33.8548 32.3755 34.0566C32.3755 34.252 32.3039 34.4196 32.1607 34.5596C32.0207 34.6995 31.8515 34.7695 31.6529 34.7695ZM33.8725 41V35.6631H35.0883V36.4932H35.1713C35.2853 36.1969 35.4692 35.9674 35.7231 35.8047C35.9802 35.6419 36.2846 35.5605 36.6362 35.5605C36.8771 35.5605 37.0935 35.5996 37.2856 35.6777C37.4809 35.7559 37.6485 35.8665 37.7885 36.0098C37.9285 36.153 38.0359 36.3239 38.1108 36.5225H38.1987C38.2866 36.3304 38.4086 36.1628 38.5649 36.0195C38.7244 35.873 38.9099 35.7607 39.1215 35.6826C39.3364 35.6012 39.5675 35.5605 39.8149 35.5605C40.173 35.5605 40.4789 35.6322 40.7328 35.7754C40.99 35.9154 41.187 36.1172 41.3237 36.3809C41.4636 36.6445 41.5336 36.9603 41.5336 37.3281V41H40.3178V37.626C40.3178 37.3916 40.282 37.1979 40.2104 37.0449C40.142 36.8919 40.0362 36.7764 39.893 36.6982C39.7498 36.6201 39.5691 36.5811 39.351 36.5811C39.1394 36.5811 38.9555 36.6299 38.7993 36.7275C38.643 36.8219 38.5209 36.9505 38.433 37.1133C38.3484 37.276 38.3061 37.46 38.3061 37.665V41H37.0903V37.5381C37.0903 37.3395 37.0512 37.1686 36.9731 37.0254C36.8982 36.8822 36.7875 36.7731 36.6411 36.6982C36.4978 36.6201 36.3269 36.5811 36.1284 36.5811C35.9298 36.5811 35.7508 36.6331 35.5912 36.7373C35.435 36.8382 35.3113 36.9782 35.2202 37.1572C35.1323 37.333 35.0883 37.5316 35.0883 37.7529V41H33.8725ZM45.3695 41.1074C44.8389 41.1074 44.3831 40.9951 44.0023 40.7705C43.6247 40.5459 43.3333 40.2269 43.1282 39.8135C42.9232 39.4001 42.8206 38.9102 42.8206 38.3438V38.3389C42.8206 37.779 42.9215 37.2907 43.1234 36.874C43.3284 36.4574 43.6182 36.1351 43.9925 35.9072C44.3668 35.6761 44.8063 35.5605 45.3109 35.5605C45.8187 35.5605 46.2549 35.6729 46.6195 35.8975C46.9873 36.1188 47.2705 36.4297 47.4691 36.8301C47.6676 37.2305 47.7669 37.6992 47.7669 38.2363V38.6367H43.431V37.8213H47.1712L46.595 38.583V38.0996C46.595 37.7448 46.5413 37.4502 46.4339 37.2158C46.3265 36.9814 46.1767 36.8057 45.9847 36.6885C45.7959 36.5713 45.5762 36.5127 45.3255 36.5127C45.0749 36.5127 44.8519 36.5745 44.6566 36.6982C44.4645 36.8187 44.3115 36.9977 44.1976 37.2354C44.0869 37.4697 44.0316 37.7578 44.0316 38.0996V38.5879C44.0316 38.9167 44.0869 39.1982 44.1976 39.4326C44.3083 39.6637 44.4645 39.8428 44.6663 39.9697C44.8714 40.0934 45.1139 40.1553 45.3939 40.1553C45.612 40.1553 45.7991 40.1243 45.9554 40.0625C46.1149 39.9974 46.2435 39.9209 46.3411 39.833C46.4388 39.7419 46.5071 39.6556 46.5462 39.5742L46.5609 39.54H47.7132L47.7034 39.584C47.6611 39.7565 47.583 39.9323 47.4691 40.1113C47.3584 40.2871 47.207 40.4515 47.015 40.6045C46.8262 40.7542 46.595 40.8763 46.3216 40.9707C46.0482 41.0618 45.7308 41.1074 45.3695 41.1074Z" fill="#8E8E93"/>
<g filter="url(#filter0_b_13_362)">
<path fill-rule="evenodd" clip-rule="evenodd" d="M36.0434 2.90004H35.956C35.7868 2.90004 35.6498 2.75813 35.6498 2.58287V0.317167C35.6498 0.141904 35.7868 0 35.956 0H36.0434C36.2127 0 36.3497 0.141904 36.3497 0.317167V2.58287C36.3497 2.75813 36.2127 2.90004 36.0434 2.90004ZM36.0434 28.9999H35.956C35.7868 28.9999 35.6498 28.858 35.6498 28.6828V26.4171C35.6498 26.2418 35.7868 26.0999 35.956 26.0999H36.0434C36.2127 26.0999 36.3497 26.2418 36.3497 26.4171V28.6828C36.3497 28.858 36.2127 28.9999 36.0434 28.9999ZM30.3618 4.47664L30.4374 4.4311C30.5842 4.34374 30.6343 4.14994 30.5494 3.99798L29.4559 2.0362C29.3715 1.88424 29.1839 1.83235 29.0377 1.91972L28.962 1.96525C28.8153 2.05262 28.7652 2.24694 28.8495 2.39838L29.9436 4.36068C30.0279 4.51212 30.215 4.56401 30.3618 4.47664ZM43.0376 27.0345L42.962 27.0801C42.8153 27.1674 42.6281 27.1155 42.5438 26.9641L41.4497 25.0018C41.3654 24.8504 41.4155 24.656 41.5622 24.5687L41.6379 24.5231C41.7841 24.4358 41.9717 24.4877 42.0561 24.6396L43.1496 26.6014C43.2345 26.7534 43.1844 26.9472 43.0376 27.0345ZM48.1025 21.789L48.1465 21.7106C48.2309 21.5587 48.1808 21.3649 48.034 21.277L46.1399 20.1444C45.9932 20.057 45.8061 20.1089 45.7212 20.2604L45.6778 20.3393C45.5929 20.4907 45.6435 20.6845 45.7897 20.7724L47.6844 21.905C47.8306 21.9929 48.0182 21.941 48.1025 21.789ZM24.8 14.455V14.5455C24.8 14.7208 24.663 14.8627 24.4938 14.8627H22.3062C22.137 14.8627 22 14.7208 22 14.5455V14.455C22 14.2797 22.137 14.1378 22.3062 14.1378H24.4938C24.663 14.1378 24.8 14.2797 24.8 14.455ZM50.0005 14.5455V14.455C50.0005 14.2797 49.8634 14.1378 49.6942 14.1378H47.5067C47.3374 14.1378 47.2004 14.2797 47.2004 14.455V14.5455C47.2004 14.7208 47.3374 14.8627 47.5067 14.8627H49.6942C49.8634 14.8627 50.0005 14.7208 50.0005 14.5455ZM26.2788 20.2607L26.3228 20.3391C26.4072 20.491 26.3571 20.6848 26.2108 20.7722L24.3162 21.9053C24.17 21.9927 23.9824 21.9408 23.898 21.7888L23.854 21.7105C23.7697 21.559 23.8198 21.3647 23.9665 21.2773L25.8606 20.1448C26.0074 20.0569 26.1945 20.1087 26.2788 20.2607ZM48.1463 7.2894L48.1023 7.21104C48.0179 7.05907 47.8308 7.00718 47.6841 7.09508L45.79 8.22766C45.6433 8.31503 45.5932 8.50936 45.6775 8.66079L45.7215 8.73916C45.8058 8.89112 45.9935 8.94301 46.1397 8.85564L48.0343 7.72253C48.1805 7.63516 48.2306 7.44137 48.1463 7.2894ZM30.3618 24.5231L30.4375 24.5687C30.5842 24.656 30.6343 24.8504 30.5494 25.0018L29.4559 26.9641C29.371 27.1155 29.1839 27.168 29.0377 27.0801L28.9615 27.0351C28.8153 26.9472 28.7652 26.7534 28.8496 26.6014L29.9436 24.6396C30.028 24.4877 30.2151 24.4358 30.3618 24.5231ZM43.0377 1.96525L42.962 1.91972C42.8153 1.83235 42.6282 1.88424 42.5433 2.0362L41.4498 3.99798C41.3654 4.14994 41.4155 4.34374 41.5617 4.43163L41.6379 4.47664C41.7841 4.56454 41.9712 4.51212 42.0561 4.36068L43.1496 2.39838C43.2345 2.24694 43.1844 2.05262 43.0377 1.96525ZM32.7814 1.88311L32.697 1.90641C32.5334 1.95194 32.3657 1.85134 32.3218 1.6819L32.1183 0.894544C32.0743 0.725106 32.1715 0.550903 32.3346 0.505896L32.4189 0.482598C32.5825 0.437062 32.7507 0.537665 32.7942 0.706574L32.9981 1.49446C33.0416 1.6639 32.945 1.83757 32.7814 1.88311ZM39.3036 27.0933L39.2192 27.1166C39.0556 27.1622 38.959 27.3358 39.0024 27.5053L39.2064 28.2932C39.2499 28.4621 39.4181 28.5627 39.5817 28.5171L39.666 28.4939C39.8291 28.4488 39.9262 28.2746 39.8823 28.1052L39.6788 27.3178C39.6348 27.1484 39.4672 27.0478 39.3036 27.0933ZM27.122 5.24027L27.0601 5.30433C26.9405 5.42824 26.7467 5.42824 26.6271 5.30433L26.0703 4.72772C25.9507 4.60381 25.9507 4.40314 26.0703 4.27923L26.1322 4.21517C26.2518 4.09126 26.4456 4.09126 26.5652 4.21517L27.122 4.79178C27.2416 4.91569 27.2416 5.11636 27.122 5.24027ZM44.9405 23.6957L44.8786 23.7598C44.759 23.8837 44.759 24.0844 44.8786 24.2083L45.4353 24.7849C45.555 24.9088 45.7487 24.9088 45.8683 24.7849L45.9302 24.7208C46.0498 24.5969 46.0498 24.3963 45.9302 24.2724L45.3735 23.6957C45.2538 23.5718 45.0601 23.5718 44.9405 23.6957ZM23.8405 11.0788L23.8181 11.1662C23.7741 11.3356 23.6064 11.4357 23.4428 11.3907L22.6821 11.1794C22.519 11.1339 22.4219 10.9602 22.4658 10.7908L22.4883 10.7034C22.5323 10.534 22.7 10.4339 22.8636 10.4789L23.6243 10.6902C23.7874 10.7357 23.8845 10.9094 23.8405 11.0788ZM48.1821 17.8336L48.1596 17.921C48.1156 18.0904 48.2128 18.2641 48.3759 18.3096L49.1366 18.5209C49.3002 18.5659 49.4679 18.4658 49.5118 18.2964L49.5343 18.209C49.5783 18.0396 49.4812 17.8659 49.3181 17.8204L48.5574 17.6091C48.3938 17.5641 48.2261 17.6642 48.1821 17.8336ZM23.8182 17.8342L23.8407 17.9215C23.8846 18.091 23.7875 18.2647 23.6239 18.3102L22.8637 18.5209C22.7001 18.5665 22.5319 18.4659 22.4885 18.297L22.466 18.2096C22.422 18.0401 22.5191 17.8659 22.6822 17.8209L23.4429 17.6097C23.6065 17.5647 23.7742 17.6647 23.8182 17.8342ZM48.1596 11.0785L48.1821 11.1659C48.2261 11.3353 48.3938 11.4354 48.5574 11.3904L49.3181 11.1791C49.4812 11.1341 49.5783 10.9599 49.5343 10.7905L49.5118 10.7031C49.4684 10.5342 49.3002 10.4336 49.1366 10.4791L48.3764 10.6899C48.2128 10.7354 48.1156 10.9091 48.1596 11.0785ZM27.059 23.6957L27.1209 23.7598C27.2405 23.8837 27.2405 24.0844 27.1209 24.2083L26.5642 24.7849C26.4445 24.9088 26.2508 24.9088 26.1311 24.7849L26.0693 24.7208C25.9497 24.5969 25.9497 24.3962 26.0693 24.2723L26.626 23.6957C26.7457 23.5718 26.9394 23.5718 27.059 23.6957ZM44.8786 5.24024L44.9405 5.30431C45.0601 5.42821 45.2539 5.42821 45.3735 5.30431L45.9303 4.72769C46.0499 4.60379 46.0499 4.40311 45.9303 4.27921L45.8684 4.21514C45.7488 4.09124 45.555 4.09124 45.4354 4.21514L44.8786 4.79176C44.759 4.91566 44.759 5.11634 44.8786 5.24024ZM32.6963 27.0939L32.7807 27.1172C32.9443 27.1627 33.0409 27.3364 32.9974 27.5058L32.7934 28.2937C32.7495 28.4626 32.5818 28.5632 32.4182 28.5177L32.3338 28.4944C32.1702 28.4489 32.0736 28.2752 32.1171 28.1058L32.3211 27.3179C32.365 27.149 32.5327 27.0484 32.6963 27.0939ZM39.2192 1.88311L39.3036 1.90641C39.4672 1.95194 39.6348 1.85134 39.6788 1.68243L39.8828 0.894544C39.9262 0.725106 39.8296 0.551432 39.666 0.505896L39.5817 0.482598C39.4181 0.437062 39.2504 0.537665 39.2064 0.706574L39.0024 1.49446C38.959 1.6639 39.0556 1.83757 39.2192 1.88311ZM26.323 8.66097L26.2791 8.73933C26.1947 8.8913 26.0071 8.94319 25.8609 8.85529L23.9663 7.72271C23.82 7.63481 23.7694 7.44102 23.8543 7.28958L23.8977 7.21069C23.9826 7.05925 24.1697 7.00736 24.3164 7.09473L26.2106 8.22731C26.3573 8.31521 26.4074 8.509 26.323 8.66097Z" fill="black" fill-opacity="0.34" style="mix-blend-mode:plus-lighter"/>
<path fill-rule="evenodd" clip-rule="evenodd" d="M36.0434 2.90004H35.956C35.7868 2.90004 35.6498 2.75813 35.6498 2.58287V0.317167C35.6498 0.141904 35.7868 0 35.956 0H36.0434C36.2127 0 36.3497 0.141904 36.3497 0.317167V2.58287C36.3497 2.75813 36.2127 2.90004 36.0434 2.90004ZM36.0434 28.9999H35.956C35.7868 28.9999 35.6498 28.858 35.6498 28.6828V26.4171C35.6498 26.2418 35.7868 26.0999 35.956 26.0999H36.0434C36.2127 26.0999 36.3497 26.2418 36.3497 26.4171V28.6828C36.3497 28.858 36.2127 28.9999 36.0434 28.9999ZM30.3618 4.47664L30.4374 4.4311C30.5842 4.34374 30.6343 4.14994 30.5494 3.99798L29.4559 2.0362C29.3715 1.88424 29.1839 1.83235 29.0377 1.91972L28.962 1.96525C28.8153 2.05262 28.7652 2.24694 28.8495 2.39838L29.9436 4.36068C30.0279 4.51212 30.215 4.56401 30.3618 4.47664ZM43.0376 27.0345L42.962 27.0801C42.8153 27.1674 42.6281 27.1155 42.5438 26.9641L41.4497 25.0018C41.3654 24.8504 41.4155 24.656 41.5622 24.5687L41.6379 24.5231C41.7841 24.4358 41.9717 24.4877 42.0561 24.6396L43.1496 26.6014C43.2345 26.7534 43.1844 26.9472 43.0376 27.0345ZM48.1025 21.789L48.1465 21.7106C48.2309 21.5587 48.1808 21.3649 48.034 21.277L46.1399 20.1444C45.9932 20.057 45.8061 20.1089 45.7212 20.2604L45.6778 20.3393C45.5929 20.4907 45.6435 20.6845 45.7897 20.7724L47.6844 21.905C47.8306 21.9929 48.0182 21.941 48.1025 21.789ZM24.8 14.455V14.5455C24.8 14.7208 24.663 14.8627 24.4938 14.8627H22.3062C22.137 14.8627 22 14.7208 22 14.5455V14.455C22 14.2797 22.137 14.1378 22.3062 14.1378H24.4938C24.663 14.1378 24.8 14.2797 24.8 14.455ZM50.0005 14.5455V14.455C50.0005 14.2797 49.8634 14.1378 49.6942 14.1378H47.5067C47.3374 14.1378 47.2004 14.2797 47.2004 14.455V14.5455C47.2004 14.7208 47.3374 14.8627 47.5067 14.8627H49.6942C49.8634 14.8627 50.0005 14.7208 50.0005 14.5455ZM26.2788 20.2607L26.3228 20.3391C26.4072 20.491 26.3571 20.6848 26.2108 20.7722L24.3162 21.9053C24.17 21.9927 23.9824 21.9408 23.898 21.7888L23.854 21.7105C23.7697 21.559 23.8198 21.3647 23.9665 21.2773L25.8606 20.1448C26.0074 20.0569 26.1945 20.1087 26.2788 20.2607ZM48.1463 7.2894L48.1023 7.21104C48.0179 7.05907 47.8308 7.00718 47.6841 7.09508L45.79 8.22766C45.6433 8.31503 45.5932 8.50936 45.6775 8.66079L45.7215 8.73916C45.8058 8.89112 45.9935 8.94301 46.1397 8.85564L48.0343 7.72253C48.1805 7.63516 48.2306 7.44137 48.1463 7.2894ZM30.3618 24.5231L30.4375 24.5687C30.5842 24.656 30.6343 24.8504 30.5494 25.0018L29.4559 26.9641C29.371 27.1155 29.1839 27.168 29.0377 27.0801L28.9615 27.0351C28.8153 26.9472 28.7652 26.7534 28.8496 26.6014L29.9436 24.6396C30.028 24.4877 30.2151 24.4358 30.3618 24.5231ZM43.0377 1.96525L42.962 1.91972C42.8153 1.83235 42.6282 1.88424 42.5433 2.0362L41.4498 3.99798C41.3654 4.14994 41.4155 4.34374 41.5617 4.43163L41.6379 4.47664C41.7841 4.56454 41.9712 4.51212 42.0561 4.36068L43.1496 2.39838C43.2345 2.24694 43.1844 2.05262 43.0377 1.96525ZM32.7814 1.88311L32.697 1.90641C32.5334 1.95194 32.3657 1.85134 32.3218 1.6819L32.1183 0.894544C32.0743 0.725106 32.1715 0.550903 32.3346 0.505896L32.4189 0.482598C32.5825 0.437062 32.7507 0.537665 32.7942 0.706574L32.9981 1.49446C33.0416 1.6639 32.945 1.83757 32.7814 1.88311ZM39.3036 27.0933L39.2192 27.1166C39.0556 27.1622 38.959 27.3358 39.0024 27.5053L39.2064 28.2932C39.2499 28.4621 39.4181 28.5627 39.5817 28.5171L39.666 28.4939C39.8291 28.4488 39.9262 28.2746 39.8823 28.1052L39.6788 27.3178C39.6348 27.1484 39.4672 27.0478 39.3036 27.0933ZM27.122 5.24027L27.0601 5.30433C26.9405 5.42824 26.7467 5.42824 26.6271 5.30433L26.0703 4.72772C25.9507 4.60381 25.9507 4.40314 26.0703 4.27923L26.1322 4.21517C26.2518 4.09126 26.4456 4.09126 26.5652 4.21517L27.122 4.79178C27.2416 4.91569 27.2416 5.11636 27.122 5.24027ZM44.9405 23.6957L44.8786 23.7598C44.759 23.8837 44.759 24.0844 44.8786 24.2083L45.4353 24.7849C45.555 24.9088 45.7487 24.9088 45.8683 24.7849L45.9302 24.7208C46.0498 24.5969 46.0498 24.3963 45.9302 24.2724L45.3735 23.6957C45.2538 23.5718 45.0601 23.5718 44.9405 23.6957ZM23.8405 11.0788L23.8181 11.1662C23.7741 11.3356 23.6064 11.4357 23.4428 11.3907L22.6821 11.1794C22.519 11.1339 22.4219 10.9602 22.4658 10.7908L22.4883 10.7034C22.5323 10.534 22.7 10.4339 22.8636 10.4789L23.6243 10.6902C23.7874 10.7357 23.8845 10.9094 23.8405 11.0788ZM48.1821 17.8336L48.1596 17.921C48.1156 18.0904 48.2128 18.2641 48.3759 18.3096L49.1366 18.5209C49.3002 18.5659 49.4679 18.4658 49.5118 18.2964L49.5343 18.209C49.5783 18.0396 49.4812 17.8659 49.3181 17.8204L48.5574 17.6091C48.3938 17.5641 48.2261 17.6642 48.1821 17.8336ZM23.8182 17.8342L23.8407 17.9215C23.8846 18.091 23.7875 18.2647 23.6239 18.3102L22.8637 18.5209C22.7001 18.5665 22.5319 18.4659 22.4885 18.297L22.466 18.2096C22.422 18.0401 22.5191 17.8659 22.6822 17.8209L23.4429 17.6097C23.6065 17.5647 23.7742 17.6647 23.8182 17.8342ZM48.1596 11.0785L48.1821 11.1659C48.2261 11.3353 48.3938 11.4354 48.5574 11.3904L49.3181 11.1791C49.4812 11.1341 49.5783 10.9599 49.5343 10.7905L49.5118 10.7031C49.4684 10.5342 49.3002 10.4336 49.1366 10.4791L48.3764 10.6899C48.2128 10.7354 48.1156 10.9091 48.1596 11.0785ZM27.059 23.6957L27.1209 23.7598C27.2405 23.8837 27.2405 24.0844 27.1209 24.2083L26.5642 24.7849C26.4445 24.9088 26.2508 24.9088 26.1311 24.7849L26.0693 24.7208C25.9497 24.5969 25.9497 24.3962 26.0693 24.2723L26.626 23.6957C26.7457 23.5718 26.9394 23.5718 27.059 23.6957ZM44.8786 5.24024L44.9405 5.30431C45.0601 5.42821 45.2539 5.42821 45.3735 5.30431L45.9303 4.72769C46.0499 4.60379 46.0499 4.40311 45.9303 4.27921L45.8684 4.21514C45.7488 4.09124 45.555 4.09124 45.4354 4.21514L44.8786 4.79176C44.759 4.91566 44.759 5.11634 44.8786 5.24024ZM32.6963 27.0939L32.7807 27.1172C32.9443 27.1627 33.0409 27.3364 32.9974 27.5058L32.7934 28.2937C32.7495 28.4626 32.5818 28.5632 32.4182 28.5177L32.3338 28.4944C32.1702 28.4489 32.0736 28.2752 32.1171 28.1058L32.3211 27.3179C32.365 27.149 32.5327 27.0484 32.6963 27.0939ZM39.2192 1.88311L39.3036 1.90641C39.4672 1.95194 39.6348 1.85134 39.6788 1.68243L39.8828 0.894544C39.9262 0.725106 39.8296 0.551432 39.666 0.505896L39.5817 0.482598C39.4181 0.437062 39.2504 0.537665 39.2064 0.706574L39.0024 1.49446C38.959 1.6639 39.0556 1.83757 39.2192 1.88311ZM26.323 8.66097L26.2791 8.73933C26.1947 8.8913 26.0071 8.94319 25.8609 8.85529L23.9663 7.72271C23.82 7.63481 23.7694 7.44102 23.8543 7.28958L23.8977 7.21069C23.9826 7.05925 24.1697 7.00736 24.3164 7.09473L26.2106 8.22731C26.3573 8.31521 26.4074 8.509 26.323 8.66097Z" fill="#951B80" fill-opacity="0.84"/>
</g>
<path fill-rule="evenodd" clip-rule="evenodd" d="M35.2529 15.7572C35.2903 15.779 35.3289 15.7992 35.3687 15.8178C35.6023 15.9264 35.8497 15.963 36.0875 15.9368C36.2547 15.9275 36.4198 15.8871 36.5743 15.8155C37.2782 15.4886 37.5943 14.6305 37.2792 13.901C37.2446 13.821 37.2038 13.7459 37.1577 13.676C37.1484 13.5561 37.1682 13.4343 37.2167 13.3224L40.0152 6.86259C40.1736 6.49809 40.0152 6.06853 39.6638 5.90507C39.3119 5.7416 38.8971 5.90454 38.7393 6.26903L35.9408 12.7294C35.8591 12.9166 35.7048 13.06 35.5158 13.1224C35.1358 13.2483 34.8258 13.5329 34.6654 13.9033C34.612 14.0264 34.5767 14.1533 34.5583 14.2807C34.4893 14.3707 34.3998 14.4434 34.2963 14.4914L23.9087 19.3107C23.5567 19.4742 23.3989 19.9032 23.5567 20.2677C23.714 20.6322 24.1288 20.7962 24.4807 20.6327L34.8683 15.8134C34.9902 15.7569 35.1235 15.7381 35.2529 15.7572ZM35.3041 14.199C35.1463 14.564 35.3036 14.9925 35.656 15.1565C36.0085 15.3205 36.4222 15.1571 36.5805 14.7921C36.7384 14.427 36.581 13.9985 36.2286 13.8351C35.8762 13.6711 35.4624 13.834 35.3041 14.199Z" fill="#951B80" style="mix-blend-mode:color-dodge"/>
<path d="M35.3687 15.8178L35.5796 15.3644L35.5795 15.3644L35.3687 15.8178ZM35.2529 15.7572L35.5053 15.3256L35.4217 15.2767L35.326 15.2626L35.2529 15.7572ZM36.0875 15.9368L36.0597 15.4376L36.0462 15.4383L36.0327 15.4398L36.0875 15.9368ZM36.5743 15.8155L36.7844 16.2692L36.7849 16.269L36.5743 15.8155ZM37.2792 13.901L37.7382 13.7027L37.738 13.7023L37.2792 13.901ZM37.1577 13.676L36.6591 13.7143L36.669 13.8432L36.7402 13.9512L37.1577 13.676ZM37.2167 13.3224L37.6754 13.5213L37.6755 13.5212L37.2167 13.3224ZM40.0152 6.86259L39.5566 6.66337L39.5564 6.66383L40.0152 6.86259ZM39.6638 5.90507L39.8747 5.45172L39.8744 5.4516L39.6638 5.90507ZM38.7393 6.26903L39.1981 6.46778L39.1981 6.46771L38.7393 6.26903ZM35.9408 12.7294L36.399 12.9294L36.3996 12.9281L35.9408 12.7294ZM35.5158 13.1224L35.359 12.6477L35.3586 12.6478L35.5158 13.1224ZM34.6654 13.9033L34.2066 13.7045L34.2065 13.7046L34.6654 13.9033ZM34.5583 14.2807L34.9551 14.5848L35.0344 14.4814L35.0531 14.3524L34.5583 14.2807ZM34.2963 14.4914L34.0859 14.0378L34.0858 14.0378L34.2963 14.4914ZM23.9087 19.3107L23.6982 18.8571L23.698 18.8572L23.9087 19.3107ZM23.5567 20.2677L24.0158 20.0696L24.0156 20.069L23.5567 20.2677ZM24.4807 20.6327L24.2703 20.1791L24.2701 20.1792L24.4807 20.6327ZM34.8683 15.8134L34.6579 15.3598L34.6579 15.3598L34.8683 15.8134ZM35.656 15.1565L35.4451 15.6099L35.4451 15.6099L35.656 15.1565ZM35.3041 14.199L34.8454 14L34.8452 14.0006L35.3041 14.199ZM36.5805 14.7921L37.0392 14.991L37.0395 14.9905L36.5805 14.7921ZM36.2286 13.8351L36.0177 14.2884L36.0182 14.2886L36.2286 13.8351ZM35.5795 15.3644C35.5539 15.3525 35.5292 15.3395 35.5053 15.3256L35.0006 16.1888C35.0513 16.2185 35.1038 16.246 35.158 16.2712L35.5795 15.3644ZM36.0327 15.4398C35.8836 15.4563 35.7283 15.4336 35.5796 15.3644L35.1578 16.2711C35.4762 16.4192 35.8157 16.4698 36.1423 16.4338L36.0327 15.4398ZM36.3642 15.3618C36.2679 15.4064 36.1648 15.4317 36.0597 15.4376L36.1153 16.436C36.3446 16.4233 36.5717 16.3677 36.7844 16.2692L36.3642 15.3618ZM36.8202 14.0993C37.0321 14.5898 36.8124 15.1536 36.3637 15.362L36.7849 16.269C37.7439 15.8235 38.1566 14.6712 37.7382 13.7027L36.8202 14.0993ZM36.7402 13.9512C36.7704 13.9969 36.7973 14.0464 36.8204 14.0997L37.738 13.7023C37.6918 13.5957 37.6372 13.495 37.5751 13.4008L36.7402 13.9512ZM36.758 13.1235C36.6765 13.3114 36.6438 13.5147 36.6591 13.7143L37.6562 13.6377C37.6531 13.5975 37.6598 13.5573 37.6754 13.5213L36.758 13.1235ZM39.5564 6.66383L36.7579 13.1236L37.6755 13.5212L40.474 7.06135L39.5564 6.66383ZM39.4529 6.35842C39.5496 6.40337 39.6109 6.53847 39.5566 6.66337L40.4738 7.06181C40.7362 6.45772 40.4809 5.73369 39.8747 5.45172L39.4529 6.35842ZM39.1981 6.46771C39.2485 6.35149 39.366 6.31803 39.4532 6.35854L39.8744 5.4516C39.2578 5.16517 38.5458 5.45759 38.2805 6.07035L39.1981 6.46771ZM36.3996 12.9281L39.1981 6.46778L38.2805 6.07028L35.482 12.5306L36.3996 12.9281ZM35.6726 13.5972C36.002 13.4884 36.2628 13.2416 36.399 12.9294L35.4825 12.5294C35.4553 12.5917 35.4076 12.6316 35.359 12.6477L35.6726 13.5972ZM35.1242 14.102C35.2285 13.8612 35.4295 13.6778 35.6731 13.5971L35.3586 12.6478C34.8421 12.8189 34.4231 13.2047 34.2066 13.7045L35.1242 14.102ZM35.0531 14.3524C35.0653 14.268 35.0887 14.1839 35.1242 14.1019L34.2065 13.7046C34.1354 13.8689 34.0881 14.0385 34.0634 14.2089L35.0531 14.3524ZM34.5067 14.9449C34.6852 14.8621 34.8382 14.7374 34.9551 14.5848L34.1614 13.9765C34.1404 14.0039 34.1143 14.0246 34.0859 14.0378L34.5067 14.9449ZM24.1191 19.7643L34.5067 14.9449L34.0858 14.0378L23.6982 18.8571L24.1191 19.7643ZM24.0156 20.069C23.9613 19.9436 24.0226 19.8091 24.1193 19.7642L23.698 18.8572C23.0909 19.1393 22.8365 19.8628 23.0979 20.4664L24.0156 20.069ZM24.2701 20.1792C24.1839 20.2193 24.0662 20.1863 24.0158 20.0696L23.0977 20.4658C23.3619 21.0781 24.0737 21.3731 24.6914 21.0862L24.2701 20.1792ZM34.6579 15.3598L24.2703 20.1791L24.6912 21.0863L35.0788 16.2669L34.6579 15.3598ZM35.326 15.2626C35.1002 15.2292 34.8683 15.2622 34.6579 15.3598L35.0787 16.267C35.112 16.2515 35.1469 16.247 35.1799 16.2518L35.326 15.2626ZM35.867 14.7032C35.7697 14.658 35.7084 14.5238 35.763 14.3975L34.8452 14.0006C34.5841 14.6043 34.8375 15.3271 35.4451 15.6099L35.867 14.7032ZM36.1218 14.5931C36.0705 14.7113 35.9534 14.7434 35.867 14.7032L35.4451 15.6099C36.0635 15.8977 36.7738 15.6028 37.0392 14.991L36.1218 14.5931ZM36.0182 14.2886C36.1147 14.3334 36.1763 14.4671 36.1216 14.5936L37.0395 14.9905C37.3004 14.387 37.0474 13.6636 36.439 13.3815L36.0182 14.2886ZM35.7628 14.398C35.8138 14.2804 35.9307 14.2479 36.0177 14.2884L36.4395 13.3817C35.8217 13.0942 35.1111 13.3876 34.8454 14L35.7628 14.398Z" fill="#951B80"/>
<defs>
<filter id="filter0_b_13_362" x="-113.914" y="-135.914" width="299.829" height="300.828" filterUnits="userSpaceOnUse" color-interpolation-filters="sRGB">
<feFlood flood-opacity="0" result="BackgroundImageFix"/>
<feGaussianBlur in="BackgroundImageFix" stdDeviation="67.957"/>
<feComposite in2="SourceAlpha" operator="in" result="effect1_backgroundBlur_13_362"/>
<feBlend mode="normal" in="SourceGraphic" in2="effect1_backgroundBlur_13_362" result="shape"/>
</filter>
</defs>
</svg>
