<svg width="330" height="56" viewBox="0 0 330 56" fill="none" xmlns="http://www.w3.org/2000/svg">
<rect width="330" height="56" rx="8" fill="#1E232C"/>
<path d="M147.505 33V22.5H149.065V31.44H153.588V33H147.505ZM157.866 33.195C157.176 33.195 156.546 33.0175 155.976 32.6625C155.411 32.3075 154.958 31.8325 154.618 31.2375C154.283 30.6375 154.116 29.975 154.116 29.25C154.116 28.7 154.213 28.1875 154.408 27.7125C154.603 27.2325 154.871 26.8125 155.211 26.4525C155.556 26.0875 155.956 25.8025 156.411 25.5975C156.866 25.3925 157.351 25.29 157.866 25.29C158.556 25.29 159.183 25.4675 159.748 25.8225C160.318 26.1775 160.771 26.655 161.106 27.255C161.446 27.855 161.616 28.52 161.616 29.25C161.616 29.795 161.518 30.305 161.323 30.78C161.128 31.255 160.858 31.675 160.513 32.04C160.173 32.4 159.776 32.6825 159.321 32.8875C158.871 33.0925 158.386 33.195 157.866 33.195ZM157.866 31.635C158.281 31.635 158.653 31.525 158.983 31.305C159.313 31.085 159.573 30.795 159.763 30.435C159.958 30.07 160.056 29.675 160.056 29.25C160.056 28.815 159.956 28.415 159.756 28.05C159.561 27.685 159.298 27.395 158.968 27.18C158.638 26.96 158.271 26.85 157.866 26.85C157.456 26.85 157.083 26.96 156.748 27.18C156.418 27.4 156.156 27.6925 155.961 28.0575C155.771 28.4225 155.676 28.82 155.676 29.25C155.676 29.695 155.776 30.0975 155.976 30.4575C156.176 30.8175 156.441 31.105 156.771 31.32C157.106 31.53 157.471 31.635 157.866 31.635ZM168.521 25.5H170.081V33.195C170.081 33.71 169.971 34.185 169.751 34.62C169.536 35.055 169.243 35.43 168.873 35.745C168.503 36.065 168.078 36.3125 167.598 36.4875C167.123 36.6625 166.626 36.75 166.106 36.75C165.581 36.75 165.076 36.6375 164.591 36.4125C164.106 36.1925 163.678 35.8925 163.308 35.5125C162.943 35.1325 162.671 34.7025 162.491 34.2225L163.923 33.5775C164.023 33.8875 164.183 34.1625 164.403 34.4025C164.628 34.6425 164.888 34.8325 165.183 34.9725C165.483 35.1125 165.791 35.1825 166.106 35.1825C166.416 35.1825 166.713 35.1325 166.998 35.0325C167.288 34.9375 167.546 34.8025 167.771 34.6275C168.001 34.4525 168.183 34.2425 168.318 33.9975C168.453 33.7525 168.521 33.485 168.521 33.195V31.9275C168.276 32.3075 167.961 32.615 167.576 32.85C167.191 33.08 166.743 33.195 166.233 33.195C165.703 33.195 165.203 33.0925 164.733 32.8875C164.263 32.6825 163.851 32.4 163.496 32.04C163.141 31.675 162.863 31.255 162.663 30.78C162.463 30.305 162.363 29.795 162.363 29.25C162.363 28.705 162.463 28.195 162.663 27.72C162.863 27.24 163.141 26.82 163.496 26.46C163.851 26.095 164.263 25.81 164.733 25.605C165.203 25.4 165.703 25.2975 166.233 25.2975C166.743 25.2975 167.191 25.415 167.576 25.65C167.961 25.88 168.276 26.1875 168.521 26.5725V25.5ZM166.248 31.6875C166.683 31.6875 167.063 31.5775 167.388 31.3575C167.713 31.1325 167.966 30.835 168.146 30.465C168.326 30.095 168.416 29.69 168.416 29.25C168.416 28.8 168.323 28.3925 168.138 28.0275C167.958 27.6575 167.706 27.3625 167.381 27.1425C167.056 26.9175 166.678 26.805 166.248 26.805C165.828 26.805 165.443 26.915 165.093 27.135C164.748 27.355 164.473 27.65 164.268 28.02C164.063 28.39 163.961 28.8 163.961 29.25C163.961 29.7 164.063 30.11 164.268 30.48C164.478 30.85 164.756 31.145 165.101 31.365C165.451 31.58 165.833 31.6875 166.248 31.6875ZM171.749 25.5H173.309V33H171.749V25.5ZM172.544 24.4125C172.304 24.4125 172.104 24.335 171.944 24.18C171.784 24.025 171.704 23.83 171.704 23.595C171.704 23.365 171.784 23.1725 171.944 23.0175C172.104 22.8575 172.301 22.7775 172.536 22.7775C172.766 22.7775 172.961 22.8575 173.121 23.0175C173.281 23.1725 173.361 23.365 173.361 23.595C173.361 23.83 173.281 24.025 173.121 24.18C172.966 24.335 172.774 24.4125 172.544 24.4125ZM181.794 28.2975V33H180.234V28.68C180.234 28.345 180.152 28.04 179.987 27.765C179.827 27.49 179.609 27.2725 179.334 27.1125C179.064 26.9475 178.759 26.865 178.419 26.865C178.089 26.865 177.787 26.9475 177.512 27.1125C177.237 27.2725 177.017 27.49 176.852 27.765C176.687 28.04 176.604 28.345 176.604 28.68V33H175.044V25.5H176.604V26.295C176.864 25.985 177.184 25.74 177.564 25.56C177.944 25.38 178.354 25.29 178.794 25.29C179.349 25.29 179.854 25.425 180.309 25.695C180.764 25.965 181.124 26.3275 181.389 26.7825C181.659 27.2375 181.794 27.7425 181.794 28.2975Z" fill="white"/>
</svg>
