<svg width="150" height="47" viewBox="0 0 150 47" fill="none" xmlns="http://www.w3.org/2000/svg">
<rect width="150" height="47" rx="8" fill="#951B80"/>
<path d="M38.4778 30.1414C37.7678 30.1414 37.1003 30.0014 36.4753 29.7214C35.8503 29.4364 35.3003 29.0464 34.8253 28.5514C34.3553 28.0514 33.9853 27.4714 33.7153 26.8114C33.4503 26.1514 33.3178 25.4464 33.3178 24.6964C33.3178 23.9464 33.4503 23.2414 33.7153 22.5814C33.9853 21.9214 34.3553 21.3439 34.8253 20.8489C35.3003 20.3489 35.8503 19.9589 36.4753 19.6789C37.1003 19.3939 37.7678 19.2514 38.4778 19.2514C39.3278 19.2514 40.1103 19.4489 40.8253 19.8439C41.5403 20.2389 42.1328 20.7639 42.6028 21.4189L41.2153 22.1614C40.8903 21.7514 40.4878 21.4239 40.0078 21.1789C39.5278 20.9339 39.0178 20.8114 38.4778 20.8114C37.9778 20.8114 37.5103 20.9139 37.0753 21.1189C36.6403 21.3239 36.2578 21.6039 35.9278 21.9589C35.5978 22.3139 35.3403 22.7264 35.1553 23.1964C34.9703 23.6664 34.8778 24.1664 34.8778 24.6964C34.8778 25.2314 34.9703 25.7339 35.1553 26.2039C35.3403 26.6689 35.5978 27.0814 35.9278 27.4414C36.2628 27.7964 36.6478 28.0764 37.0828 28.2814C37.5178 28.4814 37.9828 28.5814 38.4778 28.5814C39.0278 28.5814 39.5403 28.4589 40.0153 28.2139C40.4953 27.9639 40.8953 27.6339 41.2153 27.2239L42.6028 27.9814C42.1328 28.6364 41.5403 29.1614 40.8253 29.5564C40.1103 29.9464 39.3278 30.1414 38.4778 30.1414ZM44.0182 29.9464V22.4464H45.5782V23.2414C45.8382 22.9314 46.1582 22.6864 46.5382 22.5064C46.9182 22.3264 47.3282 22.2364 47.7682 22.2364C48.0482 22.2364 48.3257 22.2739 48.6007 22.3489L47.9782 23.9239C47.7832 23.8489 47.5882 23.8114 47.3932 23.8114C47.0632 23.8114 46.7607 23.8939 46.4857 24.0589C46.2107 24.2189 45.9907 24.4364 45.8257 24.7114C45.6607 24.9864 45.5782 25.2914 45.5782 25.6264V29.9464H44.0182ZM52.4158 30.1414C51.7258 30.1414 51.0958 29.9639 50.5258 29.6089C49.9608 29.2539 49.5083 28.7789 49.1683 28.1839C48.8333 27.5839 48.6658 26.9214 48.6658 26.1964C48.6658 25.6464 48.7633 25.1339 48.9583 24.6589C49.1533 24.1789 49.4208 23.7589 49.7608 23.3989C50.1058 23.0339 50.5058 22.7489 50.9608 22.5439C51.4158 22.3389 51.9008 22.2364 52.4158 22.2364C52.9908 22.2364 53.5183 22.3564 53.9983 22.5964C54.4783 22.8314 54.8883 23.1589 55.2283 23.5789C55.5683 23.9939 55.8183 24.4739 55.9783 25.0189C56.1383 25.5589 56.1858 26.1339 56.1208 26.7439H50.3383C50.4033 27.0889 50.5283 27.4014 50.7133 27.6814C50.9033 27.9564 51.1433 28.1739 51.4333 28.3339C51.7283 28.4939 52.0558 28.5764 52.4158 28.5814C52.7958 28.5814 53.1408 28.4864 53.4508 28.2964C53.7658 28.1064 54.0233 27.8439 54.2233 27.5089L55.8058 27.8764C55.5058 28.5414 55.0533 29.0864 54.4483 29.5114C53.8433 29.9314 53.1658 30.1414 52.4158 30.1414ZM50.2858 25.5514H54.5458C54.4958 25.1914 54.3683 24.8664 54.1633 24.5764C53.9633 24.2814 53.7108 24.0489 53.4058 23.8789C53.1058 23.7039 52.7758 23.6164 52.4158 23.6164C52.0608 23.6164 51.7308 23.7014 51.4258 23.8714C51.1258 24.0414 50.8758 24.2739 50.6758 24.5689C50.4808 24.8589 50.3508 25.1864 50.2858 25.5514ZM63.1832 22.4464H64.7432V29.9464H63.1757L63.1157 28.8589C62.8957 29.2439 62.5982 29.5539 62.2232 29.7889C61.8482 30.0239 61.4057 30.1414 60.8957 30.1414C60.3457 30.1414 59.8282 30.0389 59.3432 29.8339C58.8582 29.6239 58.4307 29.3339 58.0607 28.9639C57.6957 28.5939 57.4107 28.1689 57.2057 27.6889C57.0007 27.2039 56.8982 26.6839 56.8982 26.1289C56.8982 25.5939 56.9982 25.0914 57.1982 24.6214C57.3982 24.1464 57.6757 23.7314 58.0307 23.3764C58.3857 23.0214 58.7957 22.7439 59.2607 22.5439C59.7307 22.3389 60.2332 22.2364 60.7682 22.2364C61.3132 22.2364 61.7932 22.3614 62.2082 22.6114C62.6282 22.8564 62.9757 23.1714 63.2507 23.5564L63.1832 22.4464ZM60.8582 28.6339C61.2982 28.6339 61.6832 28.5264 62.0132 28.3114C62.3432 28.0914 62.5982 27.7964 62.7782 27.4264C62.9632 27.0564 63.0557 26.6464 63.0557 26.1964C63.0557 25.7414 62.9632 25.3289 62.7782 24.9589C62.5932 24.5889 62.3357 24.2964 62.0057 24.0814C61.6807 23.8614 61.2982 23.7514 60.8582 23.7514C60.4232 23.7514 60.0257 23.8614 59.6657 24.0814C59.3057 24.3014 59.0207 24.5964 58.8107 24.9664C58.6007 25.3364 58.4957 25.7464 58.4957 26.1964C58.4957 26.6514 58.6032 27.0639 58.8182 27.4339C59.0382 27.7989 59.3257 28.0914 59.6807 28.3114C60.0407 28.5264 60.4332 28.6339 60.8582 28.6339ZM70.1998 24.0064H68.6248L68.6173 29.9464H67.0573L67.0648 24.0064H65.8723V22.4464H67.0648L67.0573 20.0914H68.6173L68.6248 22.4464H70.1998V24.0064ZM74.6668 30.1414C73.9768 30.1414 73.3468 29.9639 72.7768 29.6089C72.2118 29.2539 71.7593 28.7789 71.4193 28.1839C71.0843 27.5839 70.9168 26.9214 70.9168 26.1964C70.9168 25.6464 71.0143 25.1339 71.2093 24.6589C71.4043 24.1789 71.6718 23.7589 72.0118 23.3989C72.3568 23.0339 72.7568 22.7489 73.2118 22.5439C73.6668 22.3389 74.1518 22.2364 74.6668 22.2364C75.2418 22.2364 75.7693 22.3564 76.2493 22.5964C76.7293 22.8314 77.1393 23.1589 77.4793 23.5789C77.8193 23.9939 78.0693 24.4739 78.2293 25.0189C78.3893 25.5589 78.4368 26.1339 78.3718 26.7439H72.5893C72.6543 27.0889 72.7793 27.4014 72.9643 27.6814C73.1543 27.9564 73.3943 28.1739 73.6843 28.3339C73.9793 28.4939 74.3068 28.5764 74.6668 28.5814C75.0468 28.5814 75.3918 28.4864 75.7018 28.2964C76.0168 28.1064 76.2743 27.8439 76.4743 27.5089L78.0568 27.8764C77.7568 28.5414 77.3043 29.0864 76.6993 29.5114C76.0943 29.9314 75.4168 30.1414 74.6668 30.1414ZM72.5368 25.5514H76.7968C76.7468 25.1914 76.6193 24.8664 76.4143 24.5764C76.2143 24.2814 75.9618 24.0489 75.6568 23.8789C75.3568 23.7039 75.0268 23.6164 74.6668 23.6164C74.3118 23.6164 73.9818 23.7014 73.6768 23.8714C73.3768 24.0414 73.1268 24.2739 72.9268 24.5689C72.7318 24.8589 72.6018 25.1864 72.5368 25.5514ZM83.3492 29.9464V22.4464H84.9092V23.2414C85.1692 22.9314 85.4892 22.6864 85.8692 22.5064C86.2492 22.3264 86.6592 22.2364 87.0992 22.2364C87.3792 22.2364 87.6567 22.2739 87.9317 22.3489L87.3092 23.9239C87.1142 23.8489 86.9192 23.8114 86.7242 23.8114C86.3942 23.8114 86.0917 23.8939 85.8167 24.0589C85.5417 24.2189 85.3217 24.4364 85.1567 24.7114C84.9917 24.9864 84.9092 25.2914 84.9092 25.6264V29.9464H83.3492ZM91.7469 30.1414C91.0569 30.1414 90.4269 29.9639 89.8569 29.6089C89.2919 29.2539 88.8394 28.7789 88.4994 28.1839C88.1644 27.5839 87.9969 26.9214 87.9969 26.1964C87.9969 25.6464 88.0944 25.1339 88.2894 24.6589C88.4844 24.1789 88.7519 23.7589 89.0919 23.3989C89.4369 23.0339 89.8369 22.7489 90.2919 22.5439C90.7469 22.3389 91.2319 22.2364 91.7469 22.2364C92.4369 22.2364 93.0644 22.4139 93.6294 22.7689C94.1994 23.1239 94.6519 23.6014 94.9869 24.2014C95.3269 24.8014 95.4969 25.4664 95.4969 26.1964C95.4969 26.7414 95.3994 27.2514 95.2044 27.7264C95.0094 28.2014 94.7394 28.6214 94.3944 28.9864C94.0544 29.3464 93.6569 29.6289 93.2019 29.8339C92.7519 30.0389 92.2669 30.1414 91.7469 30.1414ZM91.7469 28.5814C92.1619 28.5814 92.5344 28.4714 92.8644 28.2514C93.1944 28.0314 93.4544 27.7414 93.6444 27.3814C93.8394 27.0164 93.9369 26.6214 93.9369 26.1964C93.9369 25.7614 93.8369 25.3614 93.6369 24.9964C93.4419 24.6314 93.1794 24.3414 92.8494 24.1264C92.5194 23.9064 92.1519 23.7964 91.7469 23.7964C91.3369 23.7964 90.9644 23.9064 90.6294 24.1264C90.2994 24.3464 90.0369 24.6389 89.8419 25.0039C89.6519 25.3689 89.5569 25.7664 89.5569 26.1964C89.5569 26.6414 89.6569 27.0439 89.8569 27.4039C90.0569 27.7639 90.3219 28.0514 90.6519 28.2664C90.9869 28.4764 91.3519 28.5814 91.7469 28.5814ZM99.9939 30.1414C99.3039 30.1414 98.6739 29.9639 98.1039 29.6089C97.5389 29.2539 97.0864 28.7789 96.7464 28.1839C96.4114 27.5839 96.2439 26.9214 96.2439 26.1964C96.2439 25.6464 96.3414 25.1339 96.5364 24.6589C96.7314 24.1789 96.9989 23.7589 97.3389 23.3989C97.6839 23.0339 98.0839 22.7489 98.5389 22.5439C98.9939 22.3389 99.4789 22.2364 99.9939 22.2364C100.684 22.2364 101.311 22.4139 101.876 22.7689C102.446 23.1239 102.899 23.6014 103.234 24.2014C103.574 24.8014 103.744 25.4664 103.744 26.1964C103.744 26.7414 103.646 27.2514 103.451 27.7264C103.256 28.2014 102.986 28.6214 102.641 28.9864C102.301 29.3464 101.904 29.6289 101.449 29.8339C100.999 30.0389 100.514 30.1414 99.9939 30.1414ZM99.9939 28.5814C100.409 28.5814 100.781 28.4714 101.111 28.2514C101.441 28.0314 101.701 27.7414 101.891 27.3814C102.086 27.0164 102.184 26.6214 102.184 26.1964C102.184 25.7614 102.084 25.3614 101.884 24.9964C101.689 24.6314 101.426 24.3414 101.096 24.1264C100.766 23.9064 100.399 23.7964 99.9939 23.7964C99.5839 23.7964 99.2114 23.9064 98.8764 24.1264C98.5464 24.3464 98.2839 24.6389 98.0889 25.0039C97.8989 25.3689 97.8039 25.7664 97.8039 26.1964C97.8039 26.6414 97.9039 27.0439 98.1039 27.4039C98.3039 27.7639 98.5689 28.0514 98.8989 28.2664C99.2339 28.4764 99.5989 28.5814 99.9939 28.5814ZM104.956 29.9464V22.4464H106.516V23.2414C106.776 22.9314 107.093 22.6864 107.468 22.5064C107.848 22.3264 108.258 22.2364 108.698 22.2364C109.233 22.2364 109.726 22.3664 110.176 22.6264C110.626 22.8814 110.983 23.2214 111.248 23.6464C111.513 23.2214 111.866 22.8814 112.306 22.6264C112.751 22.3664 113.241 22.2364 113.776 22.2364C114.331 22.2364 114.836 22.3714 115.291 22.6414C115.746 22.9114 116.108 23.2739 116.378 23.7289C116.648 24.1839 116.783 24.6889 116.783 25.2439V29.9464H115.223V25.6414C115.223 25.3114 115.143 25.0089 114.983 24.7339C114.823 24.4589 114.608 24.2364 114.338 24.0664C114.068 23.8964 113.768 23.8114 113.438 23.8114C113.108 23.8114 112.808 23.8914 112.538 24.0514C112.268 24.2114 112.053 24.4289 111.893 24.7039C111.733 24.9789 111.653 25.2914 111.653 25.6414V29.9464H110.093V25.6414C110.093 25.2914 110.013 24.9789 109.853 24.7039C109.693 24.4289 109.476 24.2114 109.201 24.0514C108.931 23.8914 108.631 23.8114 108.301 23.8114C107.976 23.8114 107.676 23.8964 107.401 24.0664C107.131 24.2364 106.916 24.4589 106.756 24.7339C106.596 25.0089 106.516 25.3114 106.516 25.6414V29.9464H104.956Z" fill="white"/>
</svg>
